<svg xmlns="http://www.w3.org/2000/svg" xmlns:xlink="http://www.w3.org/1999/xlink" viewBox="0 0 420 450"><defs><style>.cls-1{isolation:isolate;}.cls-2{fill:gray;}.cls-2,.cls-23,.cls-24,.cls-7{opacity:0.3;}.cls-2,.cls-22,.cls-24,.cls-25,.cls-26,.cls-27,.cls-28,.cls-4,.cls-9{mix-blend-mode:multiply;}.cls-3{fill:url(#NovÈ_polÌËko_p_echodu_2);}.cls-4,.cls-6{opacity:0.4;}.cls-4{fill:url(#NovÈ_polÌËko_p_echodu_2-2);}.cls-27,.cls-28,.cls-5{opacity:0.5;}.cls-23,.cls-5,.cls-6,.cls-7{mix-blend-mode:screen;}.cls-5{fill:url(#linear-gradient);}.cls-6{fill:url(#NovÈ_polÌËko_p_echodu_2-3);}.cls-7{fill:url(#NovÈ_polÌËko_p_echodu_2-4);}.cls-23,.cls-24,.cls-8{fill:#ffb888;}.cls-9{fill:#ef9c62;opacity:0.6;}.cls-10{fill:#71a2d8;}.cls-11{fill:#4885bc;}.cls-12{fill:#3c6182;}.cls-13{fill:#604545;}.cls-14{fill:#4c3636;}.cls-15{fill:#594040;}.cls-16{fill:#d9edff;}.cls-17{fill:#ffcd9c;}.cls-18{fill:#ffae85;}.cls-19{fill:#e8d5ca;}.cls-20{fill:#af9494;}.cls-21{fill:#71c8cc;}.cls-22{fill:#628489;opacity:0.2;}.cls-25,.cls-26{opacity:0.1;}.cls-25{fill:url(#radial-gradient);}.cls-26{fill:url(#radial-gradient-2);}.cls-27{fill:#ffa161;}.cls-28{fill:#fc8952;}.cls-29{fill:#fff;}.cls-30{fill:#cc6917;}.cls-31{fill:#6d2a00;}.cls-32{fill:#a84615;}</style><linearGradient id="NovÈ_polÌËko_p_echodu_2" x1="-984.98" y1="20.71" x2="-1012.91" y2="170.57" gradientTransform="translate(1201.54 0.26) rotate(0.01)" gradientUnits="userSpaceOnUse"><stop offset="0" stop-color="#6d1d04"/><stop offset="1" stop-color="#9e4a01"/></linearGradient><linearGradient id="NovÈ_polÌËko_p_echodu_2-2" x1="-1033.34" y1="98.68" x2="-962.45" y2="98.68" xlink:href="#NovÈ_polÌËko_p_echodu_2"/><linearGradient id="linear-gradient" x1="-1003.63" y1="17.77" x2="-1031.47" y2="167.12" gradientTransform="translate(1201.54 0.26) rotate(0.01)" gradientUnits="userSpaceOnUse"><stop offset="0" stop-color="#6d1d04"/><stop offset="0.58" stop-color="#9e4a01"/><stop offset="1" stop-color="#6d1d04"/></linearGradient><linearGradient id="NovÈ_polÌËko_p_echodu_2-3" x1="-1021.02" y1="43.72" x2="-978.11" y2="43.72" xlink:href="#NovÈ_polÌËko_p_echodu_2"/><linearGradient id="NovÈ_polÌËko_p_echodu_2-4" x1="-1020.94" y1="39.19" x2="-980.98" y2="39.19" xlink:href="#NovÈ_polÌËko_p_echodu_2"/><radialGradient id="radial-gradient" cx="3865.44" cy="-11.53" r="11.68" gradientTransform="matrix(-0.81, 0.02, 0.02, 0.81, 3320.7, -4.26)" gradientUnits="userSpaceOnUse"><stop offset="0" stop-color="#f42706"/><stop offset="0.84" stop-color="#fff"/></radialGradient><radialGradient id="radial-gradient-2" cx="-629.31" cy="76.21" r="9.29" gradientTransform="translate(851.89 1.04) rotate(0.01)" xlink:href="#radial-gradient"/></defs><title>web schade icon</title><g class="cls-1"><g id="Vrstva_1" data-name="Vrstva 1"><path id="shadow_beneath" data-name="shadow beneath" class="cls-2" d="M297.55,422.2c0,4-39.2,7.19-87.55,7.18s-87.55-3.22-87.55-7.19S161.65,415,210,415,297.55,418.23,297.55,422.2Z"/><g id="hair"><path id="hair-2" data-name="hair" class="cls-3" d="M223.43,28.51c-8.93-11.28-30.66-6.5-40.11-1.7-14.24,7.24-20.91,21.08-21.66,38.57s6.29,28.88,5.86,36.84c-.27,5-3.23,12.5-5.7,18.67-13.72,34.34,17.17,51,28.62,50.41,6.25-.33,49.76-34.44,51.85-38.84,5.9-12.41-2.34-21.92-3-30.22-.73-9.55,3.32-13,5.61-29.44C247.59,53.85,234.76,26.16,223.43,28.51Z"/><g id="highlights_and_shadows" data-name="highlights and shadows"><path class="cls-4" d="M239.05,65.87c.93-13.12-15.62-30-19.66-30.87-8.73,12.88-37.77,27.29-38.84,27.91-.14-2.44.28-20.88.28-20.88-1.86,6.4-4.83,27.8,0,47.31,4.65,18.82-20.27,30.06-10.24,53.06,3,6.78,12.42,18.3,18.89,20.26,3,.9,39-29.46,39.5-30.62,4.53-11.14.51-18.86.75-28.48C230,94.55,237.14,92.81,239.05,65.87Z"/><path class="cls-5" d="M161.66,65.38c-.76,17.37,6.29,28.88,5.86,36.84-.27,5-3.23,12.5-5.7,18.67-13.72,34.34,17.17,51,28.62,50.41,1.21-.07,3.81-1.39,7.22-3.52a1.66,1.66,0,0,1,.56-.78c-1.71-.36-23.21.21-33.09-21.43-5.38-11.78,1.25-26.41,4.51-33.94,6.93-16-3.71-24-3.75-44.69-.07-29.16,21.87-41.11,23-42.35l.11-.12h0c-1.06.36-2.06.73-3,1.12l-.16.06-1.1.48-.28.13c-.4.18-.78.37-1.15.55C169.08,34.05,162.41,47.89,161.66,65.38Z"/><path class="cls-6" d="M180.62,52.59c-.08,4.59-.13,9.19-.07,10.32,1-.59,27.56-13.85,37.59-26.25,2.07-2.79,4.68-5.28,5.29-8.15a15.67,15.67,0,0,0-4.18-3.65c-4.78,9.06-29.94,23.58-38.61,27.44Z"/><path class="cls-7" d="M180.62,52.59c0,.42,0,.84,0,1.25,5.3-1.68,32.37-16,40-28.09-.43-.31-.87-.61-1.32-.89-4.78,9.06-29.94,23.58-38.61,27.44Z"/></g></g><g id="neck"><path class="cls-8" d="M224.1,121c-11.2-2.73-8.45-21.17-7.54-24.14-2.48.8-16.12,0-17.15,0,.62,1.77,6.43,22.53-5.81,24.31,0,0,5,23.38,17.08,22.72C217.23,143.5,223.47,129.83,224.1,121Z"/><path class="cls-9" d="M218.44,117c-4.38-6.39-2.58-17.9-1.88-20.2-2.48.8-16.12,0-17.15,0a45.31,45.31,0,0,1,1.9,11.21c2.8,4.44,13.87,9.92,17.13,9Z"/></g><path class="cls-10" d="M255,177.47c2-3.68-13.5-41.51-31.3-58.89-3.41-3.34-5.73,18.68-3.7,22.88s14.78,26,18.83,31.19C242.45,177.36,252.91,181.22,255,177.47Z"/><path class="cls-11" d="M243.88,147.53c-4.43,7.6-15.75-25.91-20.55-26.38-2.08,4.72-4.94,17.09-3.38,20.31,2,4.19,14.78,26,18.83,31.19,3.67,4.71,14.13,8.57,16.17,4.82C256.11,175.35,251.44,161.88,243.88,147.53Z"/><path class="cls-10" d="M156.55,167c-1.17-4.1,19.9-36.36,39.31-48.79,3.72-2.39,1.82,19-.79,22.56s-20,20.46-24.61,24.48C166.24,168.86,157.74,171.13,156.55,167Z"/><path class="cls-11" d="M196.71,120.94c-14.48,9.27-18.82,34.55-40,46.43,1.76,3.66,11.41,2.51,15.47-1,4.64-4,20.25-22.06,22.86-25.64S200.43,118.55,196.71,120.94Z"/><path class="cls-12" d="M155.32,163.57c-1.31,5.33,4.12,7.15,4.12,7.15l12.47-2.52,2-2.53C164,153.22,155.32,163.57,155.32,163.57Z"/><path class="cls-13" d="M227.35,205.12s-24.7-.13-37.95,5.47c-8.19,31-12.63,65.82-14.65,112.88-1.49,34.67-4.55,56.44-6.28,89.78h3.34s20.46-51.89,19-88.92c-.32-8,15.55-57.77,17.71-58.36,6.55-1.76,12.22,47.07,16,58.36,3.09,9.29-4.51,18.54,12.72,89.71h1.1c10.21-58.47,1.48-82.37.7-88.45C238.16,319.24,250.48,244.28,227.35,205.12Z"/><path class="cls-14" d="M233.11,218,187,220l-.76,4.07s22.78,7.24,48.58,3.17Z"/><polygon class="cls-14" points="208.52 251.47 208.12 226.13 211.41 226.72 209.89 251.17 208.52 251.47"/><path class="cls-15" d="M190.86,322.62a66.87,66.87,0,0,1-15.76-6.57c-.13,2.44-.24,4.91-.35,7.42-1.49,34.67-4.55,56.44-6.28,89.78h3.34s20.46-51.89,19-88.92A12.52,12.52,0,0,1,190.86,322.62Z"/><path class="cls-15" d="M239.42,317.43a67.12,67.12,0,0,1-15.32,5.72c.12.42.24.82.36,1.18,3.09,9.29-5.11,18.5,12.12,89.67l1.06-3c10.21-58.46,2.12-79.31,1.34-85.39A62.2,62.2,0,0,1,239.42,317.43Z"/><path class="cls-14" d="M208.82,266.16c-.89-1.57-3.31-.71-4.24-.46-2.17.6-17.94,51.13-17.6,59.25,1.38,33.28-14.4,78.36-18,88.3h2.88s20.46-51.89,19-88.92C190.48,317.2,204.54,275.29,208.82,266.16Z"/><path class="cls-14" d="M239,325.59c-.82-6.35,11.5-81.31-11.63-120.47,0,0-1.25,0-3.32,0,22.24,40.08,10.33,114.69,11.15,121.07C242.81,385.53,237,414,237,414h1.25C248.49,355.57,239.76,331.67,239,325.59Z"/><path class="cls-10" d="M186.15,221.5s32.21,7.25,48.78-1.49c0,0-16.65-39.65-3.05-57.53,0,0-1-41.48-8.88-44.26s-26.71-2.43-29,1.14-11.9,28.48-14.56,40.94c2.06,4,12.49,14.69,12.79,26.23C192.54,196.86,186.15,221.5,186.15,221.5Z"/><path class="cls-11" d="M202.59,116.48l-2.84.47c-1.3,12.58-.59,37.65,6.14,57.46l3-1.59S200,140.85,202.59,116.48Z"/><path class="cls-11" d="M198.36,214.21c2.1-1.51,4.13-3,10.92-3.44l.08,1.94c-3,1.74-6.67,5.94-7.88,5.91C201.07,218.61,197.64,214.72,198.36,214.21Z"/><path class="cls-11" d="M202.71,217.92c-1,.74-3.8,4.27-4.23,3.8-.68-.72,1.88-3.35,2.87-4.51C202.63,215.7,202.71,217.92,202.71,217.92Z"/><path class="cls-11" d="M199.58,215.19c-1.07.52-5.08,3.28-5.45,2.74-.66-1,3.7-3.69,4.83-4.13C200.68,213.13,199.58,215.19,199.58,215.19Z"/><path class="cls-11" d="M201.18,213.64c.65-2.38-4.2-1.34-4.43-2.62-.33-1.78,5.91-.59,7.53.5S201.18,213.64,201.18,213.64Z"/><path class="cls-11" d="M200.57,216.91c-1,.7-5,4-5.42,3.55-.68-.75,3.41-3.93,4.38-4.74C201,214.52,200.57,216.91,200.57,216.91Z"/><path class="cls-11" d="M204.3,201.89l2.21,13.28L221,212S211.74,200.08,204.3,201.89Z"/><path class="cls-11" d="M192.27,186.67c8.33.61,24,9.22,25.22,37.48,6.35-.39,12.57-1.57,17.44-4.14,0,0-15.11-39.76-1.52-57.64,0,0-1.92-23.47-5.54-36.13.71,13.08-1.5,28.51-4.46,32.41-3.84,5.06-32.29,3.59-43.88,1.43,0,.07,0,.15-.05.22,2.06,4,12.49,14.69,12.79,26.23Z"/><path class="cls-16" d="M218.33,117.14l3.82.8c7.39,8.58,18.38,25.87,21.13,42.63l-3.83,0S232.73,133.73,218.33,117.14Z"/><path class="cls-17" d="M192.48,209.54c2.09-1.51,4.13-3,10.91-3.45l.09,1.95c-3,1.73-6.68,5.94-7.88,5.91C195.19,213.93,191.76,210.05,192.48,209.54Z"/><path class="cls-17" d="M196.83,213.24c-1,.74-3.8,4.27-4.24,3.8-.68-.71,1.89-3.35,2.87-4.51C196.75,211,196.83,213.24,196.83,213.24Z"/><path class="cls-17" d="M193.69,210.51c-1.06.52-5.07,3.28-5.45,2.74-.65-.94,3.71-3.68,4.84-4.13C194.8,208.45,193.69,210.51,193.69,210.51Z"/><path class="cls-17" d="M195.3,209c.65-2.37-4.2-1.33-4.44-2.62-.32-1.78,5.91-.58,7.54.5S195.3,209,195.3,209Z"/><path class="cls-17" d="M194.69,212.23c-1,.7-5,4-5.42,3.55-.68-.74,3.4-3.93,4.37-4.73C195.12,209.85,194.69,212.23,194.69,212.23Z"/><path class="cls-18" d="M211.82,168.2c-2.15-.63-4.24-1.27-10.07.15l.43,1.54c3,.58,7.14,2.9,8.15,2.56C210.66,172.33,212.55,168.41,211.82,168.2Z"/><path class="cls-18" d="M209.11,172.22c1,.32,4.29,2.34,4.53,1.86.39-.73-2.44-2.12-3.56-2.77C208.61,170.47,209.11,172.22,209.11,172.22Z"/><path class="cls-18" d="M211.05,169.27c1,.13,5.11,1.24,5.28.72.31-.91-4.06-1.91-5.12-2C209.59,168,211.05,169.27,211.05,169.27Z"/><path class="cls-18" d="M209.3,168.48c-1.15-1.68,3.19-2.13,3.06-3.19-.18-1.48-5.12,1.08-6.21,2.35S209.3,168.48,209.3,168.48Z"/><path class="cls-18" d="M210.65,170.88c1,.28,5.23,1.83,5.47,1.35.38-.76-3.87-2.17-4.89-2.55C209.67,169.13,210.65,170.88,210.65,170.88Z"/><path class="cls-17" d="M163.13,161.32c-2.46.71-7.72,5.92-4.64,9,1.76,1.74,38.65-.34,48.21.2l-1-.74C194.24,167,165.59,160.61,163.13,161.32Z"/><path class="cls-18" d="M208.2,171.38l-1.87-1.85c-11.4-2.8-40.3-10.36-42.75-9.65-1.61.46-4.58,3.45-5.61,6.32C170.7,164.67,199.39,169.06,208.2,171.38Z"/><path class="cls-16" d="M199,211.36s58-11.32,61-19.07-8.48-33.38-11.57-39.64l-53.09,20.26Z"/><path class="cls-16" d="M202.21,116.81l-2.87.3c-2.86,12.31-5.26,37-1,56.9l3.21-1.39S196.61,140.65,202.21,116.81Z"/><path class="cls-19" d="M236.78,418.21h17.28s-4.83-2-9.86-3.76c-3-1.07-4.58-10.84-7.77-9.06C234.44,406.5,236.78,418.21,236.78,418.21Z"/><path class="cls-19" d="M172.53,418.21H152.46s5.5-2,11.24-3.76c3.44-1.07,4.71-10.84,8.52-9.06C174.58,406.5,172.53,418.21,172.53,418.21Z"/><path class="cls-14" d="M198.26,260.63s13.28,5.23,23.14-1c0,0-5.64,7.44-12.48,7.24C203.8,266.71,198.26,260.63,198.26,260.63Z"/><polygon class="cls-20" points="210.48 226.18 204.6 225.88 204.6 229.05 210.48 229.35 210.48 226.18"/><path class="cls-21" d="M200.92,208S253,197.8,255.71,190.84s-7.61-30-10.39-35.6l-47.67,18.2Z"/><path class="cls-22" d="M248.42,152.65l-.83.31c.34,12-.62,27-2.53,31.94C243,190.18,215.36,197.13,198,201l1,10.34s58-11.32,61-19.07S251.51,158.91,248.42,152.65Z"/><polygon class="cls-16" points="209.58 168.7 207.77 169.46 212.44 182.28 209.58 168.7"/><polygon class="cls-16" points="221.73 163.94 219.92 164.69 224.6 177.51 221.73 163.94"/><polygon class="cls-16" points="234.02 158.9 232.21 159.65 236.88 172.47 234.02 158.9"/><path id="face" class="cls-8" d="M180.73,59.84C211.72,40.62,217,39.43,217,39.43,225.89,46.87,235,57.75,235,62c0,13.72-3.28,23.88-5.47,27.27-5.67,8.82-15.83,14.33-20.31,14.33-7.28,0-23.08-9.84-25.93-17.59C181.55,81.28,180,62.25,180.73,59.84Z"/><path id="highlight" class="cls-23" d="M228.52,89.17c4.38-6.38,5.61-23.74,5.37-26.57C233.65,56.68,217,39.43,217,39.43,225.89,46.87,235,57.75,235,62c0,13.72-3.28,23.88-5.47,27.27-5.67,8.82-15.83,14.33-20.31,14.33C217,102.4,223.86,96,228.52,89.17Z"/><path id="shadow" class="cls-24" d="M209.21,103.57c-7.28,0-23.08-9.84-25.93-17.59-1.73-4.7-3.27-23.73-2.55-26.14C211.72,40.62,217,39.43,217,39.43c-11.81,9.5-33.25,19.51-33.42,21.93-.33,4.64,1.31,21.57,2.81,25.32C190.51,96.94,204.56,102.68,209.21,103.57Z"/><g id="cheeks"><path class="cls-25" d="M185,77.14a9.45,9.45,0,1,0,9.17-9.72A9.46,9.46,0,0,0,185,77.14Z"/><path class="cls-26" d="M234.25,73.07a9.45,9.45,0,1,0-8.37,13.24,9.32,9.32,0,0,0,5.9-2.3l.05,0a61.61,61.61,0,0,0,2.43-10.9Z"/></g><g id="nose"><path class="cls-27" d="M213.87,80.56c1.55-1.38,1-2.23.24-3.9-1.13-2.58-3.12-5.21-1-10.56l.18,1.19c0,7.39,3.89,10.7,4.1,11.56.41,1.74-.85,2.8-2.48,3.4-2.07.76-4,.32-5.82,0A8.13,8.13,0,0,0,213.87,80.56Z"/><path class="cls-28" d="M213.87,80.56c1.55-1.38,1-2.27.24-3.9-1.51-3-3.05-5.92-1-10.56L213,67.58c-.72,5.6,2.83,10.54,3,11.4.42,1.74-3.66,3.68-6.9,3.23A8.13,8.13,0,0,0,213.87,80.56Z"/></g><g id="eyes"><g id="eye"><path class="cls-29" d="M197.31,64.12c2.86.41,5.48,2,6,4.8l-1.4,1.43c-3,.51-9.2.3-11.33-2.43C192.52,65.67,194.31,63.69,197.31,64.12Z"/><path class="cls-30" d="M197.57,65.57a6.24,6.24,0,0,0-2.87.87A2.09,2.09,0,0,0,194,68a2.44,2.44,0,0,0,1.7,2.14c.55.11,1.12.2,1.7.26,1.65-.09,2.94-1.12,2.94-2.39S199.12,65.73,197.57,65.57Z"/><path class="cls-31" d="M199.25,68a2.18,2.18,0,1,1-2.1-1.6A1.9,1.9,0,0,1,199.25,68Z"/><path class="cls-29" d="M196.11,67.28a.83.83,0,0,1-.91.7c-.51,0-.92-.31-.92-.7s.41-.7.92-.7A.83.83,0,0,1,196.11,67.28Z"/><path class="cls-31" d="M191.58,66a6.32,6.32,0,0,1,1.7-1.22,8.09,8.09,0,0,1,4-.79,7.55,7.55,0,0,1,3.86,1.3,6.25,6.25,0,0,1,2.45,3.35,10.31,10.31,0,0,0-6.21-2.82c-2.94-.3-6,.9-6.74,2.06A3.5,3.5,0,0,1,191.58,66Z"/></g><path id="eyebrow" class="cls-32" d="M202.83,59.44a2.06,2.06,0,0,1,.62,1.4c-.52.64-5.24-1.14-8.69-1.33a8.55,8.55,0,0,0-6.48,2.31C191.09,55.94,198.32,56.51,202.83,59.44Z"/><g id="eye-2" data-name="eye"><path class="cls-29" d="M224.11,64.06c2.72-.06,5.41,1.09,6.33,3.69l-1.08,1.62c-2.73,1-8.51,1.76-10.91-.55C219.89,66.33,221.24,64.13,224.11,64.06Z"/><path class="cls-30" d="M224.45,64.15a4.72,4.72,0,0,0-2.24,1.31,3.09,3.09,0,0,0,1.63,4.73,13.53,13.53,0,0,0,1.69,0,3.09,3.09,0,0,0-1.08-6.08Z"/><path class="cls-31" d="M226.8,66.9a2.06,2.06,0,1,1-2.37-1.71A2.07,2.07,0,0,1,226.8,66.9Z"/><path class="cls-29" d="M223.62,66.54a.9.9,0,1,1-1-.74A.91.91,0,0,1,223.62,66.54Z"/><path class="cls-31" d="M219.07,66.84a5.82,5.82,0,0,1,1.39-1.45A7.52,7.52,0,0,1,224,64a6.79,6.79,0,0,1,3.8.65,5.9,5.9,0,0,1,2.79,2.85,7.29,7.29,0,0,0-6.17-1.89c-2.71.26-5.47,2-6,3.22A3.49,3.49,0,0,1,219.07,66.84Z"/></g><path id="eyebrow-2" data-name="eyebrow" class="cls-32" d="M219,59.87a2,2,0,0,0-.72,1.35c1.32.6,4.48-1.17,7.93-1.11,2.12,0,3.82-.13,5.25,1.71C229.58,56.24,223.66,57.27,219,59.87Z"/></g><path id="teeth" class="cls-29" d="M210.93,89.8a55,55,0,0,0-6.52.62l1.29-.72A10.48,10.48,0,0,1,211.08,88c3.57-.17,7,1.78,8.2,2.51A28.36,28.36,0,0,0,210.93,89.8Z"/></g></g></svg>