<svg xmlns="http://www.w3.org/2000/svg" xmlns:xlink="http://www.w3.org/1999/xlink" viewBox="0 0 420 450"><defs><style>.cls-1{isolation:isolate;}.cls-2{fill:#ada8b7;}.cls-3{fill:#1a1a1a;}.cls-4{fill:#00535e;}.cls-5{fill:#40434f;}.cls-6{fill:#a0b3d9;}.cls-7{fill:#ffae14;}.cls-8{fill:#455e7a;}.cls-9{fill:#292d3f;}.cls-10{fill:#757689;}.cls-11{fill:#545768;}.cls-12{fill:red;}.cls-13{fill:#b1b4c9;}.cls-14{fill:#627286;}.cls-15{fill:#fa9700;}.cls-16{fill:#e5891a;}.cls-17{fill:#6d8795;}.cls-18{fill:#323333;}.cls-19{fill:#202020;}.cls-20{fill:#abb0cc;}.cls-21{fill:#71708d;}.cls-22{fill:#e5e5e5;}.cls-23{fill:#c6c6c6;}.cls-24{fill:#cd1f1c;}.cls-25{fill:#a40002;}.cls-26{fill:#ebfde5;}.cls-27{fill:#700006;}.cls-28{fill:#382d36;}.cls-29{fill:#de5959;}.cls-30{fill:#de595b;}.cls-31{fill:#980005;}.cls-32{fill:#940002;}.cls-33{fill:#cddfef;}.cls-34{fill:gray;}.cls-34,.cls-40,.cls-41,.cls-49,.cls-56{opacity:0.3;}.cls-34,.cls-36,.cls-37,.cls-41,.cls-43,.cls-44,.cls-49,.cls-51,.cls-56{mix-blend-mode:multiply;}.cls-35,.cls-40,.cls-41,.cls-44{fill:#ffb888;}.cls-36,.cls-37{fill:#ef9c62;}.cls-36,.cls-44{opacity:0.4;}.cls-37{opacity:0.6;}.cls-38{fill:url(#linear-gradient);}.cls-39{fill:url(#linear-gradient-2);}.cls-40,.cls-53{mix-blend-mode:screen;}.cls-42{fill:#fff;}.cls-43,.cls-57{fill:#db5a21;}.cls-43{opacity:0.7;}.cls-45{fill:#cc6917;}.cls-46{fill:#6d2a00;}.cls-47{fill:#93360c;}.cls-48{fill:url(#New_Gradient_Swatch_8);}.cls-49{fill:url(#New_Gradient_Swatch_8-2);}.cls-50,.cls-51{fill:#b54e08;}.cls-51{opacity:0.35;}.cls-52,.cls-53{fill:#064a70;}.cls-53{opacity:0.5;}.cls-54{fill:#e6e6e6;}.cls-55{fill:#a0c138;}.cls-56{fill:#5f6977;}</style><linearGradient id="linear-gradient" x1="-555.65" y1="108.33" x2="-545.28" y2="108.33" gradientTransform="translate(847.85 -4.92) rotate(-0.52)" gradientUnits="userSpaceOnUse"><stop offset="0" stop-color="#ffb888"/><stop offset="0.8" stop-color="#f59766"/><stop offset="0.91" stop-color="#f39261"/></linearGradient><linearGradient id="linear-gradient-2" x1="-504.48" y1="108.34" x2="-494.11" y2="108.34" gradientTransform="translate(847.85 -4.92) rotate(-0.52)" gradientUnits="userSpaceOnUse"><stop offset="0.09" stop-color="#f39261"/><stop offset="0.2" stop-color="#f59766"/><stop offset="1" stop-color="#ffb888"/></linearGradient><linearGradient id="New_Gradient_Swatch_8" x1="-554.86" y1="87.94" x2="-495.88" y2="87.94" gradientTransform="translate(847.85 -4.92) rotate(-0.52)" gradientUnits="userSpaceOnUse"><stop offset="0" stop-color="#963505"/><stop offset="1" stop-color="#4f1403"/></linearGradient><linearGradient id="New_Gradient_Swatch_8-2" x1="-554.86" y1="89.97" x2="-495.88" y2="89.97" xlink:href="#New_Gradient_Swatch_8"/></defs><title>web schade icon</title><g class="cls-1"><g id="Vrstva_1" data-name="Vrstva 1"><path class="cls-2" d="M317.57,305.41a4.67,4.67,0,0,1-4.68,4.68H70.2a4.68,4.68,0,0,1,0-9.36H312.89A4.67,4.67,0,0,1,317.57,305.41Z"/><path class="cls-3" d="M281,262.37a23.16,23.16,0,0,0-23.16,23.17h46.33A23.17,23.17,0,0,0,281,262.37Z"/><path class="cls-4" d="M316,246.85c-1-3.95-16.89-6.26-16.89-6.26l-19-27.07s-4.2-5.36-5.88-6.2c-1.48-.74-6.6-.68-6.6-.68h-32.3v77.77h22.36c1-10.9,10.52-19.44,22.08-19.44s21,8.54,22.08,19.44h14.34S317.06,250.8,316,246.85Z"/><path class="cls-5" d="M258.53,284.92a21.41,21.41,0,0,1,42.66,0h3.72a25.12,25.12,0,0,0-50.1,0Z"/><polygon class="cls-3" points="311.61 271.08 319.85 271.08 319.85 288.87 315.56 291.18 76.73 291.18 71.84 282.94 71.84 271.08 76.73 271.08 76.73 284.26 311.61 284.26 311.61 271.08"/><path class="cls-6" d="M288.23,240.29H246.17a1.43,1.43,0,0,1-1.43-1.43V217.4a1.43,1.43,0,0,1,1.43-1.43h26.61S289,240.29,288.23,240.29Z"/><rect class="cls-7" x="311.61" y="250.15" width="4.93" height="11.04" rx="1.65"/><path class="cls-8" d="M245.77,273.46a4.21,4.21,0,0,1-3.14-1.85,5.8,5.8,0,0,1-1.46-4.29V213h33.54l18.06,27.13v16.41c0,1.63-3.21,3.86-4.19,4.5l-.2.14-.25-.05a38.46,38.46,0,0,0-7-.62c-1.1,0-2.18.05-3.21.14-11.31,1-17.11,7.3-19.56,10.93-.85,1.26-3.32,1.8-3.6,1.86h-8.64A2.53,2.53,0,0,1,245.77,273.46Zm-3.4-59.28v53.28a4.57,4.57,0,0,0,1.19,3.39c1.28,1.53,2.24,1.42,2.35,1.4l.09,0h8.59a5.42,5.42,0,0,0,2.79-1.34,25.2,25.2,0,0,1,6.08-6.25,28.44,28.44,0,0,1,14.36-5.2c1.07-.1,2.18-.15,3.32-.15a40.54,40.54,0,0,1,7,.6c1.7-1.15,3.45-2.73,3.45-3.37v-16l-17.52-26.29Z"/><path class="cls-9" d="M295.92,289.36a17.22,17.22,0,1,1-17.21-17.22A17.21,17.21,0,0,1,295.92,289.36Z"/><path class="cls-3" d="M293.91,289.36a15.2,15.2,0,1,1-15.2-15.2A15.2,15.2,0,0,1,293.91,289.36Z"/><path class="cls-10" d="M288.09,289.1a9.38,9.38,0,1,1-9.38-9.38A9.38,9.38,0,0,1,288.09,289.1Z"/><path class="cls-11" d="M287.24,289.1a8.53,8.53,0,1,1-8.53-8.52A8.53,8.53,0,0,1,287.24,289.1Z"/><path class="cls-12" d="M278.71,292.46h-.06a3.36,3.36,0,0,1,.06-6.71h.06a3.36,3.36,0,0,1-.06,6.71Zm0-6.2a2.85,2.85,0,0,0-2,4.82,2.9,2.9,0,0,0,2,.87h0a2.85,2.85,0,0,0,.05-5.69Z"/><path class="cls-3" d="M286,289.14a7.35,7.35,0,1,1-7.35-7.35A7.35,7.35,0,0,1,286,289.14Z"/><path class="cls-13" d="M281.81,292.81a2.43,2.43,0,0,1,4.19-1.64,7.69,7.69,0,0,0,.29-1.93,7.59,7.59,0,0,0-.33-2.35,2.47,2.47,0,0,1-1.76.7,2.44,2.44,0,0,1-1-4.62,7.67,7.67,0,0,0-2-1.05,2.44,2.44,0,0,1-4.86,0,7.56,7.56,0,0,0-2.14,1.13,2.47,2.47,0,0,1,1.2,2.15,2.45,2.45,0,0,1-3.94,1.88,7.76,7.76,0,0,0-.27,1.88,7.85,7.85,0,0,0,.23,2,2.44,2.44,0,0,1,4,1.93A2.42,2.42,0,0,1,274,295a7.53,7.53,0,0,0,2.31,1.26,2.44,2.44,0,0,1,4.81,0,7.46,7.46,0,0,0,2.21-1.18A2.43,2.43,0,0,1,281.81,292.81Z"/><path class="cls-3" d="M280.39,289.13a1.68,1.68,0,1,1-3.36-.06,1.68,1.68,0,0,1,3.36.06Z"/><path class="cls-6" d="M288.19,240.29H246.13a1.4,1.4,0,0,1-1-.41c-.27-.25,28.83-22.07,28.83-22.07S288.84,240.29,288.19,240.29Z"/><path class="cls-14" d="M249.85,220.45h25.9l-3-4.48H246.17a1.43,1.43,0,0,0-1.43,1.43v21.46a1.43,1.43,0,0,0,1.43,1.43h3.68Z"/><path class="cls-9" d="M140.36,289.36a17.22,17.22,0,1,1-17.22-17.22A17.22,17.22,0,0,1,140.36,289.36Z"/><path class="cls-3" d="M138.34,289.36a15.2,15.2,0,1,1-15.2-15.2A15.19,15.19,0,0,1,138.34,289.36Z"/><path class="cls-10" d="M132.52,289.1a9.38,9.38,0,1,1-9.38-9.38A9.38,9.38,0,0,1,132.52,289.1Z"/><path class="cls-11" d="M131.67,289.1a8.53,8.53,0,1,1-8.53-8.52A8.53,8.53,0,0,1,131.67,289.1Z"/><path class="cls-12" d="M123.14,292.46h-.06a3.33,3.33,0,0,1-2.35-1,3.27,3.27,0,0,1-.94-2.39,3.36,3.36,0,0,1,3.35-3.29h.06a3.36,3.36,0,0,1-.06,6.71Zm0-6.2a2.85,2.85,0,0,0,0,5.69h0a2.85,2.85,0,0,0,0-5.69Z"/><path class="cls-3" d="M130.45,289.14a7.35,7.35,0,1,1-7.34-7.35A7.35,7.35,0,0,1,130.45,289.14Z"/><path class="cls-13" d="M126.24,292.81a2.45,2.45,0,0,1,2.48-2.39,2.4,2.4,0,0,1,1.71.75,7.52,7.52,0,0,0,0-4.28A2.44,2.44,0,1,1,127.6,283a7.38,7.38,0,0,0-2-1.05,2.44,2.44,0,0,1-4.86,0,7.56,7.56,0,0,0-2.14,1.13,2.44,2.44,0,1,1-2.73,4,7.76,7.76,0,0,0-.28,1.88,7.43,7.43,0,0,0,.24,2,2.43,2.43,0,1,1,2.63,4.06,7.31,7.31,0,0,0,2.31,1.26,2.44,2.44,0,0,1,4.81,0,7.59,7.59,0,0,0,2.21-1.18A2.43,2.43,0,0,1,126.24,292.81Z"/><path class="cls-3" d="M124.82,289.13a1.68,1.68,0,1,1-1.65-1.71A1.69,1.69,0,0,1,124.82,289.13Z"/><path class="cls-8" d="M288.23,240.89H246.17a2,2,0,0,1-2-2V217.4a2,2,0,0,1,2-2H273.1l.17.26c0,.06,4,6,7.87,11.92,2.27,3.49,4.07,6.29,5.34,8.34,2.58,4.14,2.49,4.29,2.3,4.66A.61.61,0,0,1,288.23,240.89Zm-42.06-24.32a.83.83,0,0,0-.83.83v21.46a.83.83,0,0,0,.83.83h41.19c-1.68-3.08-9.66-15.25-14.9-23.12Z"/><polygon class="cls-3" points="231.28 290.05 40.16 290.05 40.16 282.8 74.8 273.29 231.28 273.29 231.28 290.05"/><rect class="cls-5" x="149.21" y="274.99" width="51.97" height="18.17"/><rect class="cls-7" x="76.96" y="268.46" width="129.89" height="6.53"/><rect class="cls-7" x="28.27" y="274.61" width="50.26" height="6.23" transform="translate(-66.87 21.76) rotate(-14.28)"/><rect class="cls-7" x="40.16" y="286.64" width="25.27" height="1.91"/><polygon class="cls-7" points="205.72 267.99 205.72 241.48 204.3 241.48 202.31 260.51 199.19 267.99 205.72 267.99"/><rect class="cls-15" x="187.08" y="266.95" width="18.74" height="1.51"/><rect class="cls-7" x="51.52" y="279.68" width="2.42" height="8.8"/><rect class="cls-7" x="56.03" y="280.46" width="13.49" height="2.42" transform="translate(-220.83 228.36) rotate(-66.79)"/><rect class="cls-7" x="27.41" y="288.17" width="13.3" height="1.97" transform="translate(-68.76 16.76) rotate(-13.96)"/><rect class="cls-7" x="25.96" y="283.85" width="1.75" height="8.1" transform="translate(-68.54 14.94) rotate(-13.94)"/><rect class="cls-15" x="209.13" y="265.34" width="16.47" height="9.66"/><polygon class="cls-16" points="223.52 265.34 211.31 265.34 214.85 207.12 219.32 207.12 223.52 265.34"/><path class="cls-17" d="M253.32,248.64c0,.45-.57.82-1.27.82H246c-.7,0-1.26-.37-1.26-.82v-.14c0-.46.56-.82,1.26-.82h6.05c.7,0,1.27.36,1.27.82Z"/><path class="cls-3" d="M287.89,236.9a2,2,0,0,1,1.65-2.18h2.3a2,2,0,0,1,1.65,2.18v10.38a2,2,0,0,1-1.65,2.18h-2.3a2,2,0,0,1-1.65-2.18Z"/><path class="cls-18" d="M158.42,256.51l-2.86-3.46s1.75-12.8,14.57-13.23S185.92,252,185.92,252l-3.6,3.68Z"/><path class="cls-19" d="M183.4,254.36A12.83,12.83,0,1,1,170.15,242,12.82,12.82,0,0,1,183.4,254.36Z"/><path class="cls-20" d="M181,254.44a10.47,10.47,0,1,1-10.81-10.11A10.47,10.47,0,0,1,181,254.44Z"/><path class="cls-19" d="M180,254.48a9.43,9.43,0,1,1-9.74-9.11A9.43,9.43,0,0,1,180,254.48Z"/><path class="cls-18" d="M176.64,254.59a6.06,6.06,0,1,1-6.26-5.86A6.06,6.06,0,0,1,176.64,254.59Z"/><path class="cls-21" d="M175.66,254.62a5.08,5.08,0,1,1-5.25-4.91A5.08,5.08,0,0,1,175.66,254.62Z"/><polygon class="cls-20" points="169.63 257.16 168.53 264.32 170.76 264.51 170.88 257.26 169.63 257.16"/><polygon class="cls-20" points="171.83 257.06 176.83 262.31 178.34 260.66 172.68 256.14 171.83 257.06"/><polygon class="cls-20" points="168.85 256.62 163.11 261.04 161.87 259.18 168.15 255.58 168.85 256.62"/><polygon class="cls-20" points="169.28 252.7 166.3 246.1 168.39 245.32 170.46 252.27 169.28 252.7"/><polygon class="cls-20" points="171.26 252.37 174.52 245.9 176.44 247.03 172.34 253.01 171.26 252.37"/><polygon class="cls-20" points="168.44 253.6 161.66 251.04 161.01 253.18 168.07 254.8 168.44 253.6"/><polygon class="cls-20" points="172.9 253.81 180.03 252.55 180.27 254.77 173.03 255.06 172.9 253.81"/><path class="cls-22" d="M170.58,258.18a3.26,3.26,0,1,1,.11,0Zm0-5.58h-.07a2.19,2.19,0,1,0,.14,4.38,2.16,2.16,0,0,0,1.53-.69,2.19,2.19,0,0,0-1.6-3.69Z"/><path class="cls-23" d="M171.72,254.75a1.14,1.14,0,1,1-1.18-1.1A1.14,1.14,0,0,1,171.72,254.75Z"/><path d="M170.58,256.19a1.4,1.4,0,0,1-.05-2.8h.05a1.4,1.4,0,0,1,0,2.8Zm0-2.28h0a.89.89,0,0,0,0,1.77h0a.88.88,0,0,0,.85-.92A.87.87,0,0,0,170.58,253.91Z"/><path class="cls-24" d="M198.36,244.16a8.31,8.31,0,0,0-1.88-1.76s1.63-5.74-16.18-10.42c-9.43-2.48-25-2.41-25-2.41s-2.48-2.08-23.11-11.4c-14.22-6.43-44-2.8-47.88-2.67s-26.77,3.33-26.77,3.33-13.32,14.45-14.25,16.92.28,8.51.28,8.51a36.59,36.59,0,0,1-2.92,3.55c-1.77,1.88.18,5.47.18,5.47s-.26,2.7,2.72,5.49c2.55,2.38,8,2.45,8.63,2.45a14.45,14.45,0,0,1-.32-2.58,14.25,14.25,0,0,1,28.48-.95,14.09,14.09,0,0,1-.74,5.05l77.53-2.59.18,0a13.87,13.87,0,0,1-1.05-4.92,14.29,14.29,0,0,1,28.56-1,14,14,0,0,1-.29,3.38l.32,0s14-.52,13.92-2.29c0-.36-1.25-1-1.25-1a4.21,4.21,0,0,0,.62-1.33C198.26,251.69,199.23,246.2,198.36,244.16Z"/><path class="cls-25" d="M77.07,246.48l1.64-1.26s-.68-3.33.52-3.73,27.89-.93,36.71-1.22c10.54-.35,38.57,1.09,39.1,1.79a3.13,3.13,0,0,1,.47,1.8l2.67.79s-2.41,4-2.71,6.76S155,257,155,257l-73,1.2s-.74-5.87-1.94-7.78A37.31,37.31,0,0,0,77.07,246.48Z"/><path class="cls-26" d="M49.85,233l3.55,6s-8.67.6-9.94,0-.61-3,.22-4.32,1.3-1.49,1.3-1.49Z"/><path class="cls-25" d="M77.2,237.55l.88,0,2.49-.08,3.87-.09,5-.08,2.87,0c1,0,2,0,3.07,0,2.1,0,4.32,0,6.62,0s4.67,0,7.09,0h11l3.65,0h7.08c2.3,0,4.53,0,6.63,0l3.07,0,2.87,0c1.84,0,3.53.06,5,.1l3.87.1,2.5.09.88,0-.88.06-2.49.16c-1.07.06-2.37.14-3.86.21l-5,.24-2.86.12-3.07.11c-2.1.07-4.32.15-6.62.21l-3.5.09-1.78,0-1.8,0-3.65.07-.91,0h-2.76l-3.69,0c-1.23,0-2.45,0-3.65,0-2.42,0-4.79-.11-7.09-.17s-4.52-.13-6.62-.21l-3.07-.11-2.87-.13c-1.84-.08-3.52-.17-5-.25s-2.8-.15-3.87-.22l-2.48-.16Z"/><path class="cls-27" d="M155.26,229.57l.38.28c.25.18.63.43,1.12.74s1.1.65,1.81,1a17.11,17.11,0,0,0,2.47,1,10.59,10.59,0,0,0,3.06.52l.85,0,.88,0h.92l.93,0c1.24.05,2.52.12,3.82.26.65.06,1.31.14,2,.22s1.32.16,2,.27c1.31.19,2.62.44,3.9.69s2.53.57,3.73.9l.89.26c.29.09.59.17.87.28l1.66.57,1.56.54,1.45.52,2.55.88,2,.69,1.71.6-.46-.11-1.3-.33c-.56-.14-1.24-.31-2-.53s-1.65-.45-2.6-.73-2-.59-3.07-.92-2.21-.68-3.4-1-2.44-.57-3.71-.82-2.56-.48-3.86-.67c-.64-.11-1.3-.19-1.94-.29l-1.94-.23c-1.29-.15-2.55-.26-3.78-.34l-.91-.05-.89,0c-.29,0-.59,0-.88,0h-.88a10.37,10.37,0,0,1-3.19-.69,15.85,15.85,0,0,1-2.47-1.17c-.7-.41-1.28-.81-1.75-1.15s-.82-.64-1-.84Z"/><path class="cls-26" d="M196.58,242.39s-6.38.62-7.71.26-6-4-5.83-4.57,1.15-1.87,3.6-1.54,7.58,1.51,8.45,2.31A5.69,5.69,0,0,1,196.58,242.39Z"/><path class="cls-28" d="M186.5,241.21a11.83,11.83,0,0,0,2.38,1.54c1.33.36,7.7-.25,7.7-.25a4.05,4.05,0,0,0-.18-1.52Z"/><path class="cls-18" d="M73.65,236.15a6.13,6.13,0,0,0,7-.23Z"/><path class="cls-18" d="M110.15,235.91a6.15,6.15,0,0,0,7-.24Z"/><path class="cls-29" d="M81.5,235.43a.46.46,0,0,1-.44.47l-8,.27a.46.46,0,0,1-.47-.44.45.45,0,0,1,.44-.47l8-.27A.46.46,0,0,1,81.5,235.43Z"/><path class="cls-29" d="M118,235.22a.47.47,0,0,1-.45.47l-8,.27a.46.46,0,0,1,0-.92l8-.26A.46.46,0,0,1,118,235.22Z"/><path class="cls-29" d="M40.79,253.28l11-.37,5.08-8.44-13.36-.56s-3.18,4.24-3.38,4.75C39.28,250.69,40.79,253.28,40.79,253.28Z"/><path class="cls-30" d="M89.61,253.78c10.07-1,37.62-.55,42.39-.5s22.37,1.18,22.37,1.18-37.55.95-40.18.83-29.43.23-30.31,0C82.15,254.84,88.27,253.91,89.61,253.78Z"/><path d="M190.07,249.84s-.49,4.56,1.8,4.89a39.1,39.1,0,0,0,6.35,0l-.46-.88a2.34,2.34,0,0,1-2-1.41,6.58,6.58,0,0,1-.2-2.81Z"/><path class="cls-27" d="M90.56,258.29c-.75,0-1.2,0-1.28,0-1-.15-2.31-1.25-3.42-2.3l-.14-.13c-.53-.51-16.21-21.52-18-23.91l.68-.52c4.79,6.43,17.34,23.23,17.9,23.81l.14.13c.56.53,2,1.94,3,2.07,1.16.13,44.31-.55,67-.92v.86C150.16,257.46,99.37,258.29,90.56,258.29Z"/><path class="cls-18" d="M53.8,260l-2.86-3.46s1.75-12.81,14.57-13.24S81.3,255.53,81.3,255.53l-3.6,3.68Z"/><path class="cls-19" d="M78.78,257.86a12.83,12.83,0,1,1-13.25-12.4A12.83,12.83,0,0,1,78.78,257.86Z"/><path class="cls-20" d="M76.42,257.94a10.47,10.47,0,1,1-10.81-10.11A10.46,10.46,0,0,1,76.42,257.94Z"/><path class="cls-19" d="M75.39,258a9.44,9.44,0,1,1-9.74-9.11A9.43,9.43,0,0,1,75.39,258Z"/><path class="cls-18" d="M72,258.08a6.06,6.06,0,1,1-6.26-5.85A6.06,6.06,0,0,1,72,258.08Z"/><path class="cls-21" d="M71,258.12a5.08,5.08,0,1,1-5.25-4.92A5.08,5.08,0,0,1,71,258.12Z"/><polygon class="cls-20" points="65.01 260.65 63.92 267.81 66.14 268 66.26 260.76 65.01 260.65"/><polygon class="cls-20" points="67.21 260.56 72.21 265.8 73.72 264.15 68.06 259.63 67.21 260.56"/><polygon class="cls-20" points="64.23 260.12 58.49 264.53 57.25 262.68 63.54 259.07 64.23 260.12"/><polygon class="cls-20" points="64.66 256.2 61.68 249.59 63.77 248.81 65.84 255.76 64.66 256.2"/><polygon class="cls-20" points="66.64 255.86 69.9 249.39 71.82 250.53 67.72 256.5 66.64 255.86"/><polygon class="cls-20" points="63.82 257.09 57.04 254.54 56.4 256.67 63.46 258.29 63.82 257.09"/><polygon class="cls-20" points="68.28 257.31 75.41 256.04 75.66 258.26 68.42 258.56 68.28 257.31"/><path class="cls-22" d="M66,261.67a3.38,3.38,0,0,1-2.47-5.7,3.34,3.34,0,0,1,2.36-1.07,3.38,3.38,0,0,1,2.58,5.7,3.34,3.34,0,0,1-2.36,1.07Zm0-5.57h-.07a2.23,2.23,0,1,0,.07,0Z"/><path class="cls-23" d="M67.1,258.25a1.14,1.14,0,1,1-1.18-1.11A1.14,1.14,0,0,1,67.1,258.25Z"/><path d="M66,259.68a1.39,1.39,0,0,1-1.4-1.35,1.4,1.4,0,0,1,1.35-1.44h0a1.4,1.4,0,0,1,.05,2.79Zm0-2.28h0a.92.92,0,0,0-.62.28.89.89,0,0,0,.65,1.49h0a.89.89,0,0,0,0-1.77Z"/><path class="cls-27" d="M58.9,218.64l-.22.3-.62.86c-.54.74-1.32,1.79-2.26,3-.47.62-1,1.3-1.53,2l-1.71,2.24c-.59.77-1.2,1.58-1.8,2.4-.15.21-.3.42-.43.62a1.3,1.3,0,0,0-.1.15l-.06.11s0,0,0,.07l0,.09-.08.2a3,3,0,0,0-.2.65,1.37,1.37,0,0,0,0,.6,2.82,2.82,0,0,0,.25.64l.09.16.09.16.2.33.8,1.33c.54.88,1,1.76,1.54,2.6s1,1.66,1.42,2.44.87,1.51,1.25,2.19c.77,1.36,1.39,2.51,1.83,3.31l.5.94.17.33-.21-.31-.61-.87c-.52-.75-1.25-1.84-2.1-3.15-.43-.65-.9-1.36-1.38-2.12s-1-1.55-1.52-2.38-1.06-1.68-1.6-2.56l-.81-1.32a5.53,5.53,0,0,1-.74-1.5,2.16,2.16,0,0,1,0-.95,4.06,4.06,0,0,1,.26-.83l.06-.17,0-.09,0-.11a2.09,2.09,0,0,1,.13-.23l.11-.17c.16-.23.31-.44.47-.65.62-.83,1.26-1.61,1.87-2.38s1.23-1.48,1.81-2.17,1.13-1.33,1.64-1.92c1-1.19,1.9-2.16,2.51-2.84l.72-.78Z"/><path class="cls-31" d="M52.15,261.22a12.92,12.92,0,0,1-.32-2.45,14.23,14.23,0,1,1,28.44-.95,14,14,0,0,1-.75,5l2-.1a14.81,14.81,0,0,0,.68-5,16.21,16.21,0,1,0-32.41,1.09,15.31,15.31,0,0,0,.25,2.27A12,12,0,0,0,52.15,261.22Z"/><path class="cls-27" d="M151.31,257.13l-.83-.22c0-.07,1.88-7.18,1.7-12.63a51,51,0,0,0-2-11.59l.82-.25a51.35,51.35,0,0,1,2,11.82A53.18,53.18,0,0,1,151.31,257.13Z"/><path class="cls-32" d="M156.44,257.11a11.27,11.27,0,0,1-.21-1.85,14.29,14.29,0,0,1,28.56-1,15.17,15.17,0,0,1-.28,3.46l1.86-.18a15.33,15.33,0,0,0,.25-3.34,16.12,16.12,0,0,0-32.22,1.08,14.44,14.44,0,0,0,.18,1.87Z"/><path class="cls-28" d="M190.1,242.6c-1.33-.4-6-4.3-5.85-5a2.17,2.17,0,0,1,.75-1.06,2.47,2.47,0,0,0-2,1.51c-.18.61,4.5,4.21,5.83,4.57a14.84,14.84,0,0,0,3.25.07A8.72,8.72,0,0,1,190.1,242.6Z"/><path class="cls-14" d="M68,228.22s3.26-7.87,5-8.89c2.59-1.54,27.73-2.34,27.73-2.34s18.44-.62,30.84,4c10.65,4,22.85,11.64,22.85,11.64-27.71-1.73-39.91-1.89-47.18-1.78-3.71,0-38.06,1.59-39.1.81S68,228.22,68,228.22Z"/><path class="cls-6" d="M71.23,228s2.94-7.09,4.49-8c2.33-1.38,25-2.11,25-2.11s16.62-.56,27.78,3.61c9.6,3.59,20.59,10.5,20.59,10.5-25-1.56-36-1.71-42.5-1.61-3.35.05-34.29,1.43-35.23.73S71.23,228,71.23,228Z"/><polygon class="cls-24" points="100.66 217.19 103.34 230.68 109.97 230.62 105.57 217.21 100.66 217.19"/><polygon class="cls-33" points="88.43 218.47 78.71 231.24 84.79 231.09 94.71 218.15 88.43 218.47"/><polygon class="cls-14" points="76.92 218.54 78.37 231.52 77.71 231.58 76.51 218.57 76.92 218.54"/><rect class="cls-25" x="77.2" y="218.7" width="1.71" height="12.88" transform="translate(-22.91 9.3) rotate(-5.95)"/><path class="cls-27" d="M109.29,257.7l-.85-.08c0-.05.45-5.29.52-10.19.14-11.28-5.8-30-5.86-30.15l.81-.26c.06.19,6,19,5.9,30.42C109.75,252.37,109.3,257.64,109.29,257.7Z"/><polygon class="cls-14" points="100.66 216.99 103.34 230.68 102.23 230.72 99.65 217.12 100.66 216.99"/><path class="cls-27" d="M156,233.18l-1.68-.11c-19.49-1.22-33.74-1.81-43.59-1.81-1.22,0-2.38,0-3.55,0-.9,0-3.66.11-7.15.24-8.43.31-21.18.79-27.79.79-4,0-4.25-.18-4.43-.31-1.25-.93-.36-3.62-.26-3.93v0c.34-.82,3.37-8,5.16-9.1,2.6-1.54,25.34-2.32,27.92-2.4,0,0,.84,0,2.23,0,5.38,0,18.95.4,28.78,4.07,10.57,4,22.8,11.6,22.92,11.68Zm-45.27-2.77c9.57,0,23.3.55,41.92,1.7-3.55-2.14-13-7.59-21.3-10.71-9.7-3.62-23.15-4-28.48-4-1.37,0-2.19,0-2.2,0-7,.23-25.47,1.07-27.52,2.29-1.17.69-3.5,5.56-4.79,8.68-.27.76-.61,2.45-.06,2.93a23.28,23.28,0,0,0,3.94.15c6.6,0,19.33-.47,27.76-.78,3.63-.14,6.26-.23,7.16-.25Z"/><path class="cls-28" d="M143.77,225.69s-2.88,1.92-2.74,3.14a2,2,0,0,0,1.88,1.56l5.27-.18s1.81-.31,1.38-1.23-2.86-2.17-4.33-2.73Z"/><polygon class="cls-28" points="144.82 229.96 145.43 232.11 154.35 232.64 148.81 229.37 144.82 229.96"/><polygon class="cls-33" points="97.34 217.97 87.73 231 91.08 230.89 99.77 217.78 97.34 217.97"/><polygon class="cls-33" points="121.23 219.52 113.36 230.31 119.25 230.37 126.37 220.75 121.23 219.52"/><path class="cls-28" d="M49.69,233l-1,0,3,5.11a85,85,0,0,1-8.79.2,1.22,1.22,0,0,0,.65.72c1.27.58,9.74,0,9.74,0Z"/><path id="shadow_beneath" data-name="shadow beneath" class="cls-34" d="M399.06,422.58c0,6.17-33.08,11.18-73.89,11.18s-73.9-5-73.9-11.18,33.08-11.17,73.9-11.17S399.06,416.41,399.06,422.58Z"/><g id="left_arm" data-name="left arm"><path class="cls-35" d="M284.45,238.87c-.73-2-.32-15.66.29-21.31,1.12-10.2,1-15.67,1.42-19,1-2.06,4.49-6.34,7.17-11a95,95,0,0,1-12.1-10.78c-4.46,6-6.47,15.88-9.53,20.26-.71,1.8-1.12,7.75.62,16.64,1.35,6.89,4.88,20.68,3.22,26.38-.24.85.41,12.81.39,13.7,4.48-2,10.49-4.89,12.24-7.91C288.23,244.72,285.8,242.61,284.45,238.87Z"/><path class="cls-36" d="M280.82,177.31c.14-.2.27-.4.41-.59a95,95,0,0,0,12.1,10.78c-2.68,4.7-6.19,9-7.17,11-.44,3.35-.3,8.82-1.42,19-.58,5.3-1,17.62-.41,20.8-1.94-8.33-.37-36.61-.47-39.8,0-.67,5.57-9,5.61-9.81C289.56,187,283.26,180,280.82,177.31Z"/></g><path id="right_hand" data-name="right hand" class="cls-35" d="M275.54,240c-.2,6.57-.69,14-.39,15.34.93,4.35,6.14,11.28,6.75,11.85,1.06,1,10,3.15,10,3.15.76-1.45,0-2.38-.82-2.62,1.52-1.08,4.38-2.65,2.39-4.55.23-.66.59-2.1-.07-2.66s-1.4.16-2.26.41c-1.61.47-3.7,1.28-4.81,0s-1.7-7.37-2.69-8.94c.68,0,4.31,3.7,5.66,5,1.57,1.47,4.14,3.69,5.79,1.65,1-1.18-2.91-5.71-3.6-8.84-1.65-3.57-4.28-5.64-5.52-7.46"/><g id="neck"><path class="cls-35" d="M331.33,130.3l-14.74-.72c.14,6.5,3.3,19.18-5.72,20.48,1.51,7.5,21.33,12.11,27-1.14C330.08,148.39,330.58,137.71,331.33,130.3Z"/><path class="cls-37" d="M332.59,145.59c-2.16-3.86-1.76-10.31-1.26-15.29l-14.74-.72c.06,2.74.65,6.58.64,10.2C320.1,141.9,326.64,144.59,332.59,145.59Z"/></g><g id="ears"><path class="cls-38" d="M302.41,104.86c-3.26-7.54-9.8-7.7-9.21,1.87.26,4.17,8.48,16.8,10.41,7.26Z"/><path class="cls-39" d="M345.43,104.47c3.13-7.59,9.66-7.87,9.25,1.7-.18,4.18-8.18,17-10.28,7.45Z"/></g><path id="face" class="cls-35" d="M345.56,80.08c-20.3-7.41-45.67,3.83-45.67,3.83-.26,13.88,1.43,39.58,3,43.08,1.27,2.83,15.12,11.84,21.84,11.89,6.53,0,20.61-11,21.25-13.72C348.42,114.66,347.27,90.28,345.56,80.08Z"/><path id="highlight" class="cls-40" d="M299.8,83.64c-.26,13.87,1.43,39.58,3,43.07.83,1.84,7,6.3,13,9.2h0c-4-2.56-8.76-5.6-10.33-9.26-1.49-3.48-4.38-29.23-.8-44.85C301.63,82.83,299.8,83.64,299.8,83.64Z"/><path id="shadow" class="cls-41" d="M305.19,81.62l-1.12,3.31c13.67,4.63,35.32-.89,37,1.67,2.71,4,4.26,34.49,1.91,39-3.12,5.92-10.28,10.8-18.38,13,6.53.05,20.61-11,21.25-13.71,2.45-10.5,1.3-34.88-.41-45.08C330.91,74.49,313.74,78.78,305.19,81.62Z"/><ellipse class="cls-42" cx="323.33" cy="124.51" rx="6.7" ry="1.11"/><g id="nose"><path class="cls-43" d="M319.67,117a6.25,6.25,0,0,0,4.39,1.83c.95.08,4.23-1.37,4.42-1.06l.73.15c-1.32.21-3.11,2.09-5,2.26-1.59.14-2.91-1-4.09-2.07C320,117.83,320,117.32,319.67,117Z"/><path class="cls-40" d="M324.53,104.54c.49,2.4,3.76,10.44,3.62,11.12-.11.51-3.73,2.62-3.72.83C324.44,114.44,324.53,104.54,324.53,104.54Z"/><path class="cls-44" d="M318.72,117.17c.14-.58,2.41-8.07,2.43-8.29.2.55-.48,7.67.2,8.82a5.56,5.56,0,0,0,2.65,1.69c1.68,0,3.88-1.44,5.21-1.52-.48.17-3.82,2.71-4.61,3a4.14,4.14,0,0,1-3.3,0C320.38,120.72,318.22,119.1,318.72,117.17Z"/></g><g id="eyes"><g id="eyes-2" data-name="eyes"><g id="eye"><path class="cls-42" d="M338.62,102.13c-2.46-1.4-10.37-1.73-9.19,2.73l2.3,1.2a18.86,18.86,0,0,1,6.12.08A16,16,0,0,0,339,105,5.22,5.22,0,0,0,338.62,102.13Z"/><path class="cls-45" d="M333,101.26a2.37,2.37,0,1,0,2.89.07A12.16,12.16,0,0,0,333,101.26Z"/><path class="cls-46" d="M336,103.19a1.56,1.56,0,1,1-1.54-1.59A1.56,1.56,0,0,1,336,103.19Z"/><path class="cls-42" d="M333.36,103a.66.66,0,0,1-.93-.2.69.69,0,0,1,.21-.93.65.65,0,0,1,.91.2A.67.67,0,0,1,333.36,103Z"/><path class="cls-46" d="M338.77,102.37c-.27-1.12-5.34-2.79-8.9-.27-.24.28-.65,1-.51,1.05,2.17-1.72,8.58-1.5,9.68.11Z"/></g><path id="eyebrow" class="cls-47" d="M340.13,95.31c-2.49-.93-8.91-1.43-10.34-.18a4,4,0,0,0-1.29,2.48c.79.94,8.34-.94,12.62.67C341.53,96.45,340.3,95.89,340.13,95.31Z"/></g><g id="eyes-3" data-name="eyes"><g id="eye-2" data-name="eye"><path class="cls-42" d="M307.77,102.41C310.2,101,318.1,100.5,317,105l-2.28,1.24a19.07,19.07,0,0,0-6.12.2c-.21-.17-.8-.78-1.13-1.13A5.2,5.2,0,0,1,307.77,102.41Z"/><path class="cls-45" d="M313.36,101.44a2.36,2.36,0,1,1-2.89.12A12.14,12.14,0,0,1,313.36,101.44Z"/><path class="cls-46" d="M310.44,103.42a1.55,1.55,0,1,0,1.5-1.62A1.56,1.56,0,0,0,310.44,103.42Z"/><path class="cls-42" d="M313.05,103.16a.66.66,0,0,0,.91-.22.67.67,0,0,0-.22-.92.65.65,0,0,0-.91.21A.67.67,0,0,0,313.05,103.16Z"/><path class="cls-46" d="M307.62,102.65c.25-1.12,5.29-2.89,8.9-.43.25.27.67,1,.52,1-2.19-1.68-8.6-1.34-9.67.29Z"/></g><path id="eyebrow-2" data-name="eyebrow" class="cls-47" d="M306.13,95.62c2.47-1,8.89-1.6,10.34-.37.68.58,1.47,2,1.33,2.46-.77,1-8.35-.79-12.6.89C304.76,96.78,306,96.21,306.13,95.62Z"/></g></g><g id="hair"><path id="hair-2" data-name="hair" class="cls-48" d="M350.1,69.28C343,71,338.72,68.06,326.9,66.05c-10.21-1.74-26.55.73-29.76,6.19.76,2.22.46,5.31-3.12,7.13-1.25.7,1.74,17.27,3.45,20.11,1.62.5,2.34,7,3.23,10.85,0,0,1.16-23.8,2.64-25.53C325,88.93,338.15,82,344.13,83.3c2.42,6.78,1,18.67,2.54,25.84,1.27-4.51,2.13-10.06,3.57-10.13C351.59,94.39,355.18,81.26,350.1,69.28Z"/><path id="shadow-2" data-name="shadow" class="cls-49" d="M293.76,80.1c-.37,3.33,2.19,16.84,3.71,19.38,1.62.5,2.34,7,3.23,10.85,0,0,1.16-23.8,2.64-25.53C325,88.93,338.15,82,344.13,83.3c2.42,6.78,1,18.67,2.54,25.84,1.27-4.51,2.13-10.06,3.57-10.13,1.35-4.62,4.94-17.75-.14-29.73,1.87,7.5-9.44,8.67-5.16,2.69-3.48,1-14.58,5.3-15.87,2.16-.81-1.37,2.58-3.57,4.79-3.63-7-3.86-27.85,11.38-30.33,4.18-2.81,4.1-4.26,11.5-6.75,11.8-2.2.11-3.06-6.22-2.76-7.11A4.36,4.36,0,0,0,293.76,80.1Z"/></g><g id="shoes"><path class="cls-50" d="M360.87,414.16c-4.92-5.87-16.31-.36-20.13,4.51l.26,3.41,4.73,1.47c2.4.36,15.57.06,20.25-.32C367.28,416.22,361.08,417.25,360.87,414.16Z"/><path class="cls-51" d="M365,418.13c-.26.22-3.72,2.22-16.4,1.25-.75-.06-2.4-.29-2.63-1.1-.19-.61,4.91-6,14.95-3.8a1.5,1.5,0,0,1-.07-.32c-4.92-5.87-16.31-.36-20.13,4.51l.26,3.41,4.73,1.47c2.4.36,15.57.06,20.25-.32C366.47,420.63,365.92,419.14,365,418.13Z"/><path class="cls-50" d="M298.42,414.32c-5.42,4.9-15.21,2.06-13.05,8.21,7.88,2.47,15.35,1.27,22.65.07,5.3-.87,8.14-1.36,12.12-1.76,1.5-.15-.89-7.13-.89-7.13C313.76,410.83,303.85,409.42,298.42,414.32Z"/><path class="cls-51" d="M298.42,414.32a9,9,0,0,1-1.27,1c3.05.07,7.08.2,8.9.91,1.25.48,2.9,1.3,3.5,2.87.38,1-6.62,2.12-8.17,2.36-4.61.73-8.08,1-12.61-.24a8.88,8.88,0,0,1-3-1.9h0a4.36,4.36,0,0,1-.61.89,3.56,3.56,0,0,0,.17,2.36c7.88,2.47,15.35,1.27,22.65.07,5.3-.87,8.14-1.36,12.12-1.76,1.5-.15-.89-7.13-.89-7.13C313.76,410.83,303.85,409.42,298.42,414.32Z"/></g><g id="jeans"><path id="jeans-2" data-name="jeans" class="cls-52" d="M360.87,414.16c1.77-3.73-2.43-4.69-2.67-6.37-3.21-23.36-2.45-66.81-2.9-72.87-1.41-14.18,1.68-62,1.68-67.51,0-2.41-3.59-21.72-3.59-21.72l-55.18,1.79s-2,17.71-2,18.64c.07,4.67,3.39,25.06,4.64,64.76,2,14.55.73,65.79-.14,73.28-.16,1.37,1.53,3.55,1.39,4.1s-2.33,1.17-2.33,1.17c-.12.28-1.67,3.25-1.15,4.69,4.71-.2,19.06,5,22.77,4.1.69-1.47.92-8.17.92-8.17s-1.13-74.92-1.13-80.63c0-9.59.71-40,1.34-56.82,0,0,3.43-.15,5.4,1.86s5.65,33.66,7.4,61.87c.76,12.3,2.72,50.64,3.28,71.49l1.91,4.68s-2.45,4.39.2,6.17C343.76,416.22,354.36,411.16,360.87,414.16Z"/><path id="highlight-2" data-name="highlight" class="cls-53" d="M337.2,333s3.56,2.93,4.88,2.63c4.91-1.09,10-3.54,10.69-5.05,0-.8,1.9-46.3,2.61-60.1,0,0-8.68-5.11-10.67-12.57-16.6-.75-35.77,5.68-47.08,1.22a49.72,49.72,0,0,0-1.05,6l7.5,2.37s-7,0-6.95,1.15c.16,3,.21,8.24.27,14.47,1,10.94,2.27,26.67,2.93,47.71.1.74.2,1.56.28,2.47,0,0,4.6,3.7,5.91,3.9s9.35-2.29,10.31-3.86c.54-.88.68-48.84,1.93-60.08-1.4-.62-6.5-5.86-7-5.83,6.84.35,16.26,3.76,20,4.08-.24,1.9-1.44,3.28-1.36,5.83C333.23,290.2,335.82,325.81,337.2,333Z"/></g><path id="lighter_t-shirt_below" data-name="lighter t-shirt below" class="cls-54" d="M354.18,251.35s-3.67-74-3.62-74.53l7.59,25c12.74-4.24,19.58-9.16,19.58-9.16-7.46-17.22-32.18-41.38-38.46-43.19l-3.5-1.84c-3.41,6-17.2,7.4-22.25.8l-3,1.87s-12.76,96.38-12.79,96.54c-1.37,6.69-2.88,9-.65,10.89,12.15,5.89,38.54-3.92,57.91-1A6.9,6.9,0,0,0,354.18,251.35Z"/><path id="lighter_t-shirt_below-2" data-name="lighter t-shirt below" class="cls-54" d="M285.47,166.27a90.37,90.37,0,0,0-14.69,23.42s5.08,3.53,17.81,7.77l7.88-23.52Z"/><path id="t-shirt" class="cls-55" d="M356.38,250.34l-.58-2.23.59-2.68c.13-2.58-1.42-1.76-1.75-5.52l0-.17c-.51-15.08-.86-49.82-.81-50.31L357,200.25a108.44,108.44,0,0,0,20.55-9.47c-7.46-17.22-14.69-31.35-16.68-34s-23-8.33-23-8.33c-3.4,7.44-21.2,8.51-26.31,1l-18.55,7c-2.87,3.19-19.23,22-23.3,32.3,6.95,2.22,12.79,3.84,19.75,8.49l6.92-7.06c.09,1.82,1.42,23.14,1.45,40-.33,5.39-.08,7.55-1.75,10.79-.87,1.68-.69,2.1.16,3.76.24.48.57,1,.87,1.45,0,.18-.06.36-.09.52-1.38,6.69-1.86,6.57.37,8.43,12.14,5.89,39-2.92,58.41,0C358.08,251.06,356.38,250.34,356.38,250.34Z"/><path id="shadow-3" data-name="shadow" class="cls-56" d="M353.36,165.07c-1.76,13.3-1.47,29.45-.8,40.73.13,2.2,1.27,34.89-.37,37.43s-15.85,8.25-18.33,8.64a70.13,70.13,0,0,0,19-5.72s.16,4.59-.47,5c-5.7,3.48-25.61,3.78-28.8,4.29-10,1.58-23.92,0-25.24-1.95,0,0,.06-5.18.1-5.15,1.85,1.47,9.37,2.8,16,3.6-.24-.14-12-2.48-14.74-5.71s-.18-11.56-.18-11.59c.6-18.31-2.05-19.64-2-68.94-.82,7.49-1.22,24.57-1.22,24.57.09,1.82,1.42,23.14,1.45,40-.33,5.39-.08,7.55-1.75,10.79-.87,1.68-.69,2.1.16,3.76.24.48.57,1,.87,1.45,0,.18-.06.36-.09.52-1.38,6.69-1.86,6.57.37,8.43,12.14,5.89,39-2.92,58.41,0,2.32-4.15.62-4.87.62-4.87l-.58-2.23.59-2.68c.13-2.58-1.42-1.76-1.75-5.52l0-.17c-.51-15.08-.86-49.82-.81-50.31A199.42,199.42,0,0,1,353.36,165.07Z"/><g id="left_arm-2" data-name="left arm"><path class="cls-35" d="M352.64,253c1.31-1.7,5.05-14.82,6.17-20.4,2-10.06,3.81-15.23,4.4-18.55-.32-2.26-2.37-7.41-3.5-12.69a96.14,96.14,0,0,0,14.8-6.63c2.43,7.09,1.36,17.1,2.95,22.19.13,1.94-1.27,7.73-5.62,15.68-3.37,6.16-11.45,21.19-11.59,27.12,0,.89-3.72,9.14-4,10-3.67-3.27-8.53-7.84-9.28-11.25C347.28,257.38,350.23,256.11,352.64,253Z"/><path class="cls-36" d="M374.71,195.37c-.06-.23-.13-.47-.2-.69a96.14,96.14,0,0,1-14.8,6.63c1.13,5.28,3.18,10.43,3.5,12.69-.59,3.32-2.39,8.49-4.4,18.55-1.05,5.23-4.4,17.09-5.89,20,4.36-7.36,11.41-34.79,12.47-37.8.22-.63-2.59-10.25-2.38-11.05C363.47,201.92,371.59,197.15,374.71,195.37Z"/></g><path class="cls-57" d="M321.42,127.54s3.88-1,5.6,0A16.4,16.4,0,0,0,321.42,127.54Z"/></g></g></svg>