<?xml version="1.0" encoding="utf-8"?>
<!-- Generator: Adobe Illustrator 23.0.1, SVG Export Plug-In . SVG Version: 6.00 Build 0)  -->
<svg version="1.1" id="Layer_1" xmlns="http://www.w3.org/2000/svg" xmlns:xlink="http://www.w3.org/1999/xlink" x="0px" y="0px"
	 viewBox="0 0 119 157.92" style="enable-background:new 0 0 119 157.92;" xml:space="preserve">
<g>
	<g>
		<defs>
			<rect id="SVGID_1_" width="119" height="157.92"/>
		</defs>
		<clipPath id="SVGID_2_">
			<use xlink:href="#SVGID_1_"  style="overflow:visible;"/>
		</clipPath>
		<path class="st0" d="M60.24,52.48c14.36,0,26.04-11.68,26.04-26.04c0-14.37-11.68-26.07-26.04-26.07S34.2,12.07,34.2,26.44
			C34.2,40.79,45.88,52.48,60.24,52.48L60.24,52.48z M60.24,3.93c12.38,0,22.47,10.09,22.47,22.5c0,12.38-10.08,22.46-22.47,22.46
			c-12.39,0-22.47-10.08-22.47-22.46C37.77,14.03,47.85,3.93,60.24,3.93L60.24,3.93z M60.24,3.93"/>
		<path class="st0" d="M118.25,85.03c-2.32-27.6-33.93-27.96-34.88-27.84H34.74c-12.27,0-20.85,4.74-20.85,4.74
			C-0.01,70.36,0.45,81.28,0.42,81.57l-0.07,40.18c-0.08,0.57-0.01,5.1,2.77,8.32c1.93,2.23,4.63,3.36,8.03,3.36h15.09l-0.01,22.17
			l71.08,0.06v-2.77c2.2,2.48,5.38,4.06,8.95,4.06c6.63,0,12.01-5.39,12.01-12.11L118.25,85.03z M12.67,129.86l-1.53,0.01
			c-2.17,0-3.87-0.63-5.07-1.85c-2.2-2.25-2.17-5.88-2.16-5.99l0.08-40.27c0.06-0.56,1.17-9.38,9.82-15.4L12.67,129.86z
			 M16.24,129.73l1.17-65.34c2.49-0.85,9.15-2.84,18.74-3.54l14.07,52.79c2.71,6.23,4.82,14.13,3.64,15.93
			c-0.06,0.08-0.11,0.17-0.45,0.17H16.24L16.24,129.73z M114.69,144.94c0,4.66-3.79,8.45-8.45,8.45c-4.66,0-8.45-3.79-8.45-8.54
			l-0.02-1.78V79.56H93.7l0.03,72.54l-63.93-0.04l0.01-18.76H60.9c6.11,0,11.08-4.98,11.08-11.09c0-6.11-4.96-11.07-11.08-11.07
			h-7.67l-13.4-50.38h43.57c1.22-0.01,29.23-0.08,31.3,24.43V144.94z M54.51,114.7h6.39c4.14,0,7.51,3.37,7.51,7.51
			c0,4.15-3.37,7.52-7.51,7.52l-3.38,0.01C58.41,125.58,56.09,118.67,54.51,114.7L54.51,114.7z M54.51,114.7"/>
	</g>
</g>
</svg>
