<?xml version="1.0" encoding="utf-8"?>
<!-- Generator: Adobe Illustrator 23.0.1, SVG Export Plug-In . SVG Version: 6.00 Build 0)  -->
<svg version="1.1" id="Layer_1" xmlns="http://www.w3.org/2000/svg" xmlns:xlink="http://www.w3.org/1999/xlink" x="0px" y="0px"
	 viewBox="0 0 192.64 141" style="enable-background:new 0 0 192.64 141;" xml:space="preserve">
<g>
	<path d="M189.34,67.57h-16.3c6.78-15.38,6.04-27.83,3.48-36.26C172.13,16.3,157.3,0,135.32,0c-5.86,0-11.72,1.1-17.76,3.29
		c-10.44,3.85-17.4,8.06-20.51,10.26c-3.11-2.2-9.89-6.41-20.51-10.26C70.5,1.1,64.46,0,58.78,0c-21.97,0-36.81,16.3-41.2,31.31
		c-2.56,8.97-3.48,22.52,5.13,39.55H2.93C1.28,70.87,0,72.15,0,73.79c0,1.65,1.28,2.93,2.93,2.93h23.26
		c0.92,1.65,2.01,3.3,3.29,4.94c19.04,27.47,60.43,57.32,67.94,59.15V141c0,0,0.18,0,0.37-0.18h0.55v-0.18
		c6.41-3.11,46.15-28.75,67.02-59.15c2.01-2.75,3.66-5.49,5.13-8.24h19.23c1.65,0,2.93-1.28,2.93-2.93
		C192.64,68.67,190.99,67.57,189.34,67.57L189.34,67.57z M160.04,78.37c-19.41,28.38-55.12,51.27-62.81,56.22
		c-7.88-4.94-43.4-28.02-62.99-56.22l-1.1-1.65h26.92c1.1,0,2.2-0.55,2.75-1.65l12.27-24.17l19.23,49.26
		c0.37,1.1,1.65,1.83,2.75,1.83h0.18c1.28,0,2.38-0.91,2.75-2.2l16.85-57.68l8.97,29.12c0.37,1.1,1.28,1.83,2.38,2.01
		c1.1,0.18,2.2-0.37,2.93-1.28l7.14-10.44l6.04,10.25c0.55,0.92,1.46,1.47,2.56,1.47h16.48C162.24,75.08,161.14,76.73,160.04,78.37
		L160.04,78.37z M166.64,67.57h-17.95l-7.51-12.82c-0.55-0.92-1.46-1.47-2.56-1.47c-1.1,0-2.01,0.37-2.56,1.28l-6.23,9.16
		l-10.07-32.78c-0.37-1.28-1.65-2.01-2.93-2.2c-1.28,0-2.56,0.92-2.93,2.2L96.87,89.73l-18.5-47.25c-0.37-1.1-1.47-1.83-2.56-1.83
		c-1.28,0-2.2,0.55-2.75,1.65L58.6,70.68H29.48c-7.33-13.37-9.34-26.19-6.04-37.72c3.84-13,16.48-26.92,35.52-26.92
		c5.13,0,10.44,1.1,15.75,2.93c13.37,4.95,20.51,10.62,20.69,10.62c1.1,0.92,2.56,0.92,3.66,0c0,0,7.14-5.67,20.69-10.62
		c5.31-2.01,10.62-2.93,15.75-2.93c18.86,0,31.68,13.92,35.52,26.92C174.15,43.58,172.5,55.3,166.64,67.57L166.64,67.57z
		 M166.64,67.57"/>
</g>
</svg>
