<?xml version="1.0" encoding="utf-8"?>
<!-- Generator: Adobe Illustrator 23.0.1, SVG Export Plug-In . SVG Version: 6.00 Build 0)  -->
<svg version="1.1" id="Layer_1" xmlns="http://www.w3.org/2000/svg" xmlns:xlink="http://www.w3.org/1999/xlink" x="0px" y="0px"
	 viewBox="0 0 201.32 195.79" style="enable-background:new 0 0 201.32 195.79;" xml:space="preserve">
<g>
	<path d="M169.77,55.13c-0.72,0-1.46,0.02-2.18,0.07C165.56,24.46,139.82,0,108.61,0c-27.28,0-50.8,18.57-57.32,44.68
		c-4.24-1.6-8.69-2.4-13.32-2.4C17.03,42.29,0,59.32,0,80.24c0,20.94,17.03,37.97,37.97,37.97h131.81
		c17.4,0,31.55-14.15,31.55-31.55C201.32,69.27,187.18,55.13,169.77,55.13L169.77,55.13z M169.77,111.91H37.97
		C20.51,111.91,6.3,97.7,6.3,80.24c0-17.46,14.21-31.67,31.67-31.67c4.99,0,9.76,1.12,14.16,3.35c0.89,0.45,1.94,0.45,2.83,0
		c0.89-0.43,1.5-1.28,1.69-2.24C61.19,24.54,83.05,6.3,108.61,6.3c28.94,0,52.62,23.53,52.81,52.47c0.01,0.94,0.43,1.81,1.15,2.4
		c0.72,0.6,1.66,0.84,2.58,0.68c1.5-0.28,3.07-0.43,4.62-0.43c13.93,0,25.27,11.33,25.27,25.25
		C195.04,100.59,183.71,111.91,169.77,111.91L169.77,111.91z M169.77,111.91"/>
	<path d="M64.02,131.94c-1.63-0.58-3.43,0.26-4.02,1.91l-7.16,19.88c-0.58,1.63,0.26,3.44,1.89,4.02c0.35,0.13,0.71,0.18,1.06,0.18
		c1.29,0,2.5-0.8,2.96-2.07l7.18-19.89C66.51,134.34,65.66,132.54,64.02,131.94L64.02,131.94z M64.02,131.94"/>
	<path d="M75.59,169.8c-1.63-0.6-3.44,0.26-4.03,1.89l-7.16,19.89c-0.6,1.63,0.24,3.43,1.89,4.02c0.35,0.12,0.71,0.18,1.06,0.18
		c1.29,0,2.51-0.8,2.96-2.09l7.16-19.88C78.07,172.2,77.23,170.39,75.59,169.8L75.59,169.8z M75.59,169.8"/>
	<path d="M104.55,131.94c-1.63-0.58-3.44,0.26-4.02,1.91l-7.17,19.88c-0.58,1.63,0.26,3.44,1.91,4.02c0.35,0.13,0.71,0.18,1.06,0.18
		c1.29,0,2.5-0.8,2.96-2.07l7.16-19.89C107.04,134.34,106.18,132.54,104.55,131.94L104.55,131.94z M104.55,131.94"/>
	<path d="M116.12,169.8c-1.64-0.6-3.44,0.26-4.02,1.89l-7.17,19.89c-0.58,1.63,0.26,3.43,1.89,4.02c0.35,0.12,0.72,0.18,1.08,0.18
		c1.29,0,2.49-0.8,2.95-2.09l7.17-19.88C118.59,172.2,117.75,170.39,116.12,169.8L116.12,169.8z M116.12,169.8"/>
	<path d="M145.09,131.94c-1.63-0.58-3.44,0.26-4.02,1.91l-7.17,19.88c-0.58,1.63,0.26,3.44,1.89,4.02c0.35,0.13,0.72,0.18,1.08,0.18
		c1.29,0,2.49-0.8,2.96-2.07l7.16-19.89C147.56,134.34,146.71,132.54,145.09,131.94L145.09,131.94z M145.09,131.94"/>
</g>
</svg>
