<?xml version="1.0" encoding="utf-8"?>
<!-- Generator: Adobe Illustrator 23.0.0, SVG Export Plug-In . SVG Version: 6.00 Build 0)  -->
<svg version="1.1" id="Layer_1" xmlns="http://www.w3.org/2000/svg" xmlns:xlink="http://www.w3.org/1999/xlink" x="0px" y="0px"
	 viewBox="0 0 201.3 195.8" style="enable-background:new 0 0 201.3 195.8;" xml:space="preserve">
<style type="text/css">
	.st0{fill:none;stroke:#000000;stroke-width:4.8175;stroke-miterlimit:10;}
</style>
<g>
	<g>
		<polygon points="77.4,98.8 56.8,56.9 84.6,73.3 94.3,31 107.4,57.5 123.9,45.2 127,64.3 157,51.5 132.8,89.4 128.7,86.8 
			144.5,62.1 123.2,71.2 120.4,53.8 105.6,64.8 96,45.3 87.8,80.8 68.3,69.3 81.7,96.7 		"/>
	</g>
</g>
<g>
	<g>
		<path d="M91.9,147.7H64.5v-4.8h22.6v-10.6c-7.6-1.4-31.9-6-36.1-7.8c-4.6-2-48.4-22.1-50.3-23l2-4.4c0.5,0.2,45.6,21,50.2,22.9
			c3.2,1.4,24,5.4,37.1,7.8l2,0.4V147.7z"/>
	</g>
</g>
<g>
	<g>
		<rect x="0.3" y="144.2" width="26" height="4.8"/>
	</g>
</g>
<g>
	<g>
		<path d="M46.6,160c-8.5,0-15.4-6.9-15.4-15.4s6.9-15.4,15.4-15.4S62,136.2,62,144.7S55.1,160,46.6,160z M46.6,134.1
			c-5.8,0-10.6,4.7-10.6,10.6s4.7,10.6,10.6,10.6s10.6-4.7,10.6-10.6S52.4,134.1,46.6,134.1z"/>
	</g>
</g>
<g>
	<g>
		<path d="M154.1,160c-9.2,0-16.7-7.5-16.7-16.7c0-9.2,7.5-16.7,16.7-16.7s16.7,7.5,16.7,16.7C170.8,152.5,163.3,160,154.1,160z
			 M154.1,131.4c-6.6,0-11.9,5.3-11.9,11.9c0,6.6,5.3,11.9,11.9,11.9s11.9-5.3,11.9-11.9C166,136.8,160.6,131.4,154.1,131.4z"/>
	</g>
</g>
<g>
	<g>
		<path d="M133.1,149.7h-18.5l-0.7-1.3c-0.6-1.2-5.6-11.5-6-16.9c-0.9-12.4,6.1-17.5,9.9-18.5l0.2,0l40.4-7.2l44.3-33.9v39.6
			l-47.7,0v-0.2l-36,6.4c-0.7,0.2-7,2.5-6.2,13.4c0.2,3.3,3.2,10.1,4.9,13.7h15.5V149.7z M197.9,81.6l-32.7,25l32.7,0V81.6z"/>
	</g>
</g>
<g>
	<g>
		<rect x="174.7" y="144.6" width="26.3" height="4.8"/>
	</g>
</g>
<g>
	<g>
		<path class="st0" d="M109.2,135.2"/>
	</g>
</g>
</svg>
