<?xml version="1.0" encoding="utf-8"?>
<!-- Generator: Adobe Illustrator 23.0.1, SVG Export Plug-In . SVG Version: 6.00 Build 0)  -->
<svg version="1.1" id="Layer_1" xmlns="http://www.w3.org/2000/svg" xmlns:xlink="http://www.w3.org/1999/xlink" x="0px" y="0px"
	 viewBox="0 0 162.58 120.44" style="enable-background:new 0 0 162.58 120.44;" xml:space="preserve">
<g>
	<path d="M157.13,95.51h-0.18V81.29c0-35.49-24.8-66.25-59.23-73.88c-0.18-1.84-0.97-3.54-2.28-4.89C93.88,0.89,91.78,0,89.52,0
		H73.06c-2.26,0-4.36,0.89-5.93,2.52c-1.3,1.35-2.09,3.06-2.27,4.89C30.41,15.04,5.62,45.8,5.62,81.29v14.22H5.44
		c-3,0-5.44,2.44-5.44,5.44v3.58c0,2.37,1.5,4.45,3.73,5.18c21.16,6.92,48.7,10.73,77.56,10.73c28.86,0,56.4-3.81,77.56-10.73
		c2.23-0.73,3.73-2.81,3.73-5.18v-3.58C162.58,97.95,160.14,95.51,157.13,95.51L157.13,95.51z M70.91,6.18
		c0.57-0.59,1.33-0.91,2.15-0.91h16.46c0.82,0,1.58,0.32,2.15,0.91c0.57,0.59,0.87,1.36,0.84,2.18l-2.42,70.23
		c-0.05,1.62-1.37,2.88-2.98,2.88H75.48c-1.62,0-2.93-1.27-2.98-2.88L70.08,8.36C70.05,7.54,70.34,6.77,70.91,6.18L70.91,6.18z
		 M157.31,104.54c0,0.07-0.03,0.15-0.1,0.18c-20.64,6.75-47.6,10.46-75.92,10.46c-28.32,0-55.28-3.72-75.92-10.46
		c-0.07-0.02-0.1-0.1-0.1-0.18v-3.58c0-0.1,0.08-0.18,0.17-0.18h101.13c1.45,0,2.63-1.18,2.63-2.63c0-1.46-1.18-2.63-2.63-2.63
		H10.88V81.29c0-26.47,14.82-50.11,37.2-62.1l5.72,40c0.19,1.31,1.31,2.26,2.6,2.26c0.12,0,0.25-0.01,0.38-0.03
		c1.44-0.21,2.44-1.54,2.23-2.98l-5.95-41.68c3.79-1.66,7.77-3,11.9-3.98l2.28,65.97c0.15,4.47,3.77,7.97,8.25,7.97H87.1
		c4.47,0,8.09-3.5,8.25-7.97l2.28-65.97c4.13,0.98,8.11,2.31,11.9,3.98l-5.95,41.68c-0.21,1.44,0.79,2.77,2.23,2.98
		c0.13,0.02,0.25,0.03,0.38,0.03c1.29,0,2.42-0.95,2.6-2.26l5.72-40c22.38,12,37.2,35.63,37.2,62.1v14.22h-17.03
		c-1.45,0-2.63,1.18-2.63,2.63c0,1.45,1.18,2.63,2.63,2.63h22.47c0.1,0,0.17,0.08,0.17,0.17V104.54z M157.31,104.54"/>
	<path d="M123.43,95.51h-5.62c-1.45,0-2.63,1.18-2.63,2.63c0,1.45,1.18,2.63,2.63,2.63h5.62c1.45,0,2.63-1.18,2.63-2.63
		C126.06,96.69,124.88,95.51,123.43,95.51L123.43,95.51z M123.43,95.51"/>
	<path d="M61.42,75.3l-0.8-5.62c-0.2-1.44-1.54-2.44-2.98-2.23c-1.44,0.2-2.44,1.54-2.24,2.98l0.8,5.62
		c0.19,1.31,1.32,2.26,2.6,2.26c0.13,0,0.25-0.01,0.38-0.03C60.63,78.07,61.63,76.74,61.42,75.3L61.42,75.3z M61.42,75.3"/>
	<path d="M104.94,67.45c-1.44-0.21-2.77,0.79-2.98,2.23l-0.8,5.62c-0.21,1.44,0.79,2.77,2.23,2.98c0.13,0.02,0.25,0.03,0.38,0.03
		c1.29,0,2.42-0.95,2.61-2.26l0.8-5.62C107.38,68.98,106.38,67.65,104.94,67.45L104.94,67.45z M104.94,67.45"/>
</g>
</svg>
