<?xml version="1.0" encoding="utf-8"?>
<!-- Generator: Adobe Illustrator 16.0.0, SVG Export Plug-In . SVG Version: 6.00 Build 0)  -->
<!DOCTYPE svg PUBLIC "-//W3C//DTD SVG 1.1//EN" "http://www.w3.org/Graphics/SVG/1.1/DTD/svg11.dtd">
<svg version="1.1" id="Layer_1" xmlns="http://www.w3.org/2000/svg" xmlns:xlink="http://www.w3.org/1999/xlink" x="0px" y="0px"
	 width="74.5px" height="62px" viewBox="0 0 74.5 62" enable-background="new 0 0 74.5 62" xml:space="preserve">
<g>
	<g>
		<defs>
			<rect id="SVGID_1_" width="74.5" height="62"/>
		</defs>
		<clipPath id="SVGID_2_">
			<use xlink:href="#SVGID_1_"  overflow="visible"/>
		</clipPath>
		<path clip-path="url(#SVGID_2_)" d="M73.087,0.9c-0.818-0.512-1.74-0.717-2.867-0.614c-1.945,0.306-3.584,1.023-5.119,2.15
			c-1.332,1.023-2.867,2.253-4.608,3.687l-2.458,2.15c-0.512,0.512-1.023,0.921-1.535,1.434c-0.513,0.409-0.922,0.614-1.536,0.512
			c-0.308-0.103-0.717-0.205-1.127-0.307L34.688,2.742c-0.614-0.204-1.229-0.409-1.945-0.614c-1.434-0.41-2.458,0-3.072,0.512
			c-1.127,0.819-2.048,1.844-2.662,2.97c-0.717,1.126-0.513,2.355,0.512,3.277c0.409,0.41,0.819,0.717,1.126,0.922
			c3.481,2.457,7.065,4.813,10.548,7.27c1.331,0.921,2.56,1.741,3.481,2.867c0.205,0.308,0.409,0.513,0.614,0.82l-6.656,6.348
			c-0.717,0.717-1.434,1.332-2.15,2.049c-0.103,0-0.205-0.103-0.307-0.103l-1.127-0.512c-0.922-0.41-1.74-0.921-2.662-1.332
			c-1.127-0.511-2.355-0.409-3.277,0.41c-0.512,0.41-1.023,0.921-1.535,1.434c-0.922,0.921-1.024,2.048-0.205,3.071
			c0.205,0.308,0.409,0.513,0.614,0.717l1.945,2.458c2.253,2.97,4.608,5.94,6.964,8.807c0.307,0.409,0.614,0.718,1.023,0.922
			c0.41,0.204,1.229,0.717,2.253,0.409c1.229-0.409,2.15-1.229,2.56-2.457c0.41-1.024,0.513-2.151,0.103-3.38l-0.204-0.922
			l-0.615-2.457c2.766-2.15,5.53-4.198,8.192-6.348l1.331-1.025l0.308,0.512c0.717,1.127,1.331,2.253,1.74,3.481l4.711,12.084
			c0.307,0.717,0.512,1.434,0.819,2.048c0.512,1.126,1.331,1.74,2.354,1.74c0.41,0,0.819-0.102,1.229-0.307
			c0.307-0.103,0.614-0.205,0.819-0.41c1.638-0.818,2.662-1.944,3.071-3.481c0.308-1.229,0.205-2.354,0.103-3.174l-2.457-17.92
			c-0.205-1.433-0.41-2.97-0.615-4.403c-0.102-0.717,0.103-1.127,0.615-1.537l2.15-1.844c1.74-1.433,3.379-2.867,5.119-4.301
			c1.434-1.229,2.355-2.354,3.175-3.584c0.614-0.92,1.229-2.047,1.536-3.276C74.726,3.153,74.214,1.719,73.087,0.9L73.087,0.9z
			 M72.269,4.073c-0.308,1.025-0.819,1.946-1.332,2.766c-0.614,1.023-1.535,2.047-2.765,3.071c-1.638,1.433-3.379,2.867-5.12,4.301
			l-2.048,1.741c-1.126,0.819-1.638,2.047-1.434,3.481c0.205,1.434,0.41,2.867,0.614,4.403l2.458,17.919
			c0.103,1.024,0.103,1.741-0.103,2.355c-0.307,0.922-0.922,1.639-1.945,2.15c-0.205,0.103-0.41,0.205-0.717,0.307
			c-0.614,0.205-0.819,0.103-1.024-0.409c-0.307-0.614-0.512-1.33-0.819-2.048l-4.505-12.083c-0.513-1.332-1.229-2.561-1.946-3.789
			l-0.614-1.024l-0.921-1.331l-3.175,2.355c-2.867,2.151-5.734,4.403-8.499,6.554c-0.717,0.512-0.614,1.126-0.513,1.536
			c0.205,0.921,0.513,1.844,0.717,2.765l0.205,0.923c0.205,0.817,0.205,1.534-0.103,2.149c-0.307,0.614-0.717,1.023-1.434,1.229
			c0,0-0.204,0-0.512-0.205c-0.205-0.103-0.409-0.307-0.512-0.512c-2.355-2.97-4.608-5.837-6.861-8.807l-1.945-2.458
			c-0.205-0.204-0.308-0.409-0.512-0.717c-0.103-0.102-0.103-0.204-0.103-0.204l0.205-0.206c0.409-0.409,0.921-0.922,1.331-1.229
			c0.307-0.308,0.717-0.308,1.126-0.103c0.922,0.409,1.741,0.82,2.662,1.331l1.127,0.512l0.614,0.308
			c0.512,0.307,1.126,0.205,1.639-0.205c0.819-0.82,1.638-1.537,2.457-2.355l7.066-6.655l0.818-0.82l-0.512-0.717
			c-0.103-0.205-0.205-0.307-0.307-0.512c-0.308-0.41-0.513-0.819-0.819-1.127c-1.127-1.331-2.458-2.355-3.892-3.276
			c-3.481-2.356-7.065-4.814-10.547-7.271c-0.308-0.205-0.614-0.411-0.922-0.717c-0.308-0.308-0.308-0.411-0.103-0.614
			c0.512-0.922,1.331-1.741,2.253-2.458c0.205-0.206,0.512-0.308,1.229-0.103c0.717,0.206,1.331,0.41,1.844,0.614l19.148,7.168
			c0.512,0.206,1.024,0.308,1.434,0.41c1.127,0.205,2.253-0.102,3.175-0.922c0.512-0.511,1.023-0.922,1.536-1.434l2.457-2.15
			c1.741-1.434,3.175-2.663,4.506-3.687c1.229-0.922,2.662-1.536,4.198-1.74c0.512-0.103,0.922,0,1.331,0.204
			C72.269,2.845,72.473,3.459,72.269,4.073L72.269,4.073z M72.269,4.073"/>
		<path clip-path="url(#SVGID_2_)" d="M27.212,39.606c-0.307-0.409-1.023-0.512-1.434-0.204L0.384,58.755
			c-0.41,0.308-0.513,1.024-0.205,1.434C0.384,60.496,0.69,60.6,0.998,60.6c0.204,0,0.409-0.104,0.614-0.206L27.008,41.04
			C27.52,40.733,27.52,40.118,27.212,39.606L27.212,39.606z M27.212,39.606"/>
	</g>
	<path d="M30.592,44.419c-0.41-0.409-1.024-0.512-1.536-0.204L13.593,56.093c-0.409,0.308-0.512,1.024-0.204,1.435
		c0.204,0.307,0.512,0.409,0.818,0.409c0.205,0,0.41-0.103,0.615-0.205l15.564-11.879C30.796,45.546,30.898,44.83,30.592,44.419
		L30.592,44.419z M30.592,44.419"/>
	<path d="M12.364,58.243c-0.308-0.409-1.024-0.512-1.434-0.205L8.37,59.984c-0.409,0.307-0.512,1.023-0.204,1.434
		c0.204,0.307,0.512,0.409,0.819,0.409c0.204,0,0.409-0.103,0.614-0.205l2.56-1.945C12.569,59.371,12.672,58.653,12.364,58.243
		L12.364,58.243z M12.364,58.243"/>
	<path d="M8.985,46.774c-0.308-0.409-1.024-0.512-1.434-0.205l-2.561,1.946c-0.409,0.307-0.512,1.023-0.205,1.434
		c0.205,0.307,0.513,0.409,0.819,0.409c0.205,0,0.41-0.103,0.614-0.205l2.561-1.945C9.189,47.902,9.292,47.185,8.985,46.774
		L8.985,46.774z M8.985,46.774"/>
	<path d="M23.833,35.613c-0.308-0.41-1.024-0.513-1.434-0.205l-12.186,9.216c-0.409,0.308-0.512,1.024-0.205,1.435
		c0.205,0.204,0.513,0.409,0.819,0.409c0.205,0,0.41-0.103,0.614-0.205l12.186-9.216C24.038,36.739,24.141,36.022,23.833,35.613
		L23.833,35.613z M23.833,35.613"/>
</g>
<g>
	<path d="M31.537,12.83C30.09,9.456,27.63,7,24.227,5.55c-1.7-0.726-3.483-1.096-5.344-1.096c-1.862,0-3.631,0.367-5.329,1.096
		c-3.374,1.448-5.845,3.9-7.296,7.28c-0.725,1.693-1.08,3.467-1.08,5.329c0,1.861,0.355,3.65,1.08,5.343
		c1.452,3.381,3.922,5.848,7.296,7.296c1.698,0.729,3.467,1.095,5.329,1.095c1.861,0,3.644-0.369,5.344-1.095
		c3.402-1.451,5.862-3.921,7.31-7.296c0.728-1.698,1.096-3.482,1.096-5.343C32.632,16.297,32.267,14.529,31.537,12.83L31.537,12.83z
		 M29.346,24.224c-1.078,1.848-2.554,3.315-4.415,4.398c-1.847,1.078-3.872,1.622-6.049,1.622c-1.636,0-3.198-0.315-4.683-0.962
		c-1.487-0.646-2.77-1.493-3.843-2.565c-1.073-1.074-1.928-2.37-2.567-3.859c-0.637-1.482-0.946-3.062-0.946-4.698
		c0-2.177,0.535-4.192,1.606-6.034c1.076-1.85,2.552-3.318,4.399-4.399c1.845-1.081,3.857-1.622,6.034-1.622s4.2,0.544,6.049,1.622
		c1.859,1.083,3.332,2.552,4.415,4.399c1.08,1.845,1.62,3.857,1.62,6.034S30.429,22.364,29.346,24.224L29.346,24.224z
		 M29.346,24.224"/>
	<path d="M19.752,18.04v-7.777c0-0.466-0.405-0.842-0.87-0.842c-0.437,0-0.825,0.375-0.825,0.842v7.896
		c0,0.015,0.029,0.076,0.029,0.119c-0.029,0.271,0.045,0.497,0.226,0.677l4.487,4.488c0.3,0.301,0.857,0.301,1.156,0
		c0.346-0.345,0.324-0.846,0-1.171L19.752,18.04z M19.752,18.04"/>
</g>
</svg>
