<?xml version="1.0" encoding="utf-8"?>
<!-- Generator: Adobe Illustrator 23.0.0, SVG Export Plug-In . SVG Version: 6.00 Build 0)  -->
<svg version="1.1" id="Layer_1" xmlns="http://www.w3.org/2000/svg" xmlns:xlink="http://www.w3.org/1999/xlink" x="0px" y="0px"
	 viewBox="0 0 201.3 195.8" style="enable-background:new 0 0 201.3 195.8;" xml:space="preserve">
<g>
	<path d="M101.8,66.1c18.1,0,32.9-14.8,32.9-32.9s-14.8-33-32.9-33s-32.9,14.9-32.9,33S83.7,66.1,101.8,66.1L101.8,66.1z M101.8,4.8
		c15.7,0,28.4,12.7,28.4,28.4s-12.7,28.4-28.4,28.4S73.4,48.9,73.4,33.2S86.2,4.8,101.8,4.8L101.8,4.8z"/>
	<path d="M175.2,104.6c-3-34.9-42.9-35.3-44.1-35.2H69.7c-15.5,0-26.4,6-26.4,6c-17.6,10.6-17,24.4-17.1,24.8l-0.1,50.8
		c-0.1,0.7,0,6.4,3.5,10.5c2.4,2.9,5.8,4.3,10.2,4.3h19v28l89.9,0.1v-3.5c2.7,3.2,6.8,5.1,11.3,5.1c8.3,0,15.2-6.8,15.2-15.3
		L175.2,104.6z M41.8,161.3h-1.9c-2.7,0-4.9-0.8-6.4-2.3c-2.7-2.9-2.7-7.4-2.7-7.5l0.1-50.9c0.1-0.7,1.5-11.8,12.4-19.4L41.8,161.3z
		 M46.2,161.1l1.4-82.7c3.2-1.1,11.6-3.6,23.7-4.5l17.8,66.8c3.5,7.8,6.1,17.8,4.6,20.2c-0.1,0.1-0.1,0.2-0.6,0.2H46.2L46.2,161.1z
		 M170.7,180.4c0,5.9-4.8,10.7-10.7,10.7c-5.9,0-10.7-4.8-10.7-10.8v-2.2V97.7h-5.2v91.7H63.2v-23.7h39.3c7.7,0,14.1-6.3,14.1-14.1
		s-6.3-13.9-14.1-13.9h-9.7L76.1,73.9h55.1c1.5,0,37-0.1,39.6,30.9L170.7,180.4L170.7,180.4z M94.6,142.1h8c5.2,0,9.5,4.3,9.5,9.5
		c0,5.3-4.3,9.5-9.5,9.5h-4.3C99.6,155.9,96.6,147.1,94.6,142.1L94.6,142.1z"/>
</g>
</svg>
