<?xml version="1.0" encoding="utf-8"?>
<!-- Generator: Adobe Illustrator 23.0.0, SVG Export Plug-In . SVG Version: 6.00 Build 0)  -->
<svg version="1.1" id="Layer_1" xmlns="http://www.w3.org/2000/svg" xmlns:xlink="http://www.w3.org/1999/xlink" x="0px" y="0px"
	 viewBox="0 0 204.1 149.4" style="enable-background:new 0 0 204.1 149.4;" xml:space="preserve">
<g>
	<path d="M200.6,71.6h-17.2c7.2-16.3,6.4-29.5,3.7-38.4C182.4,17.3,166.7,0,143.4,0c-6.2,0-12.4,1.2-18.8,3.5
		c-11.1,4.1-18.4,8.5-21.7,10.9c-3.3-2.3-10.5-6.8-21.7-10.9C74.8,1.2,68.4,0,62.4,0c-23.3,0-39,17.3-43.7,33.2
		C16,42.7,15,57.1,24.1,75.1h-21c-1.7,0-3.1,1.4-3.1,3.1s1.4,3.1,3.1,3.1h24.6c1,1.7,2.1,3.5,3.5,5.2c20.2,29.1,64,60.7,72,62.7v0.2
		c0,0,0.2,0,0.4-0.2h0.6V149c6.8-3.3,48.9-30.5,71-62.7c2.1-2.9,3.9-5.8,5.4-8.7H201c1.7,0,3.1-1.4,3.1-3.1
		C204.1,72.8,202.4,71.6,200.6,71.6L200.6,71.6z M169.6,83c-20.6,30.1-58.4,54.3-66.6,59.6c-8.4-5.2-46-29.7-66.7-59.6l-1.2-1.7
		h28.5c1.2,0,2.3-0.6,2.9-1.7l13-25.6l20.4,52.2c0.4,1.2,1.7,1.9,2.9,1.9h0.2c1.4,0,2.5-1,2.9-2.3l17.9-61.1l9.5,30.9
		c0.4,1.2,1.4,1.9,2.5,2.1c1.2,0.2,2.3-0.4,3.1-1.4l7.6-11.1l6.4,10.9c0.6,1,1.5,1.6,2.7,1.6h17.5C171.9,79.5,170.7,81.3,169.6,83
		L169.6,83z M176.6,71.6h-19l-8-13.6c-0.6-1-1.5-1.6-2.7-1.6s-2.1,0.4-2.7,1.4l-6.6,9.7l-10.7-34.7c-0.4-1.4-1.7-2.1-3.1-2.3
		c-1.4,0-2.7,1-3.1,2.3l-18,62.3L83,45c-0.4-1.2-1.6-1.9-2.7-1.9c-1.4,0-2.3,0.6-2.9,1.7L62.1,74.9H31.2c-7.8-14.2-9.9-27.8-6.4-40
		C28.9,21.1,42.3,6.4,62.4,6.4c5.4,0,11.1,1.2,16.7,3.1c14.2,5.2,21.7,11.3,21.9,11.3c1.2,1,2.7,1,3.9,0c0,0,7.6-6,21.9-11.3
		c5.6-2.1,11.3-3.1,16.7-3.1c20,0,33.6,14.8,37.6,28.5C184.5,46.2,182.8,58.6,176.6,71.6L176.6,71.6z"/>
</g>
</svg>
