<?xml version="1.0" encoding="utf-8"?>
<!-- Generator: Adobe Illustrator 23.0.0, SVG Export Plug-In . SVG Version: 6.00 Build 0)  -->
<svg version="1.1" id="Layer_1" xmlns="http://www.w3.org/2000/svg" xmlns:xlink="http://www.w3.org/1999/xlink" x="0px" y="0px"
	 viewBox="0 0 201.3 195.8" style="enable-background:new 0 0 201.3 195.8;" xml:space="preserve">
<g>
	<path d="M169.8,55.1c-0.7,0-1.5,0-2.2,0.1c-2-30.7-27.8-55.2-59-55.2C81.3,0,57.8,18.6,51.3,44.7c-4.2-1.6-8.7-2.4-13.3-2.4
		c-20.9,0-38,17-38,38c0,20.9,17,38,38,38h131.8c17.4,0,31.6-14.2,31.6-31.5C201.3,69.3,187.2,55.1,169.8,55.1L169.8,55.1z
		 M169.8,111.9H38c-17.5,0-31.7-14.2-31.7-31.7S20.5,48.6,38,48.6c5,0,9.8,1.1,14.2,3.3c0.9,0.5,1.9,0.5,2.8,0
		c0.9-0.4,1.5-1.3,1.7-2.2c4.5-25.1,26.4-43.4,52-43.4c28.9,0,52.6,23.5,52.8,52.5c0,0.9,0.4,1.8,1.1,2.4c0.7,0.6,1.7,0.8,2.6,0.7
		c1.5-0.3,3.1-0.4,4.6-0.4c13.9,0,25.3,11.3,25.3,25.2S183.7,111.9,169.8,111.9L169.8,111.9z"/>
	<path d="M64,131.9c-1.6-0.6-3.4,0.3-4,1.9l-7.2,19.9c-0.6,1.6,0.3,3.4,1.9,4c0.3,0.1,0.7,0.2,1.1,0.2c1.3,0,2.5-0.8,3-2.1l7.2-19.9
		C66.5,134.3,65.7,132.5,64,131.9L64,131.9z"/>
	<path d="M75.6,169.8c-1.6-0.6-3.4,0.3-4,1.9l-7.2,19.9c-0.6,1.6,0.2,3.4,1.9,4c0.3,0.1,0.7,0.2,1.1,0.2c1.3,0,2.5-0.8,3-2.1
		l7.2-19.9C78.1,172.2,77.2,170.4,75.6,169.8L75.6,169.8z"/>
	<path d="M104.6,131.9c-1.6-0.6-3.4,0.3-4,1.9l-7.2,19.9c-0.6,1.6,0.3,3.4,1.9,4c0.3,0.1,0.7,0.2,1.1,0.2c1.3,0,2.5-0.8,3-2.1
		l7.2-19.9C107,134.3,106.2,132.5,104.6,131.9L104.6,131.9z"/>
	<path d="M116.1,169.8c-1.6-0.6-3.4,0.3-4,1.9l-7.2,19.9c-0.6,1.6,0.3,3.4,1.9,4c0.3,0.1,0.7,0.2,1.1,0.2c1.3,0,2.5-0.8,2.9-2.1
		l7.2-19.9C118.6,172.2,117.8,170.4,116.1,169.8L116.1,169.8z"/>
	<path d="M145.1,131.9c-1.6-0.6-3.4,0.3-4,1.9l-7.2,19.9c-0.6,1.6,0.3,3.4,1.9,4c0.4,0.1,0.7,0.2,1.1,0.2c1.3,0,2.5-0.8,3-2.1
		L147,136C147.6,134.3,146.7,132.5,145.1,131.9L145.1,131.9z"/>
</g>
</svg>
