<?xml version="1.0" encoding="utf-8"?>
<!-- Generator: Adobe Illustrator 23.0.0, SVG Export Plug-In . SVG Version: 6.00 Build 0)  -->
<svg version="1.1" id="Layer_1" xmlns="http://www.w3.org/2000/svg" xmlns:xlink="http://www.w3.org/1999/xlink" x="0px" y="0px"
	 viewBox="0 0 202.6 129.6" style="enable-background:new 0 0 202.6 129.6;" xml:space="preserve">
<style type="text/css">
	.st0{fill:none;stroke:#000000;stroke-width:4.8175;stroke-miterlimit:10;}
</style>
<g>
	<g>
		<g>
			<polygon points="77.1,68.4 56.5,26.5 84.3,42.9 94,0.6 107.1,27.1 123.6,14.8 126.7,33.9 156.7,21.1 132.5,59 128.4,56.4 
				144.2,31.7 122.9,40.8 120.1,23.4 105.3,34.4 95.7,14.9 87.5,50.4 68,38.9 81.4,66.3 			"/>
		</g>
	</g>
	<g>
		<g>
			<path d="M91.6,117.3H64.2v-4.8h22.6v-10.6c-7.6-1.4-31.9-6-36.1-7.8c-4.6-2-48.4-22.1-50.3-23l2-4.4c0.5,0.2,45.6,21,50.2,22.9
				c3.2,1.4,24,5.4,37.1,7.8l2,0.4L91.6,117.3L91.6,117.3z"/>
		</g>
	</g>
	<g>
		<g>
			<rect y="113.8" width="26" height="4.8"/>
		</g>
	</g>
	<g>
		<g>
			<path d="M46.3,129.6c-8.5,0-15.4-6.9-15.4-15.4s6.9-15.4,15.4-15.4s15.4,7,15.4,15.5S54.8,129.6,46.3,129.6z M46.3,103.7
				c-5.8,0-10.6,4.7-10.6,10.6s4.7,10.6,10.6,10.6s10.6-4.7,10.6-10.6S52.1,103.7,46.3,103.7z"/>
		</g>
	</g>
	<g>
		<g>
			<path d="M153.8,129.6c-9.2,0-16.7-7.5-16.7-16.7s7.5-16.7,16.7-16.7s16.7,7.5,16.7,16.7S163,129.6,153.8,129.6z M153.8,101
				c-6.6,0-11.9,5.3-11.9,11.9c0,6.6,5.3,11.9,11.9,11.9s11.9-5.3,11.9-11.9C165.7,106.4,160.3,101,153.8,101z"/>
		</g>
	</g>
	<g>
		<g>
			<path d="M132.8,119.3h-18.5l-0.7-1.3c-0.6-1.2-5.6-11.5-6-16.9c-0.9-12.4,6.1-17.5,9.9-18.5h0.2l40.4-7.2l44.3-33.9v39.6h-47.7
				v-0.2l-36,6.4c-0.7,0.2-7,2.5-6.2,13.4c0.2,3.3,3.2,10.1,4.9,13.7h15.5v4.9H132.8z M197.6,51.2l-32.7,25h32.7V51.2z"/>
		</g>
	</g>
	<g>
		<g>
			<rect x="174.4" y="114.2" width="26.3" height="4.8"/>
		</g>
	</g>
	<g>
		<g>
			<path class="st0" d="M108.9,104.8"/>
		</g>
	</g>
	<g>
		<g>
			<g>
				<polygon points="77.3,67.8 56.7,25.9 84.5,42.3 94.2,0 107.3,26.5 123.8,14.2 126.9,33.3 156.9,20.5 132.7,58.4 128.6,55.8 
					144.4,31.1 123.1,40.2 120.3,22.8 105.5,33.8 95.9,14.3 87.7,49.8 68.2,38.3 81.6,65.7 				"/>
			</g>
		</g>
		<g>
			<g>
				<path d="M91.8,116.7H64.4v-4.8H87v-10.6c-7.6-1.4-31.9-6-36.1-7.8c-4.6-2-48.4-22.1-50.3-23l2-4.4c0.5,0.2,45.6,21,50.2,22.9
					c3.2,1.4,24,5.4,37.1,7.8l2,0.4L91.8,116.7L91.8,116.7z"/>
			</g>
		</g>
		<g>
			<g>
				<rect x="0.2" y="113.2" width="26" height="4.8"/>
			</g>
		</g>
		<g>
			<g>
				<path d="M46.5,129c-8.5,0-15.4-6.9-15.4-15.4S38,98.2,46.5,98.2s15.4,7,15.4,15.5S55,129,46.5,129z M46.5,103.1
					c-5.8,0-10.6,4.7-10.6,10.6c0,5.9,4.7,10.6,10.6,10.6s10.6-4.7,10.6-10.6C57.1,107.8,52.3,103.1,46.5,103.1z"/>
			</g>
		</g>
		<g>
			<g>
				<path d="M154,129c-9.2,0-16.7-7.5-16.7-16.7s7.5-16.7,16.7-16.7s16.7,7.5,16.7,16.7S163.2,129,154,129z M154,100.4
					c-6.6,0-11.9,5.3-11.9,11.9c0,6.6,5.3,11.9,11.9,11.9s11.9-5.3,11.9-11.9C165.9,105.8,160.5,100.4,154,100.4z"/>
			</g>
		</g>
		<g>
			<g>
				<path d="M133,118.7h-18.5l-0.7-1.3c-0.6-1.2-5.6-11.5-6-16.9c-0.9-12.4,6.1-17.5,9.9-18.5h0.2l40.4-7.2l44.3-33.9v39.6h-47.7
					v-0.2l-36,6.4c-0.7,0.2-7,2.5-6.2,13.4c0.2,3.3,3.2,10.1,4.9,13.7h15.5v4.9H133z M197.8,50.6l-32.7,25h32.7V50.6z"/>
			</g>
		</g>
		<g>
			<g>
				<rect x="174.6" y="113.6" width="26.3" height="4.8"/>
			</g>
		</g>
		<g>
			<g>
				<path class="st0" d="M109.1,104.2"/>
			</g>
		</g>
	</g>
</g>
</svg>
