<?xml version="1.0" encoding="UTF-8"?> <svg xmlns="http://www.w3.org/2000/svg" xmlns:xlink="http://www.w3.org/1999/xlink" viewBox="0 0 420 450"><defs><style>.cls-1{isolation:isolate;}.cls-2{fill:#faaf40;}.cls-3{fill:#4d4d4d;}.cls-4{fill:#1a1a1a;}.cls-5{fill:#7f7f7f;}.cls-6{fill:gray;}.cls-7{fill:#999;}.cls-8{fill:#b3b3b3;}.cls-29,.cls-9{fill:none;stroke-linecap:round;}.cls-9{stroke:#717e80;stroke-linejoin:round;stroke-width:6.32px;}.cls-10,.cls-14,.cls-15,.cls-17{fill:#ffb888;}.cls-11{fill:#ef9c62;opacity:0.6;}.cls-11,.cls-15,.cls-16,.cls-17,.cls-23{mix-blend-mode:multiply;}.cls-12{fill:url(#linear-gradient);}.cls-13{fill:url(#linear-gradient-2);}.cls-14,.cls-15,.cls-23{opacity:0.3;}.cls-14{mix-blend-mode:screen;}.cls-16,.cls-24{fill:#db5a21;}.cls-16{opacity:0.7;}.cls-17{opacity:0.4;}.cls-18{fill:#fff;}.cls-19{fill:#cc6917;}.cls-20{fill:#6d2a00;}.cls-21{fill:#93360c;}.cls-22{fill:url(#New_Gradient_Swatch_8);}.cls-23{fill:url(#New_Gradient_Swatch_8-2);}.cls-25{fill:#6d6e70;}.cls-26{fill:#ffdd15;}.cls-27{fill:#5a3a00;}.cls-28{fill:#c1b49a;}.cls-29{stroke:#5a4a42;stroke-miterlimit:10;stroke-width:3.47px;}</style><linearGradient id="linear-gradient" x1="-816.02" y1="256.62" x2="-805.65" y2="256.62" gradientTransform="translate(572.76 -459.41) rotate(-33.41)" gradientUnits="userSpaceOnUse"><stop offset="0" stop-color="#ffb888"></stop><stop offset="0.8" stop-color="#f59766"></stop><stop offset="0.91" stop-color="#f39261"></stop></linearGradient><linearGradient id="linear-gradient-2" x1="-764.85" y1="256.62" x2="-754.48" y2="256.62" gradientTransform="translate(572.76 -459.41) rotate(-33.41)" gradientUnits="userSpaceOnUse"><stop offset="0.09" stop-color="#f39261"></stop><stop offset="0.2" stop-color="#f59766"></stop><stop offset="1" stop-color="#ffb888"></stop></linearGradient><linearGradient id="New_Gradient_Swatch_8" x1="-815.23" y1="236.22" x2="-756.25" y2="236.22" gradientTransform="translate(572.76 -459.41) rotate(-33.41)" gradientUnits="userSpaceOnUse"><stop offset="0" stop-color="#963505"></stop><stop offset="1" stop-color="#4f1403"></stop></linearGradient><linearGradient id="New_Gradient_Swatch_8-2" x1="-815.23" y1="238.25" x2="-756.25" y2="238.25" xlink:href="#New_Gradient_Swatch_8"></linearGradient></defs><title>web schade icon</title><g class="cls-1"><g id="Vrstva_1" data-name="Vrstva 1"><path class="cls-2" d="M325.65,86.1c-62,38.2-78.47,30.83-96.64-40-18.17,70.86-34.62,78.23-96.64,40,38.2,62,30.84,78.47-40,96.64,70.87,18.17,78.23,34.62,40,96.64,62-38.2,78.47-30.84,96.64,40,18.17-70.87,34.62-78.23,96.64-40-38.2-62-30.84-78.47,40-96.64C294.81,164.57,287.45,148.12,325.65,86.1Z"></path><polygon class="cls-3" points="173.94 258.29 187.13 257.07 184.78 247.95 173.94 258.29"></polygon><polygon class="cls-3" points="191.17 245.33 192.6 250.88 191.17 245.33 191.17 245.33"></polygon><polygon class="cls-4" points="204.36 244.11 191.17 245.33 192.6 250.88 194.04 256.43 382.84 76.28 382.33 74.29 204.36 244.11"></polygon><polygon class="cls-3" points="194.04 256.43 194.04 256.43 207.22 255.21 396.03 75.05 382.84 76.28 194.04 256.43"></polygon><polygon class="cls-5" points="207.22 255.21 208.91 261.73 397.71 81.58 396.03 75.05 207.22 255.21"></polygon><polygon class="cls-6" points="202.68 237.58 204.36 244.11 382.33 74.29 393.17 63.95 391.48 57.43 202.68 237.58"></polygon><polygon class="cls-7" points="194.04 256.43 194.04 256.43 192.6 250.88 191.17 245.33 204.36 244.11 202.68 237.58 169.4 240.67 171.08 247.19 184.27 245.97 184.78 247.95 187.13 257.07 173.94 258.29 175.63 264.82 208.91 261.73 208.91 261.73 207.22 255.21 194.04 256.43"></polygon><polygon class="cls-8" points="169.4 240.67 202.68 237.58 391.48 57.43 358.2 60.51 169.4 240.67"></polygon><polygon class="cls-4" points="316.32 262.54 329.31 265.12 319.6 253.71 316.32 262.54"></polygon><polygon class="cls-3" points="313.52 250.44 311.52 255.81 313.52 250.44 313.52 250.44"></polygon><polygon class="cls-3" points="141.08 60.55 140.37 62.46 309.52 261.19 311.52 255.81 313.52 250.44 300.53 247.86 141.08 60.55"></polygon><polygon class="cls-7" points="127.38 59.88 296.53 258.61 309.52 261.19 309.52 261.19 140.37 62.46 127.38 59.88"></polygon><polygon class="cls-5" points="125.03 66.2 294.18 264.92 296.53 258.61 127.38 59.88 125.03 66.2"></polygon><polygon class="cls-3" points="131.37 49.14 141.08 60.55 300.53 247.86 302.88 241.54 133.72 42.82 131.37 49.14"></polygon><polygon class="cls-8" points="300.53 247.86 313.52 250.44 311.52 255.81 309.52 261.19 309.52 261.19 296.53 258.61 294.18 264.92 294.18 264.92 326.96 271.43 329.31 265.12 316.32 262.54 319.6 253.71 320.32 251.79 333.31 254.37 335.66 248.06 302.88 241.54 300.53 247.86"></polygon><polygon class="cls-5" points="133.72 42.82 302.88 241.54 335.66 248.06 166.5 49.33 133.72 42.82"></polygon><polygon class="cls-4" points="144 170.57 157.34 172.4 155.64 162.94 144 170.57"></polygon><polygon class="cls-3" points="162.26 161.84 163.29 167.6 162.26 161.84 162.26 161.84"></polygon><polygon class="cls-3" points="175.59 163.66 162.26 161.84 163.29 167.6 164.32 173.36 393.7 21.08 393.33 19.02 175.59 163.66"></polygon><polygon class="cls-7" points="164.32 173.36 164.32 173.36 177.66 175.18 407.03 22.9 393.7 21.08 164.32 173.36"></polygon><polygon class="cls-5" points="177.66 175.18 178.87 181.96 408.25 29.68 407.03 22.9 177.66 175.18"></polygon><polygon class="cls-6" points="174.38 156.89 175.59 163.66 393.33 19.02 404.97 11.38 403.75 4.61 174.38 156.89"></polygon><polygon class="cls-8" points="164.32 173.36 164.32 173.36 163.29 167.6 162.26 161.84 175.59 163.66 174.38 156.89 140.72 152.28 141.94 159.05 155.27 160.88 155.64 162.94 157.34 172.4 144 170.57 145.22 177.35 178.87 181.96 178.87 181.96 177.66 175.18 164.32 173.36"></polygon><polygon class="cls-7" points="140.72 152.28 174.38 156.89 403.75 4.61 370.1 0 140.72 152.28"></polygon><line class="cls-9" x1="221.2" y1="2.33" x2="221.2" y2="135.13"></line><line class="cls-9" x1="251.16" y1="8.81" x2="251.16" y2="88.16"></line><line class="cls-9" x1="279.09" y1="1.22" x2="279.09" y2="106.89"></line><g id="neck"><path class="cls-10" d="M76.82,201.81,64,209.21c3.65,5.38,13.2,14.31,6.32,20.31,5.35,5.47,24.49-1.43,22-15.6C85.58,217.68,80.2,208.44,76.82,201.81Z"></path><path class="cls-11" d="M86.17,214c-3.9-2.08-7.08-7.7-9.35-12.16L64,209.21c1.54,2.27,4.12,5.17,6.08,8.21C73.68,217.65,80.63,216.35,86.17,214Z"></path></g><g id="ears"><path class="cls-12" d="M38.71,196.16C31.88,191.6,26.3,195,32,202.73c2.48,3.36,16.24,9.5,12.68.44Z"></path><path class="cls-13" d="M74.63,172.46c-1.5-8.07,3.83-11.85,8.68-3.59,2.12,3.6,2.34,18.67-4.58,11.83Z"></path></g><path id="face" class="cls-10" d="M61.49,151.91c-21.07,4.81-36.27,28-36.27,28,7.32,11.79,22.69,32.46,25.9,34.55,2.61,1.69,19.13,1.73,24.8-1.88,5.5-3.5,11.35-20.4,10.4-23.06C82.67,179.4,68.47,159.55,61.49,151.91Z"></path><path id="highlight" class="cls-14" d="M25,179.75c7.31,11.79,22.69,32.46,25.9,34.55,1.69,1.1,9.27,1.5,15.92.65h0c-4.77,0-10.39.05-13.69-2.16s-19.56-22.17-25-37.24C26.09,178.08,25,179.75,25,179.75Z"></path><path id="shadow" class="cls-15" d="M28.43,175.13l.85,3.39c14-3.54,29.18-19.93,32-18.71,4.47,1.92,22.31,26.64,22.76,31.68.6,6.66-2.76,14.65-8.34,20.93,5.5-3.5,11.35-20.4,10.39-23.06-3.65-10.14-17.85-30-24.83-37.63C46.15,155.18,34.06,168.1,28.43,175.13Z"></path><g id="nose"><path class="cls-16" d="M59.77,196.93a6.21,6.21,0,0,0,4.68-.84c.84-.46,2.81-3.45,3.14-3.3l.69-.27c-1,.9-1.48,3.45-3,4.6-1.27,1-3,.74-4.57.49C60.48,197.52,60.25,197.07,59.77,196.93Z"></path><path class="cls-14" d="M57.11,183.87c1.72,1.76,8.83,6.73,9.08,7.37.19.49-1.71,4.23-2.67,2.72C62.41,192.24,57.11,183.87,57.11,183.87Z"></path><path class="cls-17" d="M59.09,197.63c-.2-.56-2.36-8.09-2.46-8.28.47.36,3.76,6.7,4.95,7.3a5.71,5.71,0,0,0,3.15,0c1.43-.88,2.48-3.32,3.55-4.11-.31.41-1.74,4.35-2.21,5.07a4.1,4.1,0,0,1-2.76,1.81C62.41,199.71,59.72,199.52,59.09,197.63Z"></path></g><g id="eye"><ellipse class="cls-18" cx="65.13" cy="178.81" rx="3.3" ry="4.11" transform="translate(-80.68 56.52) rotate(-30)"></ellipse><path class="cls-19" d="M62.45,176.52a2.38,2.38,0,1,0,4.22-.42,2.4,2.4,0,0,0-1.75-1.1A12.07,12.07,0,0,0,62.45,176.52Z"></path><path class="cls-20" d="M66,176.53a1.55,1.55,0,0,1-.47,2.16,1.58,1.58,0,1,1,.47-2.16Z"></path><path class="cls-18" d="M63.67,177.76a.66.66,0,0,1-.88.34.68.68,0,0,1-.34-.89.65.65,0,0,1,.88-.33A.67.67,0,0,1,63.67,177.76Z"></path><path class="cls-20" d="M67.89,174.32c-.84-.8-6,.55-7.62,4.61-.06.36,0,1.19.14,1.15.89-2.62,6.39-5.92,8.19-5.16Z"></path></g><path id="eyebrow" class="cls-21" d="M66.42,169.56c-2.61-.53-9-.05-10.25,1.41a4,4,0,0,0-.9,2.65c.92.81,8.1-2.21,12.57-1.28C68,170.47,66.68,170.11,66.42,169.56Z"></path><g id="eyes"><g id="eye-2" data-name="eye"><path class="cls-18" d="M42.14,191c1.43-2.13,7.31-7.42,7.79-5l-1.37,1.95A39.49,39.49,0,0,0,44,192c-.2.08-.83.22-1.19.3A1.38,1.38,0,0,1,42.14,191Z"></path><path class="cls-20" d="M42.48,191.62c-.52-1,2.25-5.59,6.59-6,.37.05,1.15.34,1.07.47-2.76.1-7.5,4.43-7.29,6.37Z"></path></g><path id="eyebrow-2" data-name="eyebrow" class="cls-21" d="M37.23,187.7c1-2.47,4.93-7.56,6.82-7.77.89-.1,2.47.3,2.7.71.17,1.21-6.3,5.54-8,9.78C37.13,189.5,37.55,188.22,37.23,187.7Z"></path></g><g id="hair"><path id="hair-2" data-name="hair" class="cls-22" d="M59.43,140.38c-5,5.31-10.21,5.16-21.23,9.89-9.51,4.08-21.89,15-21.63,21.35,1.84,1.45,3.27,4.21,1.26,7.69-.68,1.26,10.84,13.55,13.81,15,1.63-.46,5.75,4.57,8.61,7.36,0,0-11.95-20.62-11.65-22.88C49,170.53,56.29,157.53,62,155.39c5.72,4.38,11,15.12,16.18,20.32-1.4-4.48-3.69-9.6-2.51-10.45C74.32,160.66,70.21,147.68,59.43,140.38Z"></path><path id="shadow-2" data-name="shadow" class="cls-23" d="M18,180.06c1.5,3,11,13,13.64,14.26,1.63-.46,5.75,4.57,8.61,7.36,0,0-11.95-20.62-11.65-22.88C49,170.53,56.29,157.53,62,155.39c5.72,4.38,11,15.12,16.18,20.32-1.4-4.48-3.69-9.6-2.51-10.45-1.38-4.6-5.49-17.58-16.27-24.88,5.64,5.28-3.22,12.41-2.87,5.06-2.41,2.69-9.36,12.37-12.15,10.44-1.42-.72.22-4.41,2.05-5.66-7.94.54-17.21,24.68-23.2,20-.13,5,2.66,12,.74,13.57-1.79,1.29-5.95-3.55-6.17-4.46A3.66,3.66,0,0,0,18,180.06Z"></path></g><path class="cls-24" d="M67,204.87s2.71-2.94,4.69-3A16.46,16.46,0,0,0,67,204.87Z"></path><path class="cls-18" d="M68.22,198.69s-6.68,2.11-6.73,5.76c.4,5.09,7.43,2.37,7.43,2.37C74,204.68,73.7,201,73.7,201S74.24,196.7,68.22,198.69Z"></path><path class="cls-25" d="M32.66,180.1l-4.52,6a72.11,72.11,0,0,0,5.3,13.69,41.33,41.33,0,0,0,8.3,11.23c6.31,5.56,15.48,6.27,21.26,3.27-7.22-.78-13.4-1.49-18.89-8.18C39.33,200.31,34.62,188,32.66,180.1Z"></path><path class="cls-26" d="M59.1,140.87c-13.62-7.25-30.79,1.41-40.1,11.19a25.6,25.6,0,0,0-6.43,12.87c-.82,4.94,1.11,10.91,2.53,15.64,0,0,2.6,9.38,8.42,16.43l10.61-14.8c13.63-1.44,45.24-26.48,45.24-26.48l-8.54-2.08S64.35,143.66,59.1,140.87Z"></path><path class="cls-2" d="M69,154.39h0c-.07,0-6.36,3.07-13.6,7.47-9.74,5.93-16.47,11.38-20,16.21a.48.48,0,0,0,.08.65.46.46,0,0,0,.45.06.43.43,0,0,0,.18-.15c8.24-11.3,33-23.28,33.25-23.4a.46.46,0,0,0,.21-.61A.44.44,0,0,0,69,154.39Z"></path><path class="cls-26" d="M30.78,141c-9.47,3.68-11.5,10.14-11.5,10.14,7.52-3.54,17.51,5.77,17.51,5.77l15.6-9.28C45.63,138,30.78,141,30.78,141Z"></path><path class="cls-2" d="M39.09,140.26a31.18,31.18,0,0,0-8.4.29l-.08,0c-9.54,3.72-11.67,10.16-11.75,10.43a.46.46,0,0,0,.12.49.43.43,0,0,0,.49.08c7.16-3.38,16.92,5.61,17,5.7a.45.45,0,0,0,.48.08.33.33,0,0,0,.15-.12.47.47,0,0,0,0-.65,33.57,33.57,0,0,0-6-4.28c-4.14-2.27-7.89-2.94-10.93-2a14.75,14.75,0,0,1,1.72-2.6,21.75,21.75,0,0,1,9-6.27c.8-.15,14.77-2.56,21.13,6.46a.43.43,0,0,0,.62.11.47.47,0,0,0,.1-.65C49.91,143.34,45.18,140.88,39.09,140.26Z"></path><path class="cls-2" d="M25.59,155a27.58,27.58,0,0,0-5-1.91.43.43,0,0,0-.54.33.47.47,0,0,0,.33.56c.09,0,8.39,2.23,12,7.7a92.08,92.08,0,0,0-6.37,6.67c-4.66,5.41-7.6,10.16-8.74,14.12a.46.46,0,0,0,.3.57.39.39,0,0,0,.3,0,.45.45,0,0,0,.25-.29c2.63-9.16,15-20.51,15.14-20.63a.47.47,0,0,0,.08-.59C31.45,158.36,28.08,156.23,25.59,155Z"></path><path class="cls-18" d="M48.25,139c-.71-.2-1.16-.3-1.16-.3Z"></path><path class="cls-2" d="M60.54,141.8l-3.31,1.69c-2.63-3.61-9.74-5.21-10-5.28a.45.45,0,0,0-.53.35.47.47,0,0,0,.35.55c.07,0,7.5,1.69,9.71,5.21a.44.44,0,0,0,.55.18h0l3.66-1.86a.46.46,0,0,0,.19-.62A.44.44,0,0,0,60.54,141.8Z"></path><path class="cls-10" d="M120.45,117.46c-.25-1-1-4.59-1.49-5.73a9.42,9.42,0,0,1-.46-1.62L117.92,98a1.49,1.49,0,0,0-1.56-1.42l-.67,0a1.5,1.5,0,0,0-1.42,1.56l.49,10.32a9.65,9.65,0,0,0-1.28.06l-2.89-11.15a1.51,1.51,0,0,0-1.82-1.07l-.65.17a1.49,1.49,0,0,0-1.07,1.82l2.87,11.06c-.54.2-1.11.44-1.7.72L103.86,99a1.49,1.49,0,0,0-1.93-.84l-.63.25a1.49,1.49,0,0,0-.84,1.93L105,111.8c-.68.34-1.27.62-1.78.85L97,102.8a1.49,1.49,0,0,0-2.06-.47l-.56.36a1.49,1.49,0,0,0-.47,2.06l6.85,10.81a1.08,1.08,0,0,0,.16.2c0,.09,0,.18.08.28.63,2.24.13,3.16.46,4.79l-7-1.27a2.37,2.37,0,0,0-2.06,2.64c0,2,2.17,2.16,2.17,2.16l9.08,1.93a9.11,9.11,0,0,0,6.58,4.11l1.33,3.34,10.65-5.41-1.38-3.46C122.23,122.34,121.17,120.46,120.45,117.46Z"></path><polygon class="cls-25" points="87.86 214.88 86.13 211.57 71.03 220.69 72.58 223.88 68.93 227.7 102.65 259.12 90.4 214.27 87.86 214.88"></polygon><path class="cls-27" d="M241.26,319.87a32.18,32.18,0,0,0-9.87,1.75c-3.31,1.33-5.85,4.46-8.63,6.67a13.42,13.42,0,0,0-1.69,1.5c-1.61,1.77-2.08,3.71-.21,5.45,3.59,3.33,13.39,3.09,21.91-.53s12.5-9.24,8.92-12.57C249.06,319.7,244.61,319.64,241.26,319.87Z"></path><path class="cls-27" d="M133.64,397.9c-3.14-1.15-9.68-2.76-10.73,1.61-1.21,5.06,4.13,14,11.92,20s15.09,6.76,16.3,1.71c1.38-5.75-4-12.37-7.61-16.15C140.7,402.16,137.5,399.33,133.64,397.9Z"></path><path class="cls-28" d="M229.89,322.3,194.48,267l-51.35,12.69-2.13.18L96.6,299.83l4.05,5.09.12-.08,13.94,17.3,24.66,33.1-14.7,41.29,0,.22a7.5,7.5,0,0,0,5.34,4.49c5,1.29,6.48,1.16,8-.63a1.9,1.9,0,0,0,.19-.21l22.84-50-19.76-46.72,44.17-12.21,33.74,40.29.26.34a20.92,20.92,0,0,0,6.25-2.53c4.13-2.57,4.56-3.9,4.37-7Z"></path><polygon class="cls-28" points="124.47 254.9 120.81 237.77 117.2 224.01 116.86 222.26 139.93 179.18 129.16 133.94 124.23 132.24 122.11 127.29 110.79 132.92 113.1 137.11 111.7 142.7 119.61 178.72 106.49 202.41 89.56 212.74 88.56 228.31 70.36 224.64 52.81 237.53 65.42 262.21 82.25 285.98 98.91 301.15 142.21 281.36 139.04 271.16 124.47 254.9"></polygon><polygon class="cls-29" points="105.76 236.75 107.66 239.79 116.97 232.8 115.71 229.38 105.76 236.75"></polygon><polyline class="cls-29" points="66.56 228.49 85.62 236.03 88.52 229.81"></polyline><polyline class="cls-29" points="90.48 227.74 99.7 225.44 94.53 209.95"></polyline><path class="cls-29" d="M90.61,231.38s8.32,21.75,13.59,29.17A292.7,292.7,0,0,0,127,286.23"></path><path class="cls-29" d="M98.91,301.15s23.42-10.35,28.7-14.58c0,0,10.67-7.44,12.57-10.71"></path><path class="cls-29" d="M101.45,304.19s17.1-4.41,29.61-13.89c0,0,8.55-6.2,10.24-9.65"></path><line class="cls-29" x1="113.55" y1="136.58" x2="123.44" y2="131.73"></line><line class="cls-29" x1="115.48" y1="136.07" x2="115.94" y2="140.46"></line><line class="cls-29" x1="120.42" y1="133.57" x2="124.14" y2="137.01"></line><path class="cls-10" d="M55,336.2l-8.38-4a9.09,9.09,0,0,0-5.44-5.52l-.52-3.57-11.62,2.79.54,3.68c-2.05,2.12-1.46,4.19-1.45,7.28,0,1.06,0,4.7.12,5.91a9.58,9.58,0,0,1,.06,1.69l-2.26,11.94a1.49,1.49,0,0,0,1.19,1.74l.66.13a1.5,1.5,0,0,0,1.74-1.19l1.92-10.15c.39.1.81.18,1.27.25l.22,11.51a1.49,1.49,0,0,0,1.52,1.46h.67a1.49,1.49,0,0,0,1.46-1.52l-.22-11.42c.58-.07,1.18-.17,1.82-.31L40,358.67a1.5,1.5,0,0,0,1.68,1.27l.67-.1a1.48,1.48,0,0,0,1.26-1.68L41.88,346c.75-.18,1.39-.31,1.93-.42l3.78,11a1.5,1.5,0,0,0,1.89.93l.64-.22a1.5,1.5,0,0,0,.93-1.9L46.9,343.3a1.47,1.47,0,0,0-.1-.22,2.71,2.71,0,0,1,0-.29c-.1-2.32.6-3.11.66-4.77L54,340.9c2.26.31,2.62-2.09,2.62-2.09C57.14,336.89,55,336.2,55,336.2Z"></path><polygon class="cls-28" points="23.57 272.31 23.52 318.81 27.91 321.62 28.82 326.93 41.14 324.08 39.87 319.47 42.54 314.35 43.22 277.49 68.32 258.05 52.81 237.53 23.57 272.31"></polygon><line class="cls-29" x1="39.31" y1="319.88" x2="28.56" y2="322.3"></line><line class="cls-29" x1="37.31" y1="319.92" x2="37.89" y2="315.55"></line><line class="cls-29" x1="31.93" y1="321.21" x2="29.11" y2="317"></line><path class="cls-18" d="M84.36,165c-2.26.7-3.38,3.55-2.51,6.38s3.42,4.55,5.68,3.85,3.38-3.56,2.51-6.38S86.62,164.28,84.36,165Z"></path></g></g></svg> 