<?xml version="1.0" encoding="UTF-8"?> <svg xmlns="http://www.w3.org/2000/svg" xmlns:xlink="http://www.w3.org/1999/xlink" viewBox="0 0 420 450"><defs><style>.cls-1{isolation:isolate;}.cls-2{fill:gray;}.cls-17,.cls-2,.cls-37,.cls-8,.cls-9{opacity:0.3;}.cls-11,.cls-12,.cls-17,.cls-2,.cls-34,.cls-5,.cls-52,.cls-53,.cls-54,.cls-55,.cls-9{mix-blend-mode:multiply;}.cls-3{fill:#cc3354;}.cls-12,.cls-4,.cls-8,.cls-9{fill:#ffb888;}.cls-5{fill:#ef9c62;opacity:0.6;}.cls-6{fill:url(#linear-gradient);}.cls-7{fill:url(#linear-gradient-2);}.cls-35,.cls-36,.cls-37,.cls-8{mix-blend-mode:screen;}.cls-10{fill:#fff;}.cls-11,.cls-18{fill:#db5a21;}.cls-11{opacity:0.7;}.cls-12,.cls-34,.cls-36{opacity:0.4;}.cls-13{fill:#cc6917;}.cls-14{fill:#6d2a00;}.cls-15{fill:#93360c;}.cls-16{fill:url(#New_Gradient_Swatch_8);}.cls-17{fill:url(#New_Gradient_Swatch_8-2);}.cls-19{fill:#ffae85;}.cls-20{fill:#ffb65f;}.cls-21{fill:#ff9c52;}.cls-22{fill:#e0445e;}.cls-23{fill:#ffcd9c;}.cls-24{fill:#7c4c4c;}.cls-25{fill:#4b6387;}.cls-26{fill:#30435e;}.cls-27{fill:#3d5372;}.cls-28{fill:#ffecc5;}.cls-29{fill:#774a4a;}.cls-30{fill:#a05f5f;}.cls-31{fill:#4f2f2f;}.cls-32{fill:#97aac6;}.cls-33{fill:url(#NovÈ_polÌËko_p_echodu_2);}.cls-34{fill:url(#NovÈ_polÌËko_p_echodu_2-2);}.cls-35,.cls-54,.cls-55{opacity:0.5;}.cls-35{fill:url(#linear-gradient-3);}.cls-36{fill:url(#NovÈ_polÌËko_p_echodu_2-3);}.cls-37{fill:url(#NovÈ_polÌËko_p_echodu_2-4);}.cls-38{fill:#89c9c3;}.cls-39{fill:#61aaa1;}.cls-40{fill:#b2eae4;}.cls-41{fill:#8fd1c7;}.cls-42{fill:#4c877f;}.cls-43{fill:#5e3c3c;}.cls-44{fill:#935a5a;}.cls-45{fill:#ffa350;}.cls-46{fill:#ff934a;}.cls-47{fill:#ff8643;}.cls-48{fill:#f9e0b7;}.cls-49{fill:#f4c7a2;}.cls-50{fill:#bcede7;}.cls-51{fill:#e0adad;}.cls-52,.cls-53{opacity:0.1;}.cls-52{fill:url(#radial-gradient);}.cls-53{fill:url(#radial-gradient-2);}.cls-54{fill:#ffa161;}.cls-55{fill:#fc8952;}.cls-56{fill:#a84615;}</style><linearGradient id="linear-gradient" x1="-746.88" y1="53.2" x2="-733.97" y2="53.2" gradientTransform="translate(847.71 14.18) rotate(-0.52)" gradientUnits="userSpaceOnUse"><stop offset="0" stop-color="#ffb888"></stop><stop offset="0.8" stop-color="#f59766"></stop><stop offset="0.91" stop-color="#f39261"></stop></linearGradient><linearGradient id="linear-gradient-2" x1="-683.18" y1="53.2" x2="-670.26" y2="53.2" gradientTransform="translate(847.71 14.18) rotate(-0.52)" gradientUnits="userSpaceOnUse"><stop offset="0.09" stop-color="#f39261"></stop><stop offset="0.2" stop-color="#f59766"></stop><stop offset="1" stop-color="#ffb888"></stop></linearGradient><linearGradient id="New_Gradient_Swatch_8" x1="-745.9" y1="27.8" x2="-672.46" y2="27.8" gradientTransform="translate(847.71 14.18) rotate(-0.52)" gradientUnits="userSpaceOnUse"><stop offset="0" stop-color="#963505"></stop><stop offset="1" stop-color="#4f1403"></stop></linearGradient><linearGradient id="New_Gradient_Swatch_8-2" x1="-745.9" y1="30.33" x2="-672.46" y2="30.33" xlink:href="#New_Gradient_Swatch_8"></linearGradient><linearGradient id="NovÈ_polÌËko_p_echodu_2" x1="-917.47" y1="39.5" x2="-945.4" y2="189.36" gradientTransform="translate(1201.54 0.21) rotate(0.01)" gradientUnits="userSpaceOnUse"><stop offset="0" stop-color="#6d1d04"></stop><stop offset="1" stop-color="#9e4a01"></stop></linearGradient><linearGradient id="NovÈ_polÌËko_p_echodu_2-2" x1="-965.83" y1="117.47" x2="-894.93" y2="117.47" xlink:href="#NovÈ_polÌËko_p_echodu_2"></linearGradient><linearGradient id="linear-gradient-3" x1="-936.12" y1="36.56" x2="-963.95" y2="185.91" gradientTransform="translate(1201.54 0.21) rotate(0.01)" gradientUnits="userSpaceOnUse"><stop offset="0" stop-color="#6d1d04"></stop><stop offset="0.58" stop-color="#9e4a01"></stop><stop offset="1" stop-color="#6d1d04"></stop></linearGradient><linearGradient id="NovÈ_polÌËko_p_echodu_2-3" x1="-953.51" y1="62.51" x2="-910.6" y2="62.51" xlink:href="#NovÈ_polÌËko_p_echodu_2"></linearGradient><linearGradient id="NovÈ_polÌËko_p_echodu_2-4" x1="-953.43" y1="57.98" x2="-913.46" y2="57.98" xlink:href="#NovÈ_polÌËko_p_echodu_2"></linearGradient><radialGradient id="radial-gradient" cx="4945.17" cy="-4.55" r="11.68" gradientTransform="matrix(-0.81, 0.02, 0.02, 0.81, 4261.22, -16.43)" gradientUnits="userSpaceOnUse"><stop offset="0" stop-color="#f42706"></stop><stop offset="0.84" stop-color="#fff"></stop></radialGradient><radialGradient id="radial-gradient-2" cx="-563.71" cy="95.08" r="9.29" gradientTransform="translate(854.07 0.99) rotate(0.01)" xlink:href="#radial-gradient"></radialGradient></defs><title>web schade icon</title><g class="cls-1"><g id="Vrstva_1" data-name="Vrstva 1"><path id="shadow_beneath" data-name="shadow beneath" class="cls-2" d="M399.49,422.22c0,4-84.84,7.18-189.49,7.17s-189.49-3.23-189.49-7.2S105.35,415,210,415,399.49,418.25,399.49,422.22Z"></path><path class="cls-3" d="M127.3,120.33l13.78,15.3,13.12-13.07S138.85,114.55,127.3,120.33Z"></path><g id="neck"><path class="cls-4" d="M148.8,101.29l-18.36-.9c.17,8.09,4.11,23.89-7.13,25.5,1.89,9.33,26.57,15.07,33.58-1.42C147.23,123.81,147.85,110.51,148.8,101.29Z"></path><path class="cls-5" d="M150.36,120.33c-2.68-4.81-2.2-12.84-1.56-19l-18.36-.9c.07,3.41.81,8.19.8,12.7C134.8,115.73,143,119.07,150.36,120.33Z"></path></g><g id="ears"><path class="cls-6" d="M112.79,69.61c-4.06-9.38-12.2-9.58-11.47,2.32.32,5.2,10.55,20.92,13,9Z"></path><path class="cls-7" d="M166.36,69.13c3.89-9.45,12-9.8,11.51,2.12-.23,5.2-10.18,21.1-12.8,9.27Z"></path></g><path id="face" class="cls-4" d="M166.52,38.76c-25.28-9.22-56.86,4.77-56.86,4.77-.33,17.27,1.77,49.28,3.72,53.63,1.58,3.53,18.82,14.74,27.19,14.8,8.12.07,25.66-13.64,26.46-17.07C170.07,81.82,168.65,51.47,166.52,38.76Z"></path><path id="highlight" class="cls-8" d="M109.54,43.19c-.32,17.27,1.77,49.28,3.72,53.63,1,2.29,8.68,7.83,16.2,11.45h0c-5-3.19-10.89-7-12.85-11.52-1.86-4.34-5.46-36.4-1-55.86C111.82,42.19,109.54,43.19,109.54,43.19Z"></path><path id="shadow" class="cls-9" d="M116.26,40.68l-1.4,4.12c17,5.76,44-1.1,46.1,2.08,3.38,5,5.3,42.94,2.37,48.51-3.88,7.37-12.8,13.45-22.88,16.23,8.13.06,25.67-13.64,26.46-17.07,3.05-13.07,1.62-43.42-.51-56.13C148.27,31.8,126.9,37.13,116.26,40.68Z"></path><path id="teeth" class="cls-10" d="M140.69,95.71a84.93,84.93,0,0,1,9.47.23l-1.66-.8a17,17,0,0,0-8.14-2c-4.73,0-9.13,3.1-10.65,4.24C131,96.75,135.91,95.76,140.69,95.71Z"></path><g id="nose"><path class="cls-11" d="M134.28,84.66a7.7,7.7,0,0,0,5.46,2.28c1.18.1,5.27-1.7,5.51-1.32l.91.19c-1.65.26-3.88,2.6-6.2,2.81-2,.17-3.63-1.25-5.1-2.57C134.62,85.76,134.68,85.13,134.28,84.66Z"></path><path class="cls-8" d="M140.33,69.21c.61,3,4.68,13,4.51,13.85-.14.64-4.65,3.26-4.64,1C140.21,81.54,140.33,69.21,140.33,69.21Z"></path><path class="cls-12" d="M133.09,84.94c.18-.73,3-10,3-10.32.25.68-.59,9.54.25,11a7,7,0,0,0,3.3,2.11c2.09,0,4.84-1.8,6.49-1.9-.6.21-4.76,3.37-5.74,3.8a5.1,5.1,0,0,1-4.11,0C135.16,89.35,132.48,87.34,133.09,84.94Z"></path></g><g id="eyes"><g id="eyes-2" data-name="eyes"><g id="eye"><path class="cls-10" d="M157.87,66.21c-3.06-1.74-12.91-2.15-11.44,3.4l2.86,1.49a23.68,23.68,0,0,1,7.63.11c.26-.21,1-1,1.38-1.43A6.52,6.52,0,0,0,157.87,66.21Z"></path><path class="cls-13" d="M150.89,65.13a3,3,0,0,0-1.19,2.35,2.94,2.94,0,1,0,4.79-2.26A15,15,0,0,0,150.89,65.13Z"></path><path class="cls-14" d="M154.57,67.54a1.94,1.94,0,1,1-1.91-2A1.94,1.94,0,0,1,154.57,67.54Z"></path><path class="cls-10" d="M151.32,67.27a.84.84,0,0,1-1.15-.25.85.85,0,0,1,.25-1.16.83.83,0,0,1,1.15.25A.85.85,0,0,1,151.32,67.27Z"></path><path class="cls-14" d="M158.06,66.52c-.34-1.4-6.65-3.48-11.09-.34-.3.34-.81,1.25-.62,1.3,2.69-2.14,10.68-1.87,12.05.14Z"></path></g><path id="eyebrow" class="cls-15" d="M159.76,57.72c-3.1-1.15-11.1-1.78-12.88-.22-.83.74-1.79,2.52-1.61,3.09,1,1.17,10.39-1.17,15.71.83C161.49,59.14,160,58.45,159.76,57.72Z"></path></g><g id="eyes-3" data-name="eyes"><g id="eye-2" data-name="eye"><path class="cls-10" d="M119.46,66.56c3-1.8,12.87-2.38,11.5,3.19l-2.83,1.54a23.66,23.66,0,0,0-7.63.25c-.26-.21-1-1-1.4-1.41A6.45,6.45,0,0,1,119.46,66.56Z"></path><path class="cls-13" d="M126.43,65.35a2.95,2.95,0,1,1-3.6.15A14.93,14.93,0,0,1,126.43,65.35Z"></path><path class="cls-14" d="M122.78,67.82a1.94,1.94,0,1,0,1.88-2A2,2,0,0,0,122.78,67.82Z"></path><path class="cls-10" d="M126,67.49a.82.82,0,0,0,1.14-.27.84.84,0,0,0-.27-1.15.82.82,0,0,0-1.14.27A.84.84,0,0,0,126,67.49Z"></path><path class="cls-14" d="M119.27,66.86c.32-1.4,6.59-3.59,11.08-.53.32.33.84,1.23.66,1.29-2.74-2.09-10.72-1.68-12,.35Z"></path></g><path id="eyebrow-2" data-name="eyebrow" class="cls-15" d="M117.42,58.1c3.08-1.21,11.07-2,12.87-.45.85.72,1.83,2.49,1.66,3.05-.95,1.19-10.4-1-15.69,1.12C115.71,59.55,117.22,58.84,117.42,58.1Z"></path></g></g><g id="hair"><path id="hair-2" data-name="hair" class="cls-16" d="M172.16,25.32c-8.78,2.18-14.16-1.52-28.87-4-12.71-2.16-33.06.91-37.06,7.71,1,2.76.58,6.61-3.88,8.88-1.56.86,2.17,21.5,4.29,25,2,.62,2.92,8.67,4,13.52,0,0,1.45-29.64,3.29-31.8,26.92,5.15,43.33-3.51,50.78-1.86C167.75,51.22,166,66,167.9,75c1.58-5.63,2.65-12.53,4.44-12.62C174,56.58,178.49,40.23,172.16,25.32Z"></path><path id="shadow-2" data-name="shadow" class="cls-17" d="M102,38.78c-.47,4.14,2.71,21,4.61,24.13,2,.62,2.92,8.67,4,13.52,0,0,1.45-29.64,3.29-31.8,26.92,5.15,43.33-3.51,50.78-1.86C167.75,51.22,166,66,167.9,75c1.58-5.63,2.65-12.53,4.44-12.62,1.68-5.75,6.15-22.1-.18-37,2.34,9.33-11.75,10.79-6.42,3.34-4.33,1.19-18.15,6.61-19.76,2.7-1-1.71,3.22-4.46,6-4.52C143.29,22,117.27,41,114.19,32c-3.5,5.11-5.31,14.32-8.4,14.69-2.75.14-3.82-7.74-3.44-8.84A3.65,3.65,0,0,0,102,38.78Z"></path></g><path class="cls-18" d="M136.46,97.85s4.83-1.24,7,0A20.61,20.61,0,0,0,136.46,97.85Z"></path><path class="cls-19" d="M183.21,257.45c.64-2.93,1.3-5.79-1.41-13.25l-2.14.81c-.46,4-3.26,9.87-2.66,11.15C177.21,256.59,183,258.46,183.21,257.45Z"></path><path class="cls-19" d="M177.18,254.51c-.34,1.38-1.2,2.65-.5,2.9,1.09.39,1.12-.17,1.9-1.76C179.61,253.58,177.18,254.51,177.18,254.51Z"></path><path class="cls-19" d="M181.59,256.61c-.06,1.37-.36,3.11.39,3.27,1.32.26,1.45-1.84,1.39-3.26C183.29,254.48,181.59,256.61,181.59,256.61Z"></path><path class="cls-19" d="M181.57,254.38c2.61-1.22,2.27,2.93,3.83,3,2.18.08-.47-5.36-2.17-7.14S181.57,254.38,181.57,254.38Z"></path><path class="cls-19" d="M179.27,256.34c-.29,1.38-.83,1.81-.12,2.05,1.12.39,1.47-.07,1.89-1.48C181.64,254.77,179.27,256.34,179.27,256.34Z"></path><path class="cls-20" d="M187,152.52c-3-5.33-13.63-18.08-20.44-23.12l2.07,40.6a21.83,21.83,0,0,1,4.14,6.23c1.49,3.55,8.5,16.74,12.94,18.82,1.75.81,10,6.2,14.62,5.33,7.17-1.33,11.11-9.58,11-10.67C210.52,183.57,190,157.86,187,152.52Z"></path><path class="cls-21" d="M197.19,180.31c-12.25.39-21.18-8.59-31.07-32.06l2.57,23.9a29.6,29.6,0,0,1,3.95,6.54c1.48,3.56,7.8,16.09,12.25,18.16,1.75.82,11.83,6,16.15,4.05C221,191.87,207.53,180,197.19,180.31Z"></path><path class="cls-22" d="M188.89,184c-9.63,5.19-8.6,11.71-6.67,14.67l21.34,4.74C221.78,191,198.52,178.82,188.89,184Z"></path><path class="cls-23" d="M199.1,184.75c4.44.5,10.24,8.32,9.63,11.06-2,9.07-26.14,45.19-26.27,51l-3.17.86s1.05-47.34,2.76-52.44S191.84,183.94,199.1,184.75Z"></path><path class="cls-19" d="M191.68,200.69c1.91-5.05,4-9.35,11.28-8.31,1.88.27,3.95,1.87,5.66,3.83,0-.13.08-.28.11-.4.61-2.74-5.19-10.56-9.63-11.06-7.26-.81-15.33,5.4-17,10.51s-2.76,52.44-2.76,52.44l3.32.52C183.48,234.68,190.25,204.47,191.68,200.69Z"></path><path class="cls-24" d="M175.53,402.12c-.11-.94-12.68-97.6-13.93-217.84l2.37,0c1.25,120.12,12.81,214.43,12.93,215.37Z"></path><path class="cls-24" d="M175.43,424.38l-2.36-.21c.09-1,9.23-105.74,10.38-239.06l2.37,0C184.67,318.55,175.52,423.34,175.43,424.38Z"></path><polygon class="cls-24" points="183.3 251.38 165.32 252.17 165.32 255.33 183.3 254.54 183.3 251.38"></polygon><path class="cls-25" d="M184.23,324.7c-.79-9.09-13.82-86.14-13.82-86.14-23.71-13-50.58-11.86-64.41-3.17-.79,17.79,5.13,78.64,9.66,99.15,4.46,20.25,20.36,83.61,20.36,83.61H140c-10.66-90.49,1.2-148.38,1.2-148.38s23.31,45.84,22.91,52.56c-.65,11-10.28,75.86-10.28,75.86H157S185,333.79,184.23,324.7Z"></path><path class="cls-26" d="M139.84,235.57c9.54.5,26.45,8.1,31.86,10.64l-1.29-7.65a77.43,77.43,0,0,0-44.36-9.4l-19.28,5.78-.77.45c-.13,3-.07,7.35.15,12.48C113.83,243.76,131.09,235.12,139.84,235.57Z"></path><polygon class="cls-26" points="133.61 235.57 134.06 235.72 137.32 257.2 138.5 256.91 138.5 234.24 133.61 235.57"></polygon><path class="cls-27" d="M163,332.55c-2.67,21.67-9.2,65.64-9.2,65.64H157s26.33-60.43,27.26-72.48A138.62,138.62,0,0,1,163,332.55Z"></path><path class="cls-27" d="M135.58,336.34a135.45,135.45,0,0,1-19.65-.57c4.8,21.45,20.09,82.38,20.09,82.38H140A628.21,628.21,0,0,1,135.58,336.34Z"></path><path class="cls-26" d="M157,398.19s.3-.67.82-1.88c3.38-20.67,10.49-64.77,11.11-74.12.49-7.51-28.72-58.78-28.72-58.78s-13.76,60-2.88,154.74H140c-10.66-90.49,1.2-148.38,1.2-148.38s23.31,45.84,22.91,52.56c-.65,11-10.28,75.86-10.28,75.86Z"></path><path class="cls-28" d="M122.09,425.31h21.19a8.08,8.08,0,0,0-1.34-6.67c-1.62-2.34-3.64-16.28-3.64-16.28l-4.48,4.86s2.94,8.9-3.14,13.79C127.22,423.79,120.61,422.79,122.09,425.31Z"></path><path class="cls-28" d="M170.79,420.91c-4.28,1.43-9.48-2.76-12.84-7.7s-8.39-5.56-7.11-8.7a77.85,77.85,0,0,0,4.64-17.72l5.76.87s-1.92,10.65-1.27,14.52C160.52,405.42,174.35,419.73,170.79,420.91Z"></path><path class="cls-29" d="M189,182.09c-9-6.25-20.75-5.46-31-2.94l.27,5.2c13.27.75,19.32,4.4,29.07,8.13C190.45,193.68,193.29,185,189,182.09Z"></path><path class="cls-30" d="M173.26,178c8.36,3,14.67,8.11,16.8,13,1.48-2.41,1.82-7-1.05-8.93-5.3-3.67-11.52-4.9-17.84-4.79C171.87,177.51,172.56,177.73,173.26,178Z"></path><path class="cls-20" d="M102.3,235.17l4.15,4s19.8-6.89,33.14-6.88,28.7,5.31,28.7,5.31,2.67-1.09,3-2-3.95-15.11-3.36-19.56,7.32-74.48-1.32-86.61c0,0-19.56-12.44-28.45-11.56s-33.2,10.08-33.2,10.08c-3.26,3.85-.93,46.11,1.14,53.51S99.34,224.21,102.3,235.17Z"></path><path class="cls-21" d="M102.42,217.72c.86,4.39,10.58,7.2,14.33,6.92,7.13-.55,47.08-27.7,53.56-28.28l.75-3.22s-50.89,4.67-56.45,6.77S101,210.53,102.42,217.72Z"></path><path class="cls-21" d="M169.52,215.94c.43-3.23,4-40.85,2.53-65.52-5.59,25.45-4.37,77.7-6.92,80.41-3.16,3.36-17.75-.5-23.68-1.29-5.64-.76-22.16,1.29-31.84.89-8-.32,5-67.57-5.93-98.29-1.88,11.89-1.41,43.73.35,50,2.07,7.41-7.12,43.86-4.15,54.82l5.92,6.23s20.45-11,33.79-11S171,241.42,171,241.42s3.56-3,3.85-3.85S168.93,220.38,169.52,215.94Z"></path><path class="cls-20" d="M119.44,185.41c-4.22-5.43.94-32.82,1.24-38.75s-8.64-17.85-14.27-18.74-13.64,23.7-14.83,45.63,0,22.82,2.67,25.79,11.93,8.92,13.33,9.48C112,210.6,123.59,190.75,119.44,185.41Z"></path><path class="cls-21" d="M119,140.11a121.65,121.65,0,0,1-1,17.5c-2.82,22.41-10.75,39.87-17.72,39-5.26-.66-8.46-11.58-8.51-26.52-.1,1.16-.18,2.32-.25,3.47-1.18,21.93,0,22.82,2.67,25.79s11.93,8.92,13.33,9.48c4.45,1.78,16-18.07,11.86-23.41C112.9,177,127.24,154.11,119,140.11Z"></path><path class="cls-23" d="M105.53,205.28c1,4.37,10.79,6.88,14.54,6.47,7.11-.76,46.2-29.13,52.66-29.9l.65-3.25s-50.72,6.23-56.21,8.51S103.92,198.14,105.53,205.28Z"></path><path class="cls-19" d="M118.21,202.38c-2.57-.07-8.08-2.67-11.24-5.2a12.19,12.19,0,0,0-1.44,8.1c1,4.37,10.79,6.88,14.54,6.47,7.11-.76,46.2-29.13,52.66-29.9l.58-2.91C164.93,180.18,125.13,202.56,118.21,202.38Z"></path><polygon class="cls-25" points="133.75 412.34 132.12 406.86 139.38 399.31 140.27 409.82 133.75 412.34"></polygon><polygon class="cls-25" points="154.49 390.49 154.94 383.3 165.32 383.45 161.38 391.63 154.49 390.49"></polygon><polygon class="cls-31" points="171.73 425.31 177.01 425.31 177.01 413.53 173.31 413.68 171.73 425.31"></polygon><polygon class="cls-22" points="130.66 129.63 141.18 122.07 129.33 116.29 126.36 119.99 130.66 129.63"></polygon><polygon class="cls-22" points="149.56 130.95 138.37 122.45 152.15 118.96 155.26 122.66 149.56 130.95"></polygon><rect class="cls-32" x="135.39" y="234.68" width="6.67" height="3.85"></rect><path class="cls-26" d="M129.91,263.58s11.7-.15,21.19-4c0,0-5.19,8-9.93,8.44S129.91,263.58,129.91,263.58Z"></path><path class="cls-23" d="M174.24,177.36c-3-.19-5.92-.41-12.88,3.4l1.12,2c4-.15,10.25,1.73,11.42.94C174.3,183.42,175.27,177.41,174.24,177.36Z"></path><path class="cls-23" d="M172.25,183.77c1.41.12,6.39,1.86,6.53,1.13.22-1.14-3.93-2.16-5.62-2.7C171,181.51,172.25,183.77,172.25,183.77Z"></path><path class="cls-23" d="M173.65,179.09c1.37-.15,7,.08,7.07-.69.06-1.34-5.93-1.34-7.32-1.08C171.29,177.73,173.65,179.09,173.65,179.09Z"></path><path class="cls-23" d="M171.45,179.45c-1.59-2.4,4.43-3.39,4.24-4.94-.26-2.17-7.1,2-8.6,3.92S171.45,179.45,171.45,179.45Z"></path><path class="cls-23" d="M173.74,181.42c1.4.08,7.4.88,7.53.14.21-1.17-5.78-1.77-7.24-2C171.83,179.32,173.74,181.42,173.74,181.42Z"></path><path class="cls-19" d="M186,257.27c.46-.42.29-1.34-.37-2.07s-1.56-1-2-.57-.29,1.34.37,2.07S185.5,257.68,186,257.27Z"></path><path class="cls-19" d="M179.07,258.31c.6.12,1.3-.82,1.55-2.1s0-2.4-.65-2.52-1.3.81-1.55,2.09S178.46,258.19,179.07,258.31Z"></path><path class="cls-19" d="M177,257.57c.6.12,1.29-.82,1.54-2.1s0-2.41-.64-2.53-1.3.82-1.55,2.1S176.34,257.45,177,257.57Z"></path><path class="cls-19" d="M181.21,260c.6.15,1.34-.74,1.66-2s.11-2.41-.49-2.57-1.35.75-1.67,2S180.61,259.81,181.21,260Z"></path><g id="hair-3" data-name="hair"><path id="hair-4" data-name="hair" class="cls-33" d="M290.94,47.25c-8.93-11.28-30.66-6.5-40.11-1.7-14.24,7.25-20.9,21.08-21.66,38.57S235.46,113,235,121c-.27,5-3.23,12.49-5.7,18.67C215.61,174,246.5,190.65,258,190c6.25-.33,49.76-34.44,51.85-38.84,5.9-12.41-2.34-21.91-3-30.22-.73-9.54,3.32-13,5.61-29.44C315.1,72.59,302.27,44.91,290.94,47.25Z"></path><g id="highlights_and_shadows" data-name="highlights and shadows"><path class="cls-34" d="M306.56,84.61c.93-13.11-15.62-30-19.66-30.87-8.73,12.88-37.77,27.3-38.84,27.91-.14-2.44.28-20.88.28-20.88-1.86,6.4-4.83,27.8,0,47.31,4.65,18.83-20.27,30.07-10.24,53.06,3,6.79,12.42,18.31,18.89,20.27,2.95.89,39-29.47,39.5-30.63,4.53-11.14.51-18.85.75-28.48C297.47,113.29,304.65,111.56,306.56,84.61Z"></path><path class="cls-35" d="M229.17,84.12C228.41,101.49,235.46,113,235,121c-.27,5-3.23,12.49-5.7,18.67C215.61,174,246.5,190.65,258,190c1.21-.06,3.81-1.39,7.22-3.52a1.58,1.58,0,0,1,.56-.77c-1.71-.37-23.21.2-33.09-21.44-5.38-11.78,1.25-26.4,4.51-33.94,6.93-16-3.71-24-3.75-44.68-.07-29.16,21.87-41.12,23-42.35l.11-.13h0c-1.06.36-2.06.74-3,1.12l-.16.07c-.38.16-.75.31-1.1.48L252,45c-.4.18-.78.37-1.15.55C236.59,52.8,229.93,66.63,229.17,84.12Z"></path><path class="cls-36" d="M248.13,71.33c-.08,4.59-.13,9.19-.07,10.32,1-.59,27.56-13.85,37.59-26.24,2.07-2.8,4.68-5.28,5.29-8.16a15.46,15.46,0,0,0-4.18-3.64c-4.78,9-29.94,23.57-38.61,27.43Z"></path><path class="cls-37" d="M248.13,71.33c0,.42,0,.84,0,1.26,5.3-1.68,32.37-16,40-28.1-.43-.31-.87-.61-1.32-.88-4.78,9-29.94,23.57-38.61,27.43Z"></path></g></g><path class="cls-38" d="M284.23,131.13c13.74,5,41.56,27.53,43,30s-7.86,7.74-10.3,5.43-29.67-17.83-32.22-20.13Z"></path><path class="cls-39" d="M305.14,153.43c-8.9-5-16.28-10.66-20.72-15.5l.46,10c2.56,2.31,30.31,19.09,32.8,21.44,2.06,2,8.4-3.6,9.48-6.82C321.12,161.17,313.28,158,305.14,153.43Z"></path><path class="cls-40" d="M328.29,150.78l-1.85,4.78-3.41-3.9c-8.38,4.29-11.31,15.69-11.31,15.69l4.49,2L328,168.22C335.21,160,328.29,150.78,328.29,150.78Z"></path><path class="cls-41" d="M330.46,155.13a10,10,0,0,1-15.33,4.39,32.86,32.86,0,0,0-3.41,7.83l4.49,2L328,168.22A12.73,12.73,0,0,0,330.46,155.13Z"></path><path class="cls-42" d="M328.73,167.62c1.76-3.23.07-7.75-2.85-8.34-2.56-.51-5.48.59-9,5.34-2.18,3-1.34,6.85.95,8.1S327,170.84,328.73,167.62Z"></path><path class="cls-23" d="M317.36,165.15c2.91-4,9.72-10.63,12.11.85,1.35,6.52-13.48,43.26-15.3,50.64l-1.26-1.34C314.37,206.78,314.5,169.07,317.36,165.15Z"></path><path class="cls-19" d="M314.23,214.62c2.13-8.38,5.3-46,8.47-49.63a19.17,19.17,0,0,1,4.71-4.07c-3.07-3.67-7.77,1.1-10.05,4.23-2.86,3.92-3,41.63-4.45,50.15l1.26,1.34c.11-.42.26-.95.44-1.54Z"></path><path class="cls-23" d="M314.5,219.41c1.2-2.22,2.39-4.37,1.59-11.41L314,208c-1.26,3.17-5,7.1-4.74,8.35C309.39,216.74,314.1,220.17,314.5,219.41Z"></path><path class="cls-23" d="M309.8,215c-.59,1-2.48,1.88-1.91,2.32.88.68,1.88.13,2.91-.93C312.15,215,309.8,215,309.8,215Z"></path><path class="cls-23" d="M313.25,218.18c-.34,1.12-1.16,2.12-.53,2.49,1.11.65,1.85-.71,2.11-1.89C315.21,217,313.25,218.18,313.25,218.18Z"></path><path class="cls-23" d="M311.26,217.21c-.55,1-2,2-1.38,2.47.9.69,2.15-.4,2.82-1.43C313.69,216.68,311.26,217.21,311.26,217.21Z"></path><polygon class="cls-24" points="320.86 217.27 299.96 211.5 299.96 214.38 320.86 220.15 320.86 217.27"></polygon><path class="cls-24" d="M310.86,402.71c-.11-1-11.47-102.48-12.69-231.66l2.32,0c1.23,129,12.57,230.39,12.68,231.4Z"></path><path class="cls-24" d="M311.73,418.93l-2.32-.22c.09-1.07,9.06-109.17,10.19-246.81l2.32,0C320.79,309.67,311.82,417.85,311.73,418.93Z"></path><path class="cls-43" d="M325.05,168.78c-8.85-6.45-20.35-5.64-30.43-3l.26,5.38c13,.77,18.95,4.53,28.51,8.39C326.46,180.75,329.24,171.83,325.05,168.78Z"></path><path class="cls-44" d="M325.05,168.78c-6.42-4.68-14.24-5.53-21.9-4.65a34.25,34.25,0,0,1,2.05,3.8c6.33-.17,12.59,1.07,17.9,4.94,1.91,1.39,2.37,4,2,6.31C327.28,177.47,328.42,171.23,325.05,168.78Z"></path><path class="cls-38" d="M256.22,137c-14.66,8.59-43.59,37.24-44.54,40-2.82,8.08,10,8.22,12.17,5.51s28.12-25.36,30.78-28.41Z"></path><path class="cls-39" d="M237.84,163.79c-10.13,9.11-20.15,15.52-26.17,17.17,1.94,4,10.43,3.7,12.18,1.54,2.27-2.79,30.44-24.89,33.1-27.94l-.51-12.3C253.26,148,246.53,156,237.84,163.79Z"></path><path class="cls-20" d="M299.46,218.87c-14-23.72-47.32-10.06-48.64-2.66-10.55,59.22,1.18,123.28,13.39,197.38h3.57c-2.55-41.35,3.77-150.74,6.32-150.56,4.76.34,9.35,40.36,27.89,91.59l7.66-5.1C306.56,319.73,305.37,239.76,299.46,218.87Z"></path><path class="cls-45" d="M268.9,325.38A82.66,82.66,0,0,1,250.32,322c3.34,28.91,8.56,59.3,13.89,91.59h3.57C266.54,393.47,267.4,357.25,268.9,325.38Z"></path><path class="cls-45" d="M291.92,323.74c2.82,9.61,6.13,20,10.07,30.88l7.66-5.1c-.79-7.6-1.45-18.47-2.1-30.78A81.23,81.23,0,0,1,291.92,323.74Z"></path><polygon class="cls-46" points="308.69 338.69 298.31 339.27 299.63 343.95 309.13 342.34 308.69 338.69"></polygon><path class="cls-47" d="M253,218.54c1-5.64,21.69-15.14,37.64-8.79-16.24-9.92-40.45.73-41.54,6.84-10.55,59.23,2.93,122.9,15.14,197h3.57C255.66,340.32,242.51,277.24,253,218.54Z"></path><path class="cls-47" d="M276.83,263.42c-.14-.21-2.66-2.07-3-.09,4.2,12.26,13.4,50.58,28.14,91.29l2.59-1.72C287.13,303.44,279.55,267.38,276.83,263.42Z"></path><path class="cls-47" d="M247.46,243.39s31,3.37,55-6.86l-.73-5.56-54.08,2.19Z"></path><path class="cls-48" d="M290.56,350.78a5.51,5.51,0,0,1,3.91-6.13l16.83-4.86a4,4,0,0,1,3.26.5,3.92,3.92,0,0,1,1.74,2.81l5.12,41.18S342,379.16,343.25,390s-27.87,23.25-37.32,14.38C298.29,397.14,292.49,363.42,290.56,350.78Z"></path><path class="cls-49" d="M343.18,389.58c-8.84,6.56-24.53,10.5-31,4.42-7-6.62-12.51-35.74-14.85-50.17l-2.85.82a5.51,5.51,0,0,0-3.91,6.13c1.93,12.64,7.73,46.36,15.37,53.55,9.45,8.87,38.53-3.6,37.32-14.38C343.23,389.82,343.2,389.71,343.18,389.58Z"></path><path class="cls-49" d="M343.25,390c-1.22-10.79-21.83-5.67-21.83-5.67L316.3,343.1a3.92,3.92,0,0,0-1.74-2.81,4,4,0,0,0-3.26-.5l-16.83,4.86a5.55,5.55,0,0,0-2.05,1.13,5.3,5.3,0,0,1,1.46-.69l16.83-4.86a3.95,3.95,0,0,1,5,3.31l5.11,41.18s20.62-5.12,21.83,5.67c.37,3.28-2.07,6.71-5.91,9.66C340.92,397,343.63,393.39,343.25,390Z"></path><polygon class="cls-49" points="316 372.01 301.09 378.88 301.23 376.69 316 372.01"></polygon><polygon class="cls-49" points="302.15 358.15 317.33 351.92 317.09 354.1 302.15 358.15"></polygon><polygon class="cls-49" points="313.64 344.19 294.21 348.43 295.54 350.18 313.64 344.19"></polygon><polygon class="cls-49" points="319.97 385.78 313.54 400.88 312.17 399.16 319.97 385.78"></polygon><polygon class="cls-49" points="312.11 381.65 320.51 377.54 320.45 379.7 312.11 381.65"></polygon><polygon class="cls-49" points="331.49 391.89 329.32 383.28 331.49 383.34 331.49 391.89"></polygon><polygon class="cls-49" points="309.63 363.52 318.03 359.41 317.97 361.58 309.63 363.52"></polygon><path class="cls-38" d="M302.66,234.74c-1.72-16.84-12.39-45.52-12.94-49s7-16.33,7-19-8.66-33.64-11.74-35.35c-4.91-2.73-25.24,3.12-29.13,5.85s-10.3,29.27-10.12,33.34c.19,4.41,6.83,11.12,6.55,17.28s-5.15,35.39-6.74,48.47C261.28,240.21,285.14,241.25,302.66,234.74Z"></path><path class="cls-40" d="M259.31,135.67s9.15,7.93,20.41-4.93C271.48,130.72,263.87,132.37,259.31,135.67Z"></path><path class="cls-39" d="M250,237.31c1.45-16.63,5.75-47.73,18.26-47.85,13.8-.13,27.49,21.81,30.64,46.54,1.3-.39,2.57-.8,3.8-1.26-1.72-16.84-12.39-45.52-12.94-49s7-16.33,7-19c0-1.13-1.56-7.39-3.6-14.34a81.61,81.61,0,0,1,.08,14.09c-.58,2.92-35.81,4.23-41.8,4.52-2.24.11-3.63-3.86-4.17-9.46a50.68,50.68,0,0,0-1.5,9c.19,4.41,6.83,11.12,6.55,17.28s-5.15,35.39-6.74,48.47C247,236.7,248.44,237,250,237.31Z"></path><path class="cls-48" d="M270.85,419.06H254.09a21.16,21.16,0,0,1,6.22-3c3.78-1.08,3.78-7.84,5.4-7.3S270.85,419.06,270.85,419.06Z"></path><path class="cls-40" d="M206.45,170.32l3.7,3.54,1.44-5c9.41.34,15.48,8.43,15.48,8.43L225.23,182l-11.14,4C204.1,181.61,206.45,170.32,206.45,170.32Z"></path><path class="cls-41" d="M206.32,175.17a10.06,10.06,0,0,0,15.75-2.49c3.91,2.62,5.5,3.4,6.6,6.54,1.69,4.83-2,9.21-2,9.21L214.09,186A12.68,12.68,0,0,1,206.32,175.17Z"></path><path class="cls-42" d="M213.17,185.72c-3-2.17-3.34-7-.94-8.73,2.1-1.54,5.22-1.78,10.41,1,3.23,1.75,4.11,5.62,2.57,7.71S216.13,187.89,213.17,185.72Z"></path><path class="cls-23" d="M224.39,180.74c-4.21-2.8-13.06-6.76-11,5.36,1.18,6.88,28.76,37.26,33.22,43.8l.68-1.78C242.75,220.33,228.52,183.5,224.39,180.74Z"></path><path class="cls-19" d="M219.17,185c-.36-3.28,0-5.35.79-6.57-4-1.45-8-1-6.56,7.66,1.18,6.88,28.76,37.26,33.22,43.8l.68-1.78c-.46-.78-2.72-1.7-3.35-3C235.45,213.4,219.79,190.69,219.17,185Z"></path><path class="cls-47" d="M265.79,259.19c3.11,1.94,14.18,2.07,19.09-1.54,0,0-3.77,7.12-10.55,6.79A10.13,10.13,0,0,1,265.79,259.19Z"></path><path class="cls-50" d="M245.2,234.56c-.12.93-.23,1.82-.33,2.64,16.1,4,40.53,5,58.47-1.65-.08-.83-.2-1.7-.32-2.58C284.8,238.38,262.2,237.82,245.2,234.56Z"></path><rect class="cls-40" x="268.05" y="136.33" width="2.92" height="23.24" transform="translate(-10.38 20.73) rotate(-4.32)"></rect><path class="cls-51" d="M323.31,168.27c-.65-.6-7.93-3-8.23-2.71s6.51,3.26,7.16,3.87,1.43.84,1.72.52S324,168.88,323.31,168.27Z"></path><path class="cls-23" d="M250.88,232.43c-.64-2.44-1.25-4.82-6.45-9.45L243,224.36c1.23,3.17,1.26,8.58,2.26,9.33C245.59,233.93,251.11,233.26,250.88,232.43Z"></path><path class="cls-23" d="M244.74,232.39c.27,1.15.09,5.53.78,5.47,1-.1.82-3.65.83-5.13C246.37,230.81,244.74,232.39,244.74,232.39Z"></path><path class="cls-23" d="M249.21,232.37c.5,1,1.82,5.62,2.51,5.46,1.19-.27-.43-5-1-6.09C249.76,230.16,249.21,232.37,249.21,232.37Z"></path><path class="cls-23" d="M249,230.22c1.15-2.15,4.36,1.68,5.45.89,1.52-1.1-4.4-4.17-6.48-4.41S249,230.22,249,230.22Z"></path><path class="cls-23" d="M247.19,233c.32,1.13,1.23,6.1,1.92,6,1.07-.12,0-5-.24-6.24C248.51,231,247.19,233,247.19,233Z"></path><path class="cls-23" d="M313.89,215.35c2.46-.33,1.41,4.62,2.75,5.05,1.85.62.57-6.12-.57-8S313.89,215.35,313.89,215.35Z"></path><path class="cls-23" d="M314.45,218.92c.24-1.13,0-2.13-.47-2.23s-1.09.73-1.32,1.86,0,2.12.48,2.22S314.22,220,314.45,218.92Z"></path><path class="cls-23" d="M311.71,218.27c.48-1.05.5-2.06,0-2.28s-1.22.47-1.7,1.51-.5,2.07,0,2.28S311.23,219.31,311.71,218.27Z"></path><path class="cls-23" d="M309.21,216.12c.41-1,.36-1.91-.1-2.1s-1.17.42-1.58,1.39-.36,1.9.11,2.1S308.81,217.08,309.21,216.12Z"></path><g id="neck-2" data-name="neck"><path class="cls-4" d="M287.39,136.28c-11.19-2.73-8.45-21.17-7.54-24.14-2.48.8-16.12,0-17.15,0,.63,1.76,6.43,22.52-5.8,24.31,0,0,5,23.38,17.08,22.72C280.53,158.8,286.77,145.14,287.39,136.28Z"></path><path class="cls-5" d="M281.73,132.33c-4.37-6.38-2.58-17.9-1.88-20.19-2.48.8-16.12,0-17.15,0a45,45,0,0,1,1.91,11.21c2.79,4.44,13.87,9.92,17.12,9Z"></path></g><path id="face-2" data-name="face" class="cls-4" d="M248.24,78.58c31-19.22,36.29-20.41,36.29-20.41,8.87,7.45,18,18.32,18,22.54.05,13.72-3.28,23.88-5.47,27.27-5.67,8.82-15.83,14.34-20.31,14.33-7.28,0-23.08-9.83-25.93-17.58C249.06,100,247.52,81,248.24,78.58Z"></path><path id="highlight-2" data-name="highlight" class="cls-8" d="M296,107.92c4.38-6.39,5.61-23.75,5.37-26.58-.24-5.91-16.87-23.17-16.87-23.17,8.87,7.45,18,18.32,18,22.54.05,13.72-3.28,23.88-5.47,27.27-5.67,8.82-15.83,14.34-20.31,14.33C284.53,121.14,291.37,114.72,296,107.92Z"></path><path id="shadow-3" data-name="shadow" class="cls-9" d="M276.72,122.31c-7.28,0-23.08-9.83-25.93-17.58-1.73-4.71-3.27-23.74-2.55-26.15,31-19.22,36.29-20.41,36.29-20.41-11.81,9.5-33.25,19.51-33.42,21.94-.33,4.63,1.31,21.56,2.81,25.31C258,115.69,272.07,121.42,276.72,122.31Z"></path><g id="cheeks"><path class="cls-52" d="M252.51,95.88a9.45,9.45,0,1,0,9.17-9.71A9.45,9.45,0,0,0,252.51,95.88Z"></path><path class="cls-53" d="M301.76,91.82a9.43,9.43,0,1,0-2.46,10.94.08.08,0,0,1,0,0,61.69,61.69,0,0,0,2.43-10.89Z"></path></g><g id="nose-2" data-name="nose"><path class="cls-54" d="M281.38,99.3c1.55-1.37,1-2.22.24-3.9-1.13-2.58-3.12-5.21-1-10.56l.18,1.19c0,7.39,3.89,10.71,4.1,11.57.41,1.73-.85,2.8-2.48,3.39-2.07.77-4,.32-5.82,0A8.21,8.21,0,0,0,281.38,99.3Z"></path><path class="cls-55" d="M281.38,99.3c1.55-1.37,1.05-2.26.24-3.9-1.51-3-3.05-5.92-1-10.56l-.16,1.48c-.72,5.61,2.83,10.55,3,11.41.42,1.73-3.66,3.68-6.9,3.23A8.21,8.21,0,0,0,281.38,99.3Z"></path></g><g id="eyes-4" data-name="eyes"><g id="eye-3" data-name="eye"><path class="cls-10" d="M264.82,82.86c2.86.41,5.48,2,6,4.8l-1.4,1.43c-3,.52-9.2.3-11.33-2.43C260,84.41,261.82,82.43,264.82,82.86Z"></path><path class="cls-13" d="M263.65,82.82A5.3,5.3,0,0,0,260.78,84a3.13,3.13,0,0,0,1,4.79c.54.14,1.12.26,1.7.35a3.16,3.16,0,0,0,.18-6.28Z"></path><path class="cls-14" d="M265.33,86a2.1,2.1,0,1,1-2.1-2.1A2.1,2.1,0,0,1,265.33,86Z"></path><path class="cls-10" d="M262.2,85.06a.92.92,0,1,1-.92-.91A.92.92,0,0,1,262.2,85.06Z"></path><path class="cls-14" d="M259.09,84.78a6.08,6.08,0,0,1,1.7-1.21,8,8,0,0,1,4-.79,7.46,7.46,0,0,1,3.86,1.3,6.17,6.17,0,0,1,2.45,3.35,10.25,10.25,0,0,0-6.21-2.83c-2.94-.3-6,.91-6.74,2.06A3.54,3.54,0,0,1,259.09,84.78Z"></path></g><path id="eyebrow-3" data-name="eyebrow" class="cls-56" d="M270.34,78.19a2,2,0,0,1,.62,1.39c-.52.64-5.24-1.14-8.69-1.33a8.58,8.58,0,0,0-6.48,2.31C258.6,74.68,265.83,75.25,270.34,78.19Z"></path><g id="eye-4" data-name="eye"><path class="cls-10" d="M291.62,82.81c2.72-.06,5.41,1.08,6.33,3.69l-1.08,1.61c-2.73,1-8.51,1.76-10.91-.55C287.4,85.07,288.76,82.87,291.62,82.81Z"></path><path class="cls-13" d="M290.49,83a4.8,4.8,0,0,0-2.24,1.31,3.07,3.07,0,0,0-.52,2.28A3.13,3.13,0,0,0,289.88,89c.56,0,1.12,0,1.69,0A3.1,3.1,0,0,0,290.49,83Z"></path><path class="cls-14" d="M292.84,85.72a2.06,2.06,0,1,1-2.37-1.7A2.07,2.07,0,0,1,292.84,85.72Z"></path><path class="cls-10" d="M289.66,85.36a.9.9,0,1,1-1.78.29.9.9,0,0,1,.74-1A.91.91,0,0,1,289.66,85.36Z"></path><path class="cls-14" d="M286.58,85.58A5.78,5.78,0,0,1,288,84.14a7.42,7.42,0,0,1,3.56-1.4,6.87,6.87,0,0,1,3.8.64,5.92,5.92,0,0,1,2.79,2.86,7.26,7.26,0,0,0-6.17-1.9c-2.71.27-5.47,2-6,3.22A3.49,3.49,0,0,1,286.58,85.58Z"></path></g><path id="eyebrow-4" data-name="eyebrow" class="cls-56" d="M286.46,78.61a2.05,2.05,0,0,0-.72,1.35c1.32.6,4.48-1.17,7.93-1.11,2.12,0,3.82-.13,5.25,1.71C297.09,75,291.17,76,286.46,78.61Z"></path></g><path id="teeth-2" data-name="teeth" class="cls-10" d="M279.56,108.71a50.45,50.45,0,0,1,6.32.83l-1.22-.79a9.67,9.67,0,0,0-5.18-1.94c-3.47-.27-6.89,1.69-8.08,2.43A25.8,25.8,0,0,1,279.56,108.71Z"></path><path class="cls-18" d="M276.47,110.24s3.55-.92,5.13,0A15.1,15.1,0,0,0,276.47,110.24Z"></path></g></g></svg> 