<?xml version="1.0" encoding="UTF-8"?> <!-- Generator: Adobe Illustrator 23.0.0, SVG Export Plug-In . SVG Version: 6.00 Build 0) --> <svg xmlns="http://www.w3.org/2000/svg" xmlns:xlink="http://www.w3.org/1999/xlink" version="1.1" id="Layer_1" x="0px" y="0px" viewBox="0 0 242.83 28.62" style="enable-background:new 0 0 242.83 28.62;" xml:space="preserve"> <style type="text/css"> .st0{fill-rule:evenodd;clip-rule:evenodd;fill:#191919;} .st1{fill:#00B67A;} .st2{fill:#005128;} .st3{fill-rule:evenodd;clip-rule:evenodd;fill:#FFFFFF;} </style> <g> <path class="st0" d="M30.84,9.81h11.69v2.24h-4.6v12.6H35.4v-12.6h-4.58V9.81H30.84z M42.03,13.9h2.16v2.07h0.04 c0.07-0.29,0.2-0.58,0.4-0.85c0.19-0.27,0.43-0.53,0.7-0.75c0.28-0.23,0.58-0.41,0.92-0.55c0.34-0.14,0.68-0.21,1.03-0.21 c0.27,0,0.46,0.01,0.56,0.02c0.05,0,0.09,0.01,0.14,0.02c0.06,0.01,0.11,0.02,0.17,0.02v2.28c-0.16-0.03-0.33-0.05-0.5-0.07 c-0.17-0.02-0.34-0.03-0.5-0.03c-0.39,0-0.75,0.08-1.1,0.24c-0.35,0.16-0.64,0.4-0.9,0.7c-0.25,0.31-0.46,0.69-0.61,1.15 c-0.15,0.46-0.22,0.98-0.22,1.58v5.11h-2.3V13.9H42.03z M56.49,24.65h2.26V13.92h-2.3v6.23c0,0.42-0.04,0.81-0.13,1.16 c-0.09,0.36-0.23,0.67-0.44,0.92c-0.19,0.26-0.46,0.46-0.79,0.62c-0.33,0.16-0.72,0.23-1.21,0.23c-0.63,0-1.13-0.2-1.48-0.59 c-0.36-0.39-0.53-1.06-0.53-2V13.9h-2.3v6.82c0,1.41,0.31,2.47,0.92,3.17c0.61,0.7,1.61,1.05,2.99,1.05c0.58,0,1.15-0.17,1.71-0.49 c0.56-0.32,0.98-0.75,1.26-1.3h0.04V24.65z M62.68,21.2c0.07,0.69,0.33,1.17,0.76,1.46c0.45,0.27,0.98,0.42,1.6,0.42 c0.21,0,0.46-0.02,0.73-0.05c0.28-0.03,0.54-0.1,0.77-0.2c0.24-0.09,0.44-0.24,0.6-0.43c0.15-0.19,0.22-0.43,0.21-0.73 c-0.01-0.3-0.12-0.55-0.33-0.74c-0.2-0.2-0.46-0.35-0.77-0.47c-0.32-0.12-0.67-0.22-1.08-0.3c-0.33-0.07-0.67-0.14-1.01-0.22 l-0.23-0.05c-0.43-0.09-0.85-0.22-1.24-0.36c-0.4-0.14-0.75-0.32-1.07-0.57c-0.32-0.23-0.57-0.53-0.75-0.9 c-0.19-0.37-0.29-0.82-0.29-1.36c0-0.59,0.14-1.07,0.42-1.47c0.28-0.4,0.63-0.71,1.05-0.95c0.43-0.24,0.9-0.41,1.42-0.51 c0.52-0.09,1.02-0.15,1.49-0.15c0.54,0,1.06,0.06,1.55,0.18c0.49,0.12,0.94,0.3,1.34,0.58c0.4,0.26,0.72,0.61,0.99,1.03 c0.27,0.42,0.43,0.93,0.5,1.53h-2.41c-0.11-0.57-0.36-0.95-0.75-1.14c-0.4-0.2-0.86-0.29-1.37-0.29c-0.16,0-0.36,0.01-0.58,0.04 c-0.22,0.03-0.43,0.08-0.63,0.16c-0.19,0.07-0.36,0.19-0.5,0.34c-0.13,0.15-0.2,0.34-0.2,0.58c0,0.29,0.1,0.52,0.3,0.7 c0.19,0.18,0.45,0.32,0.76,0.45c0.32,0.12,0.67,0.22,1.08,0.3c0.32,0.07,0.65,0.14,0.98,0.21l0.28,0.06 c0.42,0.09,0.83,0.22,1.23,0.36c0.41,0.14,0.76,0.32,1.08,0.57c0.32,0.24,0.57,0.53,0.76,0.89c0.19,0.36,0.3,0.81,0.3,1.33 c0,0.64-0.14,1.17-0.43,1.62c-0.29,0.44-0.65,0.81-1.1,1.08c-0.45,0.27-0.96,0.48-1.51,0.61c-0.55,0.13-1.1,0.19-1.64,0.19 c-0.66,0-1.27-0.07-1.84-0.23c-0.56-0.16-1.05-0.39-1.46-0.69c-0.41-0.31-0.73-0.7-0.97-1.16c-0.23-0.46-0.36-1.02-0.38-1.65h2.32 V21.2z M72.03,13.9H70.3v1.79h1.74v6.33c0.01,0.44,0.06,0.84,0.13,1.18c0.08,0.35,0.21,0.63,0.43,0.86c0.2,0.23,0.5,0.41,0.87,0.52 c0.37,0.12,0.86,0.18,1.47,0.18c0.25,0,0.5-0.01,0.74-0.04c0.13-0.02,0.26-0.03,0.4-0.05h0c0.11-0.01,0.23-0.02,0.34-0.04v-1.83 c-0.16,0.04-0.33,0.06-0.49,0.07c-0.16,0.01-0.33,0.01-0.49,0.01h0c-0.27,0-0.46-0.03-0.61-0.09c-0.15-0.06-0.27-0.16-0.34-0.28 c-0.07-0.13-0.12-0.28-0.14-0.46c-0.02-0.19-0.03-0.4-0.03-0.65v-5.74h2.08V13.9h-2.08v-3.22h-2.3V13.9z M78.04,13.9h2.18v1.46 h0.04c0.33-0.63,0.77-1.07,1.36-1.34c0.58-0.27,1.2-0.41,1.89-0.41c0.83,0,1.54,0.15,2.15,0.45c0.61,0.29,1.12,0.7,1.53,1.23 c0.41,0.52,0.7,1.13,0.91,1.82c0.2,0.69,0.31,1.43,0.31,2.22c0,0.72-0.09,1.42-0.28,2.09c-0.18,0.68-0.46,1.28-0.83,1.8 c-0.37,0.52-0.84,0.93-1.41,1.25c-0.57,0.31-1.23,0.47-2.01,0.47c-0.34,0-0.67-0.03-1.01-0.09c-0.34-0.06-0.66-0.17-0.97-0.3 c-0.31-0.14-0.6-0.31-0.86-0.53c-0.27-0.22-0.48-0.47-0.66-0.75h-0.04v5.36h-2.3V13.9z M85.91,17.87c0.12,0.46,0.18,0.93,0.18,1.41 c0,0.47-0.05,0.93-0.14,1.38c-0.1,0.45-0.28,0.85-0.51,1.2c-0.23,0.35-0.53,0.64-0.9,0.86c-0.37,0.22-0.81,0.34-1.34,0.34 c-0.47,0-0.89-0.09-1.24-0.29c-0.36-0.19-0.66-0.45-0.92-0.79c-0.27-0.34-0.45-0.73-0.58-1.19c-0.13-0.46-0.19-0.96-0.19-1.51 c0-1.15,0.24-2.07,0.73-2.76c0.49-0.69,1.22-1.04,2.19-1.04c0.47,0,0.89,0.12,1.25,0.32c0.36,0.21,0.66,0.49,0.91,0.85 C85.61,17.01,85.79,17.41,85.91,17.87z M90.17,9.81h2.3v2.24h-2.3V9.81z M92.47,13.9h-2.3v10.74h2.3V13.9z M94.53,9.81h2.3v14.84 h-2.3V9.81z M101.67,24.51c0.65,0.28,1.4,0.43,2.23,0.43c0.84,0,1.58-0.15,2.23-0.43c0.65-0.28,1.21-0.67,1.66-1.17 c0.45-0.5,0.8-1.1,1.03-1.79c0.23-0.69,0.36-1.46,0.36-2.28c0-0.82-0.12-1.57-0.36-2.26c-0.23-0.69-0.58-1.29-1.03-1.79 c-0.46-0.49-1.01-0.89-1.66-1.17c-0.65-0.28-1.4-0.43-2.23-0.43c-0.84,0-1.58,0.15-2.23,0.43c-0.65,0.28-1.21,0.67-1.66,1.17 c-0.45,0.5-0.8,1.1-1.03,1.79c-0.23,0.69-0.36,1.44-0.36,2.26c0,0.83,0.12,1.59,0.36,2.28c0.23,0.69,0.58,1.29,1.03,1.79 C100.46,23.83,101.01,24.23,101.67,24.51z M103.9,23.07c0.51,0,0.96-0.12,1.34-0.34c0.38-0.22,0.68-0.51,0.93-0.87 c0.24-0.36,0.42-0.76,0.54-1.21c0.11-0.45,0.17-0.91,0.17-1.38c0-0.46-0.06-0.91-0.17-1.37c-0.11-0.46-0.3-0.86-0.54-1.21 c-0.24-0.36-0.55-0.64-0.93-0.86c-0.38-0.22-0.83-0.34-1.34-0.34s-0.96,0.12-1.34,0.34c-0.38,0.22-0.68,0.51-0.93,0.86 c-0.24,0.36-0.42,0.75-0.54,1.21c-0.11,0.46-0.17,0.91-0.17,1.37c0,0.47,0.06,0.93,0.17,1.38c0.11,0.45,0.3,0.86,0.54,1.21 c0.24,0.36,0.55,0.65,0.93,0.87C102.94,22.96,103.39,23.07,103.9,23.07z M111.6,13.9h-1.72v1.79h1.74v6.33 c0.01,0.44,0.06,0.84,0.13,1.18c0.08,0.35,0.21,0.63,0.43,0.86c0.2,0.23,0.5,0.41,0.87,0.52c0.37,0.12,0.86,0.18,1.47,0.18 c0.25,0,0.5-0.01,0.74-0.04c0.13-0.02,0.26-0.03,0.4-0.05c0.11-0.01,0.23-0.02,0.35-0.04v-1.83c-0.16,0.04-0.33,0.06-0.49,0.07 c-0.16,0.01-0.33,0.01-0.49,0.01c-0.26,0-0.46-0.03-0.61-0.09c-0.15-0.06-0.27-0.16-0.34-0.28c-0.07-0.13-0.12-0.28-0.14-0.46 c-0.02-0.19-0.03-0.4-0.03-0.65v-5.74h2.08V13.9h-2.08v-3.22h-2.3V13.9z"></path> <path class="st1" d="M27.58,10H17.05L13.8,0l-3.26,10L0,9.99l8.53,6.19l-3.26,9.99l8.53-6.18l8.52,6.18l-3.25-9.99L27.58,10z"></path> <path class="st2" d="M19.47,18.78l-0.69-2.42l-4.99,4.09L19.47,18.78z"></path> <path class="st1" d="M126.96,6.39h21v20.76h-21V6.39z"></path> <path class="st3" d="M139.19,15.14h5.64l-4.56,3.28l-2.78,2l-0.02,0l0.01,0l-0.03,0.02l-4.56,3.26l1.74-5.29l-4.56-3.28h5.64 l1.74-5.29L139.19,15.14z M137.48,20.43l4.53,3.25l-1.34-4.09l-3.17,0.83L137.48,20.43z"></path> <path class="st1" d="M150.68,6.39h21v20.76h-21V6.39z"></path> <path class="st3" d="M162.91,15.14h5.64l-4.56,3.28l-2.78,2l-0.02,0l0,0l-0.03,0.02l-4.56,3.26l1.74-5.29l-4.56-3.28h5.64 l1.74-5.29L162.91,15.14z M161.2,20.43l4.53,3.25l-1.34-4.09l-3.17,0.83L161.2,20.43z"></path> <path class="st1" d="M174.4,6.39h21v20.76h-21V6.39z"></path> <path class="st3" d="M186.62,15.14h5.64l-4.56,3.28l-2.78,2l-0.02,0l0.01,0l-0.03,0.02l-4.56,3.26l1.74-5.29l-4.56-3.28h5.64 l1.74-5.29L186.62,15.14z M184.92,20.43l4.53,3.25l-1.34-4.09l-3.17,0.83L184.92,20.43z"></path> <path class="st1" d="M198.11,6.39h21v20.76h-21V6.39z"></path> <path class="st3" d="M210.34,15.14h5.64l-4.56,3.28l-2.78,2l-0.01,0l0,0l-0.03,0.02l-4.56,3.26l1.74-5.29l-4.56-3.28h5.64 l1.74-5.29L210.34,15.14z M208.63,20.43l4.53,3.25l-1.34-4.09l-3.17,0.83L208.63,20.43z"></path> <path class="st1" d="M221.83,6.39h21v20.76h-21V6.39z"></path> <path class="st3" d="M234.06,15.14h5.64l-4.56,3.28l-2.78,2l-0.02,0l0,0l-0.03,0.02l-4.56,3.26l1.74-5.29l-4.56-3.28h5.64 l1.74-5.29L234.06,15.14z M232.35,20.43l4.53,3.25l-1.34-4.09l-3.17,0.83L232.35,20.43z"></path> </g> </svg> 