<?xml version="1.0" encoding="UTF-8"?> <svg xmlns="http://www.w3.org/2000/svg" xmlns:xlink="http://www.w3.org/1999/xlink" viewBox="0 0 420 450"><defs><style>.cls-1{isolation:isolate;}.cls-119,.cls-2{fill:gray;}.cls-19,.cls-2,.cls-26,.cls-36,.cls-42,.cls-44,.cls-6,.cls-62,.cls-7,.cls-71,.cls-74{opacity:0.3;}.cls-11,.cls-12,.cls-19,.cls-2,.cls-24,.cls-26,.cls-31,.cls-32,.cls-36,.cls-38,.cls-4,.cls-42,.cls-44,.cls-46,.cls-47,.cls-51,.cls-56,.cls-59,.cls-63,.cls-64,.cls-65,.cls-66,.cls-7,.cls-71,.cls-74,.cls-9{mix-blend-mode:multiply;}.cls-10,.cls-3,.cls-32,.cls-6,.cls-7{fill:#ffb888;}.cls-24,.cls-4,.cls-44{fill:#ef9c62;}.cls-4,.cls-51{opacity:0.6;}.cls-5{fill:url(#linear-gradient);}.cls-10,.cls-23,.cls-40,.cls-54,.cls-6,.cls-60,.cls-61,.cls-62,.cls-83{mix-blend-mode:screen;}.cls-8{fill:#f7583e;}.cls-9{fill:#f48f4a;}.cls-31,.cls-9{opacity:0.7;}.cls-10{opacity:0.15;}.cls-11,.cls-12,.cls-46,.cls-47{opacity:0.2;}.cls-11{fill:url(#radial-gradient);}.cls-12{fill:url(#radial-gradient-2);}.cls-13,.cls-79,.cls-83{fill:#fff;}.cls-14{fill:#cc6917;}.cls-15{fill:#72220f;}.cls-16{fill:url(#linear-gradient-2);}.cls-17{fill:url(#linear-gradient-3);}.cls-18{fill:url(#linear-gradient-4);}.cls-19{fill:url(#linear-gradient-5);}.cls-20{fill:#e6e6e6;}.cls-21{fill:#8e8700;}.cls-22,.cls-23{fill:#a85a13;}.cls-23,.cls-24,.cls-32,.cls-54,.cls-56,.cls-59,.cls-61{opacity:0.4;}.cls-25{fill:#35afac;}.cls-26{fill:#72726d;}.cls-27{fill:#89dbcf;}.cls-28{fill:#ebac81;}.cls-29{fill:url(#linear-gradient-6);}.cls-30{fill:url(#linear-gradient-7);}.cls-31,.cls-43{fill:#db5a21;}.cls-33{fill:#6d2a00;}.cls-34{fill:#93360c;}.cls-35{fill:url(#New_Gradient_Swatch_8);}.cls-36{fill:url(#New_Gradient_Swatch_8-2);}.cls-37,.cls-38{fill:#b54e08;}.cls-38{opacity:0.35;}.cls-39,.cls-40{fill:#064a70;}.cls-40,.cls-60,.cls-65,.cls-66{opacity:0.5;}.cls-41{fill:#8ab7e2;}.cls-42{fill:#5f6977;}.cls-45{fill:url(#linear-gradient-8);}.cls-46{fill:url(#radial-gradient-3);}.cls-47{fill:url(#radial-gradient-4);}.cls-48{fill:url(#linear-gradient-9);}.cls-49{fill:url(#linear-gradient-10);}.cls-50{fill:url(#linear-gradient-11);}.cls-51{fill:url(#linear-gradient-12);}.cls-52{fill:#ff5076;}.cls-53,.cls-54{fill:#174071;}.cls-55{fill:#518945;}.cls-57{fill:#ccc;}.cls-58{fill:url(#NovÈ_polÌËko_p_echodu_2);}.cls-59{fill:url(#NovÈ_polÌËko_p_echodu_2-2);}.cls-60{fill:url(#linear-gradient-13);}.cls-61{fill:url(#NovÈ_polÌËko_p_echodu_2-3);}.cls-62{fill:url(#NovÈ_polÌËko_p_echodu_2-4);}.cls-63,.cls-64,.cls-79{opacity:0.1;}.cls-63{fill:url(#radial-gradient-5);}.cls-64{fill:url(#radial-gradient-6);}.cls-65{fill:#ffa161;}.cls-66{fill:#fc8952;}.cls-67{fill:#a84615;}.cls-68{fill:#f98f5a;}.cls-69{fill:#f8437b;}.cls-70{fill:#0069b7;}.cls-72{fill:#a5912d;}.cls-73{fill:#9b81ea;}.cls-74{fill:#b5375e;}.cls-75{fill:#242240;}.cls-76{fill:#0075be;}.cls-77{fill:#0084c7;}.cls-78{fill:#ffab00;}.cls-80{fill:#ffbc00;}.cls-81{fill:#e61010;}.cls-82{fill:#ff5600;}.cls-84{fill:#4d4d4d;}.cls-85{fill:#29292e;}.cls-86{fill:url(#linear-gradient-14);}.cls-87{fill:url(#linear-gradient-15);}.cls-88{fill:url(#linear-gradient-16);}.cls-89{fill:url(#linear-gradient-17);}.cls-90{fill:url(#linear-gradient-18);}.cls-91{fill:url(#linear-gradient-19);}.cls-92{fill:url(#linear-gradient-20);}.cls-93{fill:url(#linear-gradient-21);}.cls-94{fill:url(#linear-gradient-22);}.cls-95{fill:url(#linear-gradient-23);}.cls-96{fill:url(#linear-gradient-24);}.cls-97{fill:url(#linear-gradient-25);}.cls-98{fill:url(#linear-gradient-26);}.cls-99{fill:url(#linear-gradient-27);}.cls-100{fill:url(#linear-gradient-28);}.cls-101{fill:url(#linear-gradient-29);}.cls-102{fill:url(#linear-gradient-30);}.cls-103{fill:url(#linear-gradient-31);}.cls-104{fill:url(#linear-gradient-32);}.cls-105{fill:url(#linear-gradient-33);}.cls-106{fill:url(#linear-gradient-34);}.cls-107{fill:url(#linear-gradient-35);}.cls-108{fill:url(#linear-gradient-36);}.cls-109{fill:url(#linear-gradient-37);}.cls-110{fill:url(#linear-gradient-38);}.cls-111,.cls-125{fill:#f8c607;}.cls-112{fill:#1a1a1a;}.cls-113{fill:#5e5e5e;}.cls-114{fill:url(#linear-gradient-39);}.cls-115{fill:url(#linear-gradient-40);}.cls-116{fill:url(#linear-gradient-41);}.cls-117{fill:url(#radial-gradient-7);}.cls-118{fill:url(#linear-gradient-42);}.cls-120{fill:red;}.cls-121{fill:url(#linear-gradient-43);}.cls-122{fill:url(#linear-gradient-44);}.cls-123{fill:url(#linear-gradient-45);}.cls-124{font-size:5.12px;fill:#df0;font-family:DS-Digital-Bold, DS-Digital;}.cls-124,.cls-125{font-weight:700;}.cls-125{font-size:8.53px;font-family:GothamRounded-Bold, Gotham Rounded;}</style><linearGradient id="linear-gradient" x1="-4923.84" y1="479.03" x2="-4916.54" y2="479.03" gradientTransform="matrix(-1, 0.05, 0.05, 1, -4794.81, 18.62)" gradientUnits="userSpaceOnUse"><stop offset="0" stop-color="#ffb888"></stop><stop offset="0.8" stop-color="#f59766"></stop><stop offset="0.91" stop-color="#f39261"></stop></linearGradient><radialGradient id="radial-gradient" cx="-5821.31" cy="89.36" r="9.49" gradientTransform="matrix(-0.84, -0.01, -0.01, 0.84, -4755.73, 90.63)" gradientUnits="userSpaceOnUse"><stop offset="0.01" stop-color="#ff8a80"></stop><stop offset="0.81" stop-color="#fff"></stop></radialGradient><radialGradient id="radial-gradient-2" cx="-5850.51" cy="92.6" r="8.53" xlink:href="#radial-gradient"></radialGradient><linearGradient id="linear-gradient-2" x1="-4666.58" y1="-1181.69" x2="-4667.99" y2="-1178.48" gradientTransform="matrix(-0.98, -0.18, -0.18, 0.98, -4671.09, 543.2)" gradientUnits="userSpaceOnUse"><stop offset="0" stop-color="#963505"></stop><stop offset="1" stop-color="#651e04"></stop></linearGradient><linearGradient id="linear-gradient-3" x1="-3707.46" y1="-2937.59" x2="-3708.64" y2="-2934.92" gradientTransform="matrix(-0.97, -0.22, -0.22, 0.97, -4161.95, 2264.91)" xlink:href="#linear-gradient-2"></linearGradient><linearGradient id="linear-gradient-4" x1="-4923.32" y1="459.89" x2="-4871.23" y2="459.89" gradientTransform="matrix(-1, 0.05, 0.05, 1, -4794.81, 18.62)" xlink:href="#linear-gradient-2"></linearGradient><linearGradient id="linear-gradient-5" x1="4783.6" y1="229.86" x2="4835.9" y2="229.86" gradientTransform="translate(-4689.82)" xlink:href="#linear-gradient-2"></linearGradient><linearGradient id="linear-gradient-6" x1="-543.59" y1="64.45" x2="-533.3" y2="64.45" gradientTransform="translate(847.85 -0.19) rotate(-0.52)" xlink:href="#linear-gradient"></linearGradient><linearGradient id="linear-gradient-7" x1="-492.84" y1="64.45" x2="-482.55" y2="64.45" gradientTransform="translate(847.85 -0.19) rotate(-0.52)" gradientUnits="userSpaceOnUse"><stop offset="0.09" stop-color="#f39261"></stop><stop offset="0.2" stop-color="#f59766"></stop><stop offset="1" stop-color="#ffb888"></stop></linearGradient><linearGradient id="New_Gradient_Swatch_8" x1="-542.8" y1="44.22" x2="-484.3" y2="44.22" gradientTransform="translate(847.85 -0.19) rotate(-0.52)" gradientUnits="userSpaceOnUse"><stop offset="0" stop-color="#963505"></stop><stop offset="1" stop-color="#4f1403"></stop></linearGradient><linearGradient id="New_Gradient_Swatch_8-2" x1="-542.8" y1="46.23" x2="-484.3" y2="46.23" xlink:href="#New_Gradient_Swatch_8"></linearGradient><linearGradient id="linear-gradient-8" x1="-540.21" y1="308.5" x2="-528.38" y2="344.61" gradientTransform="matrix(0.99, 0.15, -0.15, 0.99, 758.64, 7.14)" gradientUnits="userSpaceOnUse"><stop offset="0" stop-color="#c55a0a"></stop><stop offset="0.02" stop-color="#be550a"></stop><stop offset="0.16" stop-color="#8e3407"></stop><stop offset="0.23" stop-color="#7c2706"></stop><stop offset="0.41" stop-color="#782406"></stop><stop offset="1" stop-color="#6e1d05"></stop></linearGradient><radialGradient id="radial-gradient-3" cx="-542.22" cy="653.75" r="8.35" gradientTransform="matrix(0.63, 0.65, -0.65, 0.63, 933.75, 187.94)" xlink:href="#radial-gradient"></radialGradient><radialGradient id="radial-gradient-4" cx="-524.28" cy="633.84" r="8.35" gradientTransform="matrix(0.63, 0.65, -0.65, 0.63, 933.75, 187.94)" xlink:href="#radial-gradient"></radialGradient><linearGradient id="linear-gradient-9" x1="629.12" y1="1003.68" x2="627.83" y2="1006.6" gradientTransform="matrix(-0.9, 0.03, -0.23, 0.81, 988.18, -594.07)" gradientUnits="userSpaceOnUse"><stop offset="0" stop-color="#a04008"></stop><stop offset="1" stop-color="#7f2906"></stop></linearGradient><linearGradient id="linear-gradient-10" x1="1254.14" y1="106.89" x2="1252.92" y2="109.65" gradientTransform="matrix(0.66, -0.54, 0.74, 0.59, -735.22, 849.13)" xlink:href="#linear-gradient-9"></linearGradient><linearGradient id="linear-gradient-11" x1="529.43" y1="341.95" x2="479.24" y2="383.94" gradientTransform="matrix(-0.97, -0.24, -0.24, 0.97, 757.34, 13.35)" xlink:href="#linear-gradient-9"></linearGradient><linearGradient id="linear-gradient-12" x1="-664.05" y1="205.76" x2="-678.84" y2="263.76" gradientTransform="translate(848.03)" gradientUnits="userSpaceOnUse"><stop offset="0.11" stop-color="#fff"></stop><stop offset="1" stop-color="#7e3206"></stop></linearGradient><linearGradient id="NovÈ_polÌËko_p_echodu_2" x1="-933.18" y1="51.4" x2="-955.43" y2="170.79" gradientTransform="translate(1201.68)" gradientUnits="userSpaceOnUse"><stop offset="0" stop-color="#6d1d04"></stop><stop offset="1" stop-color="#9e4a01"></stop></linearGradient><linearGradient id="NovÈ_polÌËko_p_echodu_2-2" x1="-971.7" y1="113.51" x2="-915.23" y2="113.51" xlink:href="#NovÈ_polÌËko_p_echodu_2"></linearGradient><linearGradient id="linear-gradient-13" x1="-948.03" y1="49.06" x2="-970.21" y2="168.03" gradientTransform="translate(1201.68)" gradientUnits="userSpaceOnUse"><stop offset="0" stop-color="#6d1d04"></stop><stop offset="0.58" stop-color="#9e4a01"></stop><stop offset="1" stop-color="#6d1d04"></stop></linearGradient><linearGradient id="NovÈ_polÌËko_p_echodu_2-3" x1="-961.88" y1="69.74" x2="-927.7" y2="69.74" xlink:href="#NovÈ_polÌËko_p_echodu_2"></linearGradient><linearGradient id="NovÈ_polÌËko_p_echodu_2-4" x1="-961.82" y1="66.13" x2="-929.99" y2="66.13" xlink:href="#NovÈ_polÌËko_p_echodu_2"></linearGradient><radialGradient id="radial-gradient-5" cx="1471.75" cy="51.03" r="9.3" gradientTransform="matrix(-0.81, 0.02, 0.02, 0.81, 1439.89, 20.15)" gradientUnits="userSpaceOnUse"><stop offset="0" stop-color="#f42706"></stop><stop offset="0.84" stop-color="#fff"></stop></radialGradient><radialGradient id="radial-gradient-6" cx="-574.68" cy="95.61" r="7.4" gradientTransform="translate(847.66 0.8)" xlink:href="#radial-gradient-5"></radialGradient><linearGradient id="linear-gradient-14" x1="52.04" y1="71.65" x2="52.04" y2="66.52" gradientUnits="userSpaceOnUse"><stop offset="0" stop-color="#282a2e"></stop><stop offset="0.43" stop-color="#2b2c30"></stop><stop offset="0.77" stop-color="#292a2e"></stop><stop offset="0.9" stop-color="#232427"></stop><stop offset="0.97" stop-color="#1b1c1f"></stop></linearGradient><linearGradient id="linear-gradient-15" x1="122.57" y1="71.65" x2="122.57" y2="66.52" xlink:href="#linear-gradient-14"></linearGradient><linearGradient id="linear-gradient-16" x1="88.08" y1="71.65" x2="88.08" y2="66.52" xlink:href="#linear-gradient-14"></linearGradient><linearGradient id="linear-gradient-17" x1="176.61" y1="71.65" x2="176.61" y2="66.52" xlink:href="#linear-gradient-14"></linearGradient><linearGradient id="linear-gradient-18" x1="52.04" y1="78.42" x2="52.04" y2="73.29" xlink:href="#linear-gradient-14"></linearGradient><linearGradient id="linear-gradient-19" x1="122.57" y1="78.42" x2="122.57" y2="73.29" xlink:href="#linear-gradient-14"></linearGradient><linearGradient id="linear-gradient-20" x1="88.08" y1="78.42" x2="88.08" y2="73.29" xlink:href="#linear-gradient-14"></linearGradient><linearGradient id="linear-gradient-21" x1="176.61" y1="78.42" x2="176.61" y2="73.29" xlink:href="#linear-gradient-14"></linearGradient><linearGradient id="linear-gradient-22" x1="142.38" y1="71.65" x2="142.38" y2="66.52" xlink:href="#linear-gradient-14"></linearGradient><linearGradient id="linear-gradient-23" x1="142.38" y1="78.42" x2="142.38" y2="73.29" xlink:href="#linear-gradient-14"></linearGradient><linearGradient id="linear-gradient-24" x1="52.04" y1="85.19" x2="52.04" y2="80.06" xlink:href="#linear-gradient-14"></linearGradient><linearGradient id="linear-gradient-25" x1="122.57" y1="85.19" x2="122.57" y2="80.06" xlink:href="#linear-gradient-14"></linearGradient><linearGradient id="linear-gradient-26" x1="88.08" y1="85.19" x2="88.08" y2="80.06" xlink:href="#linear-gradient-14"></linearGradient><linearGradient id="linear-gradient-27" x1="176.61" y1="85.19" x2="176.61" y2="80.06" xlink:href="#linear-gradient-14"></linearGradient><linearGradient id="linear-gradient-28" x1="52.04" y1="91.96" x2="52.04" y2="86.82" xlink:href="#linear-gradient-14"></linearGradient><linearGradient id="linear-gradient-29" x1="122.57" y1="91.96" x2="122.57" y2="86.82" xlink:href="#linear-gradient-14"></linearGradient><linearGradient id="linear-gradient-30" x1="88.08" y1="91.96" x2="88.08" y2="86.82" xlink:href="#linear-gradient-14"></linearGradient><linearGradient id="linear-gradient-31" x1="176.61" y1="91.96" x2="176.61" y2="86.82" xlink:href="#linear-gradient-14"></linearGradient><linearGradient id="linear-gradient-32" x1="142.38" y1="85.19" x2="142.38" y2="80.06" xlink:href="#linear-gradient-14"></linearGradient><linearGradient id="linear-gradient-33" x1="142.38" y1="91.96" x2="142.38" y2="86.82" xlink:href="#linear-gradient-14"></linearGradient><linearGradient id="linear-gradient-34" x1="52.04" y1="98.83" x2="52.04" y2="93.69" xlink:href="#linear-gradient-14"></linearGradient><linearGradient id="linear-gradient-35" x1="122.57" y1="98.83" x2="122.57" y2="93.69" xlink:href="#linear-gradient-14"></linearGradient><linearGradient id="linear-gradient-36" x1="88.08" y1="98.83" x2="88.08" y2="93.69" xlink:href="#linear-gradient-14"></linearGradient><linearGradient id="linear-gradient-37" x1="176.61" y1="98.83" x2="176.61" y2="93.69" xlink:href="#linear-gradient-14"></linearGradient><linearGradient id="linear-gradient-38" x1="142.38" y1="98.83" x2="142.38" y2="93.69" xlink:href="#linear-gradient-14"></linearGradient><linearGradient id="linear-gradient-39" x1="48.82" y1="55.96" x2="48.82" y2="41.33" gradientUnits="userSpaceOnUse"><stop offset="0" stop-color="#878787"></stop><stop offset="0.51" stop-color="#ddd"></stop><stop offset="0.56" stop-color="#e6e6e6"></stop><stop offset="0.58" stop-color="#e3e3e3"></stop><stop offset="0.67" stop-color="#d6d6d6"></stop><stop offset="0.78" stop-color="#cecece"></stop><stop offset="1" stop-color="#ccc"></stop></linearGradient><linearGradient id="linear-gradient-40" x1="48.82" y1="55.84" x2="48.82" y2="41.44" gradientUnits="userSpaceOnUse"><stop offset="0" stop-color="#a3a3a3"></stop><stop offset="0.04" stop-color="#a9a9a9"></stop><stop offset="0.09" stop-color="#bababa"></stop><stop offset="0.14" stop-color="#d6d6d6"></stop><stop offset="0.17" stop-color="#e6e6e6"></stop><stop offset="0.27" stop-color="#d2d2d2"></stop><stop offset="0.38" stop-color="#c5c5c5"></stop><stop offset="0.47" stop-color="#c1c1c1"></stop><stop offset="0.73" stop-color="#fff"></stop><stop offset="0.91" stop-color="#e5e5e5"></stop><stop offset="0.98" stop-color="#e0e0e0"></stop></linearGradient><linearGradient id="linear-gradient-41" x1="48.82" y1="54.96" x2="48.82" y2="42.32" gradientUnits="userSpaceOnUse"><stop offset="0.11" stop-color="#fff"></stop><stop offset="0.16" stop-color="#f2f2f2"></stop><stop offset="0.32" stop-color="#d1d1d1"></stop><stop offset="0.45" stop-color="#bcbcbc"></stop><stop offset="0.54" stop-color="#b5b5b5"></stop><stop offset="0.59" stop-color="#bababa"></stop><stop offset="0.65" stop-color="#c9c9c9"></stop><stop offset="0.72" stop-color="#e1e1e1"></stop><stop offset="0.78" stop-color="#fff"></stop><stop offset="0.88" stop-color="#d0d0d0"></stop><stop offset="0.96" stop-color="#aeaeae"></stop><stop offset="1" stop-color="#a1a1a1"></stop></linearGradient><radialGradient id="radial-gradient-7" cx="48.82" cy="48.64" r="6.09" gradientUnits="userSpaceOnUse"><stop offset="0.06" stop-color="#f5f5f5"></stop><stop offset="0.29" stop-color="#f2f2f2"></stop><stop offset="0.47" stop-color="#e8e8e8"></stop><stop offset="0.63" stop-color="#d8d8d8"></stop><stop offset="0.77" stop-color="#c1c1c1"></stop><stop offset="0.91" stop-color="#a4a4a4"></stop><stop offset="0.94" stop-color="#9c9c9c"></stop></radialGradient><linearGradient id="linear-gradient-42" x1="48.82" y1="47.59" x2="48.82" y2="42.86" gradientUnits="userSpaceOnUse"><stop offset="0" stop-color="#fff"></stop><stop offset="1" stop-color="#d8d8d8"></stop></linearGradient><linearGradient id="linear-gradient-43" x1="-156.3" y1="-89.83" x2="-151.99" y2="-89.83" gradientTransform="translate(-103.21 -41.19) rotate(180)" gradientUnits="userSpaceOnUse"><stop offset="0" stop-color="#828282"></stop><stop offset="1" stop-color="#303030"></stop></linearGradient><linearGradient id="linear-gradient-44" x1="48.81" y1="49.19" x2="48.81" y2="43.22" gradientUnits="userSpaceOnUse"><stop offset="0" stop-color="#4d4d4d"></stop><stop offset="1" stop-color="#828282"></stop></linearGradient><linearGradient id="linear-gradient-45" x1="48.81" y1="48.36" x2="48.81" y2="48.95" gradientUnits="userSpaceOnUse"><stop offset="0" stop-color="#e6e6e6"></stop><stop offset="0.08" stop-color="#dfdfdf"></stop><stop offset="0.2" stop-color="#cdcdcd"></stop><stop offset="0.34" stop-color="#afafaf"></stop><stop offset="0.34" stop-color="#aeaeae"></stop><stop offset="0.54" stop-color="#f2f2f2"></stop><stop offset="0.58" stop-color="#ededed"></stop><stop offset="0.63" stop-color="#e0e0e0"></stop><stop offset="0.69" stop-color="#cacaca"></stop><stop offset="0.74" stop-color="#ababab"></stop><stop offset="0.79" stop-color="#838383"></stop><stop offset="0.8" stop-color="#7e7e7e"></stop><stop offset="1" stop-color="#4d4d4d"></stop></linearGradient></defs><title>web schade icon</title><g class="cls-1"><g id="Vrstva_1" data-name="Vrstva 1"><path id="shadow_beneath" data-name="shadow beneath" class="cls-2" d="M393,383.15c0,6.17-70.3,11.17-157,11.17s-157-5-157-11.17S149.3,372,236,372,393,377,393,383.15Z"></path><g id="neck"><path class="cls-3" d="M115.93,256.53l8.26,2.12c-2.11,7.32-2,12.1,2.77,12.32-.66,6-7.73,8.11-18.53-1C116.8,271.43,115.91,262.11,115.93,256.53Z"></path><path class="cls-4" d="M115.34,265.77c.79-2.83.58-6.49.59-9.24l8.26,2.12c-1.3,4.49-1.74,8-.8,10.13A28.07,28.07,0,0,1,115.34,265.77Z"></path></g><path id="ear" class="cls-5" d="M141.23,240.35c.91-1,.15-.19,1.3-1,7.14-1.58,5.68,11-2.34,10.93Z"></path><path id="face" class="cls-3" d="M97.08,236.11c.94-18.3,25-23.55,36.5-15.27,8.33,6,16.13,28.5,3.32,39.4-12.33,10.49-38.24,2.73-38.73-13-8-.63-8.21-10.52-4.85-12.29C94.58,234.29,95.38,234.47,97.08,236.11Z"></path><path id="highlight" class="cls-6" d="M115,264.1c-10.88-3-18.49-11.75-13.68-26.79,2.25-7,4.67-9.08,9.87-10.64,0,0,6-12.18-10.11-.92l-.15-.09a18,18,0,0,0-2.66,4.76c-.33,4.51,0,11.24-.07,16.82C98.44,255.71,106.06,261.86,115,264.1Z"></path><path id="shadow" class="cls-7" d="M130.6,224.52l3.32-3.42c8.2,6.35,15.62,28.39,3,39.14a20.31,20.31,0,0,1-9.11,4.22C147.43,259.17,144.76,228.9,130.6,224.52Z"></path><path id="smile" class="cls-8" d="M129.51,256.79a9.19,9.19,0,0,0-3.36-1.16c-3.56-.19-10.24,2.05-11,3.17,1.4-2.52,9.1-5,11-4.42a7.43,7.43,0,0,1,3.61,2.36Z"></path><g id="nose"><path class="cls-9" d="M124.63,246.19c.6,2.23-.79,4.67-3,6,2,.11,4.17-1.63,5.09-3.71A6.52,6.52,0,0,0,124.63,246.19Z"></path><path class="cls-10" d="M120,246.48c-.72.68.89,3.69,1.45,4,1.12.52,3.31-1.39,2.6-3A2.77,2.77,0,0,0,120,246.48Z"></path></g><g id="cheeks"><path class="cls-11" d="M103.47,245a7.94,7.94,0,1,0,8.06-7.81A7.93,7.93,0,0,0,103.47,245Z"></path><path class="cls-12" d="M128.65,248.11a7.13,7.13,0,1,0,7.24-7A7.13,7.13,0,0,0,128.65,248.11Z"></path></g><g id="eyes"><path class="cls-13" d="M138.37,246.55a8.56,8.56,0,0,0-4-.71,9,9,0,0,0-3.37.81l-.27-.51c-.7-2.32,1-6.58,5.92-5.39,1.95.48,2.89,3.36,2.14,5.12A3.18,3.18,0,0,1,138.37,246.55Z"></path><path class="cls-14" d="M136.38,246.17a7,7,0,0,0-.79,0,9.06,9.06,0,0,0-3,.64,3,3,0,0,1-.63-1.77c-.07-1.91,1.84-4.27,3.83-4a6.23,6.23,0,0,1,.65.13,4,4,0,0,1,.64,3.59A4.23,4.23,0,0,1,136.38,246.17Z"></path><path class="cls-15" d="M132.72,244.91c0-.09,0-.19,0-.29a4.38,4.38,0,0,1,2.2-3.66,1.92,1.92,0,0,1,.32,0,2.5,2.5,0,0,1-1.36,4.76A2,2,0,0,1,132.72,244.91Z"></path><path class="cls-13" d="M133.64,242.41a.83.83,0,0,0,1,.62.83.83,0,1,0-.39-1.62A.83.83,0,0,0,133.64,242.41Z"></path><path class="cls-15" d="M138.44,242.25a4.24,4.24,0,0,0-3.38-2.05,4.37,4.37,0,0,0-2,.36,4.12,4.12,0,0,0-1.57,1.29,5.33,5.33,0,0,0-.91,3.72,6.5,6.5,0,0,1,1.4-3.32,3.71,3.71,0,0,1,3-1.24,3.83,3.83,0,0,1,2.9,1.59,5.15,5.15,0,0,1,.81,3.46A4.57,4.57,0,0,0,138.44,242.25Z"></path><path class="cls-16" d="M129.31,236.8s-.17.7.13,1c1.31.25,5.78-3.14,8.89-.5C137.4,234,131.83,233.45,129.31,236.8Z"></path><path class="cls-13" d="M115.87,245.14a8.94,8.94,0,0,0-3.24-1.16,8.4,8.4,0,0,0-4.26.33l-.09-.14c-.74-2.32,1.14-6.59,6.38-5.42,2.09.47,3.09,3.35,2.28,5.11A3.16,3.16,0,0,1,115.87,245.14Z"></path><path class="cls-14" d="M114,244.24l-.26-.05a8.66,8.66,0,0,0-3.88.2,2.9,2.9,0,0,1-.43-1.44c-.07-1.91,2-4.27,4.13-4,.25,0,.47.07.7.12a3.81,3.81,0,0,1,.67,3.6A4.25,4.25,0,0,1,114,244.24Z"></path><path class="cls-15" d="M112.4,239l.31.07a2.27,2.27,0,0,1,1.5,3,2.62,2.62,0,0,1-1.83,1.78c-.27,0-.52,0-.77.08a2.2,2.2,0,0,1-.37-.06A2.11,2.11,0,0,1,110,243c0-.1,0-.19,0-.3A4.38,4.38,0,0,1,112.4,239Z"></path><path class="cls-13" d="M111.62,240.09a.9.9,0,0,0,1.08.61.84.84,0,0,0,.66-1,.88.88,0,0,0-1.07-.61A.83.83,0,0,0,111.62,240.09Z"></path><path class="cls-15" d="M116.61,240.25A4.57,4.57,0,0,0,113,238.2a5,5,0,0,0-2.17.38,4.47,4.47,0,0,0-1.7,1.29,5.12,5.12,0,0,0-1,3.73,6.23,6.23,0,0,1,1.51-3.33,4.17,4.17,0,0,1,3.28-1.26,4.22,4.22,0,0,1,3.11,1.58,4.86,4.86,0,0,1,.85,3.46A4.24,4.24,0,0,0,116.61,240.25Z"></path><path class="cls-17" d="M115.21,234.39c-3.64-1.4-8.23,1.48-8.38,4.81,1.61-2.93,4.18-3.26,8.76-3.32C115.59,235.88,117.2,235.16,115.21,234.39Z"></path></g><g id="hair"><path id="hair-2" data-name="hair" class="cls-18" d="M95.87,219.12a3,3,0,0,1-1-3.4c0,.25,1.4,1.16,1.66.52a4.9,4.9,0,0,1-1.77-4.11c4,5.11,46.85-11.44,44.93,8,5.84,1.6,8.77,15.3,3.81,21.36-1-9.74-6.19-16-10.27-16.63l-2.25.55c-3.63,2.46-15.56,5.74-22.16,4.83a65.7,65.7,0,0,0,11.71-3.3,29.1,29.1,0,0,0-16.23,1.49c-2,1.47-5.83,6.56-6,13.74-.9-5.24-1.47-6.91-4-7.57C93,227.62,94.36,223.82,95.87,219.12Z"></path><path id="shadow-2" data-name="shadow" class="cls-19" d="M144.64,225.53c.74,1.79-4.83,2.92-6-5,0-.2-12.11,5.41-15.32,5.16,6.73-2.83,9.46-5.88,10.88-7.67-5.45,3.44-21.13,7-13.07-.44-24.66,11.87-25.39,2.26-25.3,1.61-1.51,4.68-2.89,8.48-1.52,15.44,2.53.66,3.1,2.33,4,7.57.18-7.18,4-12.27,6-13.74a29.1,29.1,0,0,1,16.23-1.49,65.7,65.7,0,0,1-11.71,3.3c6.6.91,18.53-2.37,22.16-4.83l2.25-.55c4.08.64,9.31,6.89,10.27,16.63,3.1-3.78,3.12-10.55,1.28-15.48-.05-.13-.1-.24-.14-.35A.69.69,0,0,1,144.64,225.53Z"></path></g><g id="legs"><path class="cls-3" d="M95.41,380.48a7.63,7.63,0,0,0,1.46-3.54c1.54-7.39,2.52-23.28,4.16-26.67l7.22.87c2.65,5.2-3.78,19.57-5.44,26.63a38.92,38.92,0,0,0-.21,5.36C101.18,383.24,97.38,383.43,95.41,380.48Z"></path><path class="cls-4" d="M101,350.27l7.22.87a9.79,9.79,0,0,1,.44,5.63,43.17,43.17,0,0,1-8.68-2.7A17.22,17.22,0,0,1,101,350.27Z"></path><path class="cls-3" d="M125.07,351.59l8.11-.45c-.81,4.7-2.92,15.49-3,26.75a4.48,4.48,0,0,0,1.32,2.6c-1.3.34-5.5,1.63-7.05,1.22C126,376.68,120.9,358.36,125.07,351.59Z"></path><path class="cls-4" d="M125.07,351.59l8.11-.45c-.16.92-.37,2.08-.6,3.42a54.88,54.88,0,0,1-9,2.1A12.47,12.47,0,0,1,125.07,351.59Z"></path></g><g id="socks"><path class="cls-20" d="M124.41,381.71c.63-2.07,0-6.56-.57-11.2a29.78,29.78,0,0,0,6.9-.22,65.64,65.64,0,0,0-.6,7.6,4.48,4.48,0,0,0,1.32,2.6C130.16,380.83,126,382.12,124.41,381.71Z"></path><path class="cls-20" d="M102.81,377.77a38.92,38.92,0,0,0-.21,5.36c-1.42.11-5.22.3-7.19-2.65a7.63,7.63,0,0,0,1.46-3.54c.37-1.75.71-4.75,1-7.11,0,0,4.69,1.71,7.1.95C105,370.78,103.23,376,102.81,377.77Z"></path></g><g id="shoes"><path class="cls-21" d="M94.14,380.85c4.23-1.85,8.63,1.8,8.63,1.8,0,1.43,0,2.34,0,2.34a11.58,11.58,0,0,1-3.21,1.13c-2.41-.08-7.69.27-9-.86C90.74,382.26,93.74,382.05,94.14,380.85Z"></path><path class="cls-13" d="M97.68,383.18c.9.5,1.77.83,2.57,1.28s1.76,0,2.52-.31c0,.53,0,.84,0,.84a12.64,12.64,0,0,1-3.21,1.13c-2.38,0-7.34.48-9.14-.93a3.34,3.34,0,0,1,.82-2C92.12,382.52,96.26,382.39,97.68,383.18Z"></path><path class="cls-13" d="M94,380.93c.38-.78,3-.7,4-.34a7,7,0,0,1,1.82,1c.62.43-.07.73-.47.66a5.61,5.61,0,0,1-1.29-.6,5.33,5.33,0,0,0-2.41-.48C94.57,381.16,93.73,381.5,94,380.93Z"></path><path class="cls-21" d="M123.81,380.94c.53-.31,2.23.53,3.24.52,2.36,0,3-1.84,5.34-1.69l2.68,2,1.09.49c3.35.05,5.08.21,5.61,3.48-2.51.79-15.54.05-18.61-.25A8,8,0,0,1,123.81,380.94Z"></path><path class="cls-13" d="M141.92,385.83c-2.84,1-15.82.08-18.89-.22a5,5,0,0,1,0-1.28c3.56.14,9,.69,9.95.25.62-.3,1.69-1.45,3.18-2.28C139.2,382.18,141.34,382.3,141.92,385.83Z"></path><path class="cls-13" d="M131,380.78c.81-.7,2.48-1.12,3,0,1,.14,1.59.76,1.24,1.16-.56-.26-2,.53-2.52,1-1.31-.83.76-1.5,1.27-1.91-.57-.54-2,.44-2.77.87C131,382,129.73,381.9,131,380.78Z"></path></g><g id="shorts"><path id="shorts-2" data-name="shorts" class="cls-22" d="M103.7,317.38l30.76.14a65.13,65.13,0,0,0,4.2,9.12c-1,5.44-3.52,25.15-3.68,26.85-2.38.7-9.68,1.89-14.63.1.17-.55,2-20.14,1.52-20.78a4.17,4.17,0,0,0-3.78,1.38c-1.79,1.87-5.51,17.85-5.72,19.71-3.39,1.09-12.24.37-14.86-.83C98.71,347.21,101.21,327.07,103.7,317.38Z"></path><path id="highlight-2" data-name="highlight" class="cls-23" d="M110.86,351.14l-8.54.87-3.5-1.24c0-.29,5-28.7,5-28.7l2.85-1.29c6.58,1.82,18.84,2.25,25.22.25l-.47,6.79,3.15-1.19s2.39,2.8,2.36,3.21c-.07,1.11-2.15,12.47-2.45,20.2a8.91,8.91,0,0,1-2.94,1.86c-.53.06-6.3-1.52-6.74-2.09-.25-.33,1-14.43.42-18.56.64-.22,2.53-2.41,2.76-2.4-3.15.13-11,2.29-12.75,2.4-1.13.45.76.62.72,1.56C114.7,337.54,111.5,348.51,110.86,351.14Z"></path></g><g id="right_arm" data-name="right arm"><path class="cls-3" d="M131.12,294.91a9.63,9.63,0,0,1-.73-5.15c1.51-.18,8.52-3.68,8.52-3.68A66.82,66.82,0,0,0,139,295a42.22,42.22,0,0,0,1.46,7.49c1.92,6.8,1.54,16,1.56,17.86a58.88,58.88,0,0,1-4.34,8.53,34.41,34.41,0,0,1-2.88-4.21c-.36,1.38-2,3.79-3.46,3.26.12-.56,1.46-3,1.28-5.16,0-.18.35-.49.9-.86h0l0,0c1.4-.93,3.93-2.24,4.38-2.74s-2.55-8.18-3.7-11.34C133.52,305.71,131.87,296.86,131.12,294.91Z"></path><path class="cls-24" d="M134.28,307.77c-.76-2.06-2.41-10.91-3.16-12.86a9.63,9.63,0,0,1-.73-5.15c1.51-.18,8.52-3.68,8.52-3.68,0,2.65-.15,4.75,0,7a23.17,23.17,0,0,0-4.32,3.13c-.58.87.49,9.59,1,11.11s2.69,10.68,2.69,11.54c0,.24-.07.28-.3.24C138.56,318.63,135.43,310.93,134.28,307.77Z"></path></g><g id="right_arm-2" data-name="right arm"><path class="cls-3" d="M100.64,295.38a9.57,9.57,0,0,0-.94-5.11c-1.49.31-9.25-.8-9.25-.8a67.16,67.16,0,0,1,2.7,8.48,43.53,43.53,0,0,1,1,7.56c.32,7.07,3.61,15.71,4.16,17.44a60.62,60.62,0,0,0,6.82,6.73,35.89,35.89,0,0,0,1.41-4.91c.77,1.19,3,3,4.31,2-.29-.49-2.34-2.37-2.85-4.49,0-.17-.49-.35-1.13-.53h0c-1.63-.44-4.44-.88-5-1.22s-.16-8.56-.07-11.92C101.77,306.39,100.54,297.48,100.64,295.38Z"></path><path class="cls-24" d="M101.71,308.59c.06-2.2-1.17-11.11-1.07-13.21a9.57,9.57,0,0,0-.94-5.11c-1.49.31-9.25-.8-9.25-.8.86,2.51,1.65,4.46,2.25,6.64a23.24,23.24,0,0,1,5.08,1.61c.84.64,2.58,9.25,2.55,10.86s.83,11,1.1,11.81c.07.22.15.24.35.12C101.08,320.24,101.62,312,101.71,308.59Z"></path></g><path id="t-shirt" class="cls-25" d="M100.29,272.33c2-1.29,8.06-2.48,11.43-3,3.67,4.66,13.39,4.76,14.54,1.28a29.73,29.73,0,0,1,8.53,4.39c2.06,1.58,6.67,12.16,7.45,15.87,0,0-6.47,3-8.63,3.49.12,4.48.17,9.77.27,15.09h0c0,4,.84,4.16,1.05,4.91.32,1.17-1.05,1.94-.73,2.55,0,0,.71.92.71,1.27s-.29.51-.72.77v0l-.28.12a14.46,14.46,0,0,1-3.44,1.2h0c-9.78,2.54-24.32.66-27.68-1.32,2.53-8.55,1.54-24.72.64-29.33l-5.29,4.85c-2.34-1.54-4.88-2.34-7-5.46C94.79,282.19,97.64,274.06,100.29,272.33Z"></path><path id="shadow-3" data-name="shadow" class="cls-26" d="M107.78,310.58c1.1,1.73-2.06,8.4-1.1,8.92,2.41,1.31,12.22,1.77,13.89,1.66,7.44-.48,12.7-1.83,13.39-2.68a9.72,9.72,0,0,0-.29-1,25,25,0,0,1-6.15,2.08c3.31-1.15,5.43-2.24,5.89-3.4,0,0,.2-17.69.2-21.81.12,4.48.17,9.77.27,15.09,0,4,.84,4.16,1.05,4.91.32,1.17-1.05,1.94-.73,2.55,0,0,.71.92.71,1.27s-.29.51-.72.77v0l-.28.12a14.46,14.46,0,0,1-3.44,1.2h0c-9.78,2.54-24.32.66-27.68-1.32,2.53-8.55,1.54-24.72.64-29.33,1.26,3.21,1.23,15.52,1.57,20C105,310.14,107.63,310.35,107.78,310.58Z"></path><path id="color_sleeves" data-name="color sleeves" class="cls-27" d="M100.32,272.11c2.08-1.13,8-2.26,11.4-2.75,3.67,4.66,13.39,4.76,14.54,1.28a29.73,29.73,0,0,1,8.53,4.39c2.06,1.58,6.67,12.16,7.45,15.87,0,0-6.47,3-8.63,3.49,0,0,.21-10.36-.55-13.92a10.62,10.62,0,0,0-6.1-7.73c-4.59,5.53-14.89,1.67-16.49-1.29-5.38,2.42-6.36,10.31-7.08,18.24l-2.91,6.89c-2.34-1.54-7.57-4.23-9.7-7.35C92.29,283.63,97.1,273.86,100.32,272.11Z"></path><path class="cls-28" d="M122.28,236.23a2.74,2.74,0,0,1-.78,3.65A4.27,4.27,0,0,0,122.28,236.23Z"></path><path class="cls-28" d="M128.62,239.64a2.08,2.08,0,0,1-.84-2.73A3.22,3.22,0,0,0,128.62,239.64Z"></path><g id="left_arm" data-name="left arm"><path class="cls-3" d="M296.19,198.55c-.73-2-.33-15.54.29-21.14,1.11-10.12,1-15.55,1.4-18.86,1-2.05,4.45-6.3,7.11-11a95.67,95.67,0,0,1-12-10.7c-4.43,6-6.42,15.75-9.45,20.09-.7,1.79-1.11,7.69.62,16.51,1.33,6.83,4.84,20.52,3.19,26.16-.24.85.4,12.71.38,13.59,4.45-2,10.41-4.84,12.15-7.84C299.93,204.34,297.53,202.25,296.19,198.55Z"></path><path class="cls-24" d="M292.58,137.48l.41-.58a95.67,95.67,0,0,0,12,10.7c-2.66,4.65-6.14,8.9-7.11,11-.44,3.31-.29,8.74-1.4,18.86-.58,5.25-1,17.47-.42,20.63-1.92-8.26-.36-36.31-.46-39.48,0-.66,5.52-8.91,5.56-9.73C301.25,147.05,295,140.11,292.58,137.48Z"></path></g><path id="right_hand" data-name="right hand" class="cls-3" d="M287.35,199.66c-.2,6.52-.68,13.85-.39,15.22.92,4.32,6.09,11.19,6.69,11.76,1.05,1,9.88,3.12,9.88,3.12.75-1.44,0-2.36-.82-2.6,1.51-1.07,4.34-2.63,2.38-4.52.22-.65.58-2.07-.08-2.64s-1.38.17-2.24.41c-1.6.47-3.67,1.28-4.77,0s-1.69-7.3-2.67-8.86c.68,0,4.28,3.66,5.62,4.92,1.55,1.45,4.1,3.65,5.74,1.64.95-1.17-2.89-5.66-3.57-8.77-1.64-3.55-4.25-5.6-5.48-7.4"></path><g id="neck-2" data-name="neck"><path class="cls-3" d="M342.69,90.86l-14.62-.71c.13,6.44,3.27,19-5.68,20.31,1.5,7.44,21.16,12,26.74-1.13C341.44,108.8,341.94,98.21,342.69,90.86Z"></path><path class="cls-4" d="M343.93,106c-2.13-3.83-1.75-10.23-1.24-15.17l-14.62-.71c.05,2.71.64,6.52.63,10.11C331.54,102.36,338,105,343.93,106Z"></path></g><g id="ears"><path class="cls-29" d="M314,65.63c-3.24-7.48-9.72-7.64-9.14,1.85.26,4.14,8.41,16.66,10.32,7.2Z"></path><path class="cls-30" d="M356.67,65.24c3.1-7.53,9.58-7.81,9.17,1.69-.18,4.14-8.11,16.81-10.19,7.38Z"></path></g><path id="face-2" data-name="face" class="cls-3" d="M356.8,41.05c-20.14-7.35-45.3,3.8-45.3,3.8-.26,13.76,1.41,39.26,3,42.72,1.26,2.81,15,11.75,21.66,11.8,6.47,0,20.44-10.88,21.08-13.61C359.63,75.35,358.5,51.17,356.8,41.05Z"></path><path id="highlight-3" data-name="highlight" class="cls-6" d="M311.41,44.58c-.26,13.76,1.41,39.25,3,42.72.81,1.83,6.91,6.24,12.9,9.12h0c-4-2.54-8.69-5.56-10.24-9.18-1.49-3.45-4.35-29-.8-44.49C313.22,43.78,311.41,44.58,311.41,44.58Z"></path><path id="shadow-4" data-name="shadow" class="cls-7" d="M316.76,42.58l-1.12,3.28c13.57,4.59,35-.88,36.74,1.65,2.68,4,4.22,34.21,1.88,38.65C351.17,92,344.07,96.87,336,99.09c6.47,0,20.44-10.87,21.08-13.6,2.42-10.41,1.29-34.59-.41-44.71C342.26,35.51,325.23,39.75,316.76,42.58Z"></path><path id="teeth" class="cls-13" d="M336.23,86.42a68.85,68.85,0,0,1,7.54.18L342.45,86A13.62,13.62,0,0,0,336,84.38c-3.77,0-7.28,2.47-8.49,3.38A27.69,27.69,0,0,1,336.23,86.42Z"></path><g id="nose-2" data-name="nose"><path class="cls-31" d="M331.12,77.62a6.15,6.15,0,0,0,4.35,1.81c.94.08,4.19-1.35,4.39-1.05l.72.15c-1.31.21-3.08,2.07-4.94,2.24-1.58.14-2.89-1-4.06-2C331.39,78.49,331.44,78,331.12,77.62Z"></path><path class="cls-6" d="M335.94,65.31c.48,2.38,3.73,10.35,3.59,11-.11.51-3.7,2.59-3.69.82C335.85,75.13,335.94,65.31,335.94,65.31Z"></path><path class="cls-32" d="M330.17,77.83c.15-.57,2.39-8,2.41-8.22.21.55-.47,7.61.2,8.75A5.57,5.57,0,0,0,335.41,80c1.67,0,3.86-1.43,5.17-1.51-.47.17-3.79,2.69-4.57,3a4.08,4.08,0,0,1-3.28,0C331.82,81.35,329.68,79.75,330.17,77.83Z"></path></g><g id="eyes-2" data-name="eyes"><g id="eyes-3" data-name="eyes"><g id="eye"><path class="cls-13" d="M349.91,62.92c-2.44-1.4-10.28-1.71-9.11,2.71l2.28,1.18a18.85,18.85,0,0,1,6.07.09c.21-.17.78-.79,1.1-1.14A5.15,5.15,0,0,0,349.91,62.92Z"></path><path class="cls-14" d="M344.35,62.06a2.33,2.33,0,1,0,2.87.06A12,12,0,0,0,344.35,62.06Z"></path><path class="cls-33" d="M347.28,64a1.54,1.54,0,1,1-1.52-1.58A1.54,1.54,0,0,1,347.28,64Z"></path><path class="cls-13" d="M344.69,63.76a.65.65,0,0,1-.91-.2.66.66,0,0,1,.2-.92.64.64,0,0,1,.91.19A.67.67,0,0,1,344.69,63.76Z"></path><path class="cls-33" d="M350.06,63.16c-.27-1.12-5.29-2.77-8.83-.27-.24.27-.64,1-.5,1,2.15-1.7,8.51-1.49,9.6.11Z"></path></g><path id="eyebrow" class="cls-34" d="M351.41,56.15c-2.47-.92-8.84-1.42-10.25-.17-.67.58-1.43,2-1.28,2.45.78.94,8.27-.93,12.51.67C352.8,57.28,351.58,56.73,351.41,56.15Z"></path></g><g id="eyes-4" data-name="eyes"><g id="eye-2" data-name="eye"><path class="cls-13" d="M319.31,63.2c2.42-1.44,10.25-1.9,9.17,2.54L326.22,67a18.74,18.74,0,0,0-6.07.19A14.64,14.64,0,0,1,319,66,5.09,5.09,0,0,1,319.31,63.2Z"></path><path class="cls-14" d="M325,63.07a2.38,2.38,0,0,1-1.3,4.3,2.37,2.37,0,0,1-1.57-4.18A12,12,0,0,1,325,63.07Z"></path><path class="cls-33" d="M322.06,65a1.55,1.55,0,1,0,1.5-1.61A1.55,1.55,0,0,0,322.06,65Z"></path><path class="cls-13" d="M324.65,64.78a.66.66,0,0,0,.91-.22.68.68,0,0,0-.22-.92.64.64,0,0,0-.9.22A.67.67,0,0,0,324.65,64.78Z"></path><path class="cls-33" d="M319.16,63.44c.26-1.12,5.25-2.87,8.83-.43.25.27.67,1,.52,1-2.18-1.67-8.53-1.33-9.59.28Z"></path></g><path id="eyebrow-2" data-name="eyebrow" class="cls-34" d="M317.69,56.46c2.45-1,8.81-1.58,10.25-.37a4,4,0,0,1,1.33,2.44c-.77.95-8.29-.78-12.5.89C316.33,57.61,317.53,57,317.69,56.46Z"></path></g></g><g id="hair-3" data-name="hair"><path id="hair-4" data-name="hair" class="cls-35" d="M361.3,30.34c-7,1.74-11.29-1.21-23-3.21-10.12-1.72-26.33.73-29.52,6.14.76,2.2.46,5.27-3.09,7.08-1.24.69,1.73,17.13,3.42,19.94,1.61.49,2.32,6.9,3.2,10.77,0,0,1.16-23.61,2.62-25.33,21.45,4.1,34.52-2.8,40.46-1.49,2.4,6.73,1,18.52,2.52,25.64,1.26-4.49,2.11-10,3.54-10.06C362.77,55.25,366.34,42.22,361.3,30.34Z"></path><path id="shadow-5" data-name="shadow" class="cls-36" d="M305.42,41.07c-.37,3.3,2.17,16.7,3.68,19.22,1.61.49,2.32,6.9,3.2,10.77,0,0,1.16-23.61,2.62-25.33,21.45,4.1,34.52-2.8,40.46-1.49,2.4,6.73,1,18.52,2.52,25.64,1.26-4.49,2.11-10,3.54-10.06,1.33-4.57,4.9-17.6-.14-29.48,1.85,7.43-9.37,8.6-5.12,2.66-3.45,1-14.46,5.27-15.74,2.15-.8-1.36,2.56-3.55,4.76-3.6-6.91-3.83-27.63,11.28-30.09,4.14-2.79,4.07-4.23,11.41-6.69,11.7-2.19.11-3-6.16-2.74-7A3.78,3.78,0,0,0,305.42,41.07Z"></path></g><g id="shoes-2" data-name="shoes"><path class="cls-37" d="M372,372.41c-4.89-5.83-16.19-.36-20,4.47l.27,3.38,4.69,1.46c2.37.36,15.44.06,20.08-.32C378.34,374.45,372.19,375.47,372,372.41Z"></path><path class="cls-38" d="M376.1,376.34c-.26.22-3.69,2.21-16.27,1.24-.74-.05-2.38-.29-2.61-1.08-.18-.62,4.87-6,14.83-3.78a1.55,1.55,0,0,1-.06-.31c-4.89-5.83-16.19-.36-20,4.47l.27,3.38,4.69,1.46c2.37.36,15.44.06,20.08-.32C377.53,378.82,377,377.34,376.1,376.34Z"></path><path class="cls-37" d="M310,372.57c-5.38,4.85-15.08,2-12.94,8.14,7.81,2.44,15.22,1.26,22.46.07,5.25-.86,8.07-1.35,12-1.75,1.49-.15-.89-7.06-.89-7.06C325.25,369.1,315.42,367.71,310,372.57Z"></path><path class="cls-38" d="M310,372.57a9.36,9.36,0,0,1-1.25.95c3,.06,7,.2,8.82.9,1.24.48,2.87,1.29,3.47,2.84.38,1-6.57,2.11-8.11,2.35-4.56.72-8,1-12.5-.24a9,9,0,0,1-2.94-1.88h0a4.47,4.47,0,0,1-.6.88,3.5,3.5,0,0,0,.17,2.34c7.81,2.44,15.22,1.26,22.46.07,5.25-.86,8.07-1.35,12-1.75,1.49-.15-.89-7.06-.89-7.06C325.25,369.1,315.42,367.71,310,372.57Z"></path></g><g id="jeans"><path id="jeans-2" data-name="jeans" class="cls-39" d="M372,372.41c1.74-3.7-2.42-4.66-2.65-6.32-3.19-23.17-2.43-66.27-2.88-72.28-1.4-14.07,1.66-61.46,1.66-67,0-2.39-3.56-21.54-3.56-21.54l-54.72,1.78s-2,17.56-2,18.48c.07,4.63,3.36,24.86,4.6,64.23,2,14.43.72,65.26-.14,72.69-.16,1.36,1.52,3.52,1.39,4.07s-2.32,1.16-2.32,1.16c-.12.28-1.66,3.22-1.14,4.65,4.67-.2,18.91,4.92,22.58,4.07.69-1.47.91-8.11.91-8.11s-1.11-74.31-1.11-80c0-9.5.7-39.71,1.32-56.34,0,0,3.41-.16,5.36,1.83s5.61,33.39,7.34,61.37c.76,12.21,2.7,50.23,3.25,70.91l1.9,4.64s-2.43,4.36.19,6.12C355,374.45,365.53,369.43,372,372.41Z"></path><path id="highlight-4" data-name="highlight" class="cls-40" d="M348.51,291.88s3.53,2.9,4.84,2.61c4.87-1.09,9.88-3.52,10.6-5,0-.79,1.88-45.93,2.58-59.61,0,0-8.6-5.07-10.58-12.47-16.46-.74-35.47,5.63-46.69,1.21a47.24,47.24,0,0,0-1,5.95l7.44,2.34s-7,0-6.9,1.14c.16,3,.21,8.18.26,14.36,1,10.85,2.26,26.44,2.92,47.32.1.73.19,1.55.27,2.45,0,0,4.57,3.67,5.86,3.86s9.28-2.27,10.23-3.82c.54-.87.68-48.44,1.92-59.6-1.39-.61-6.45-5.81-6.94-5.78,6.77.35,16.12,3.73,19.85,4-.24,1.89-1.43,3.25-1.35,5.78C344.56,249.46,347.14,284.77,348.51,291.88Z"></path></g><path id="lighter_t-shirt_below" data-name="lighter t-shirt below" class="cls-20" d="M365.34,210.92s-3.63-73.43-3.59-73.92l7.54,24.81c12.63-4.2,19.41-9.08,19.41-9.08-7.4-17.08-31.91-41-38.14-42.84l-3.47-1.83c-3.39,6-17.07,7.35-22.07.81l-3,1.84s-12.65,95.6-12.69,95.76c-1.35,6.64-2.85,9-.64,10.8,12.05,5.84,38.22-3.88,57.44-1A6.81,6.81,0,0,0,365.34,210.92Z"></path><path id="lighter_t-shirt_below-2" data-name="lighter t-shirt below" class="cls-20" d="M297.2,126.53a89.32,89.32,0,0,0-14.57,23.24s5,3.5,17.66,7.7l7.81-23.33Z"></path><path id="t-shirt-2" data-name="t-shirt" class="cls-41" d="M367.52,209.92l-.57-2.21.59-2.66c.12-2.55-1.41-1.74-1.74-5.47,0-.06,0-.12,0-.17-.52-15-.86-49.42-.81-49.9l3.15,10.73a107.54,107.54,0,0,0,20.38-9.39c-7.4-17.08-14.56-31.09-16.54-33.73s-22.83-8.25-22.83-8.25c-3.37,7.37-21,8.44-26.1,1l-18.4,7c-2.84,3.16-19.07,21.77-23.1,32,6.89,2.2,12.68,3.81,19.59,8.42l6.86-7c.09,1.81,1.41,23,1.43,39.7-.32,5.34-.07,7.48-1.73,10.7-.86,1.66-.69,2.08.16,3.73.23.47.57.95.87,1.44,0,.18-.07.35-.1.51-1.36,6.64-1.84,6.52.36,8.36,12,5.84,38.72-2.89,57.94,0C369.22,210.64,367.52,209.92,367.52,209.92Z"></path><path id="shadow-6" data-name="shadow" class="cls-42" d="M364.53,125.35c-1.74,13.19-1.45,29.21-.79,40.39.13,2.19,1.26,34.61-.37,37.13s-15.72,8.19-18.18,8.56A69.78,69.78,0,0,0,364,205.77s.16,4.54-.46,4.92c-5.65,3.45-25.4,3.76-28.57,4.26-9.91,1.56-23.72,0-25-1.94,0,0,.06-5.13.1-5.1,1.83,1.46,9.3,2.78,15.88,3.57-.24-.14-11.87-2.46-14.62-5.67s-.18-11.46-.18-11.49c.6-18.16-2-19.48-2-68.38-.81,7.43-1.21,24.37-1.21,24.37.09,1.81,1.41,23,1.43,39.7-.32,5.34-.07,7.48-1.73,10.7-.86,1.66-.69,2.08.16,3.73.23.47.57.95.87,1.44,0,.18-.07.35-.1.51-1.36,6.64-1.84,6.52.36,8.36,12,5.84,38.72-2.89,57.94,0,2.31-4.11.61-4.83.61-4.83l-.57-2.21.59-2.66c.12-2.55-1.41-1.74-1.74-5.47,0-.06,0-.12,0-.17-.52-15-.86-49.42-.81-49.9A198.57,198.57,0,0,1,364.53,125.35Z"></path><g id="left_arm-2" data-name="left arm"><path class="cls-3" d="M363.82,212.51c1.3-1.68,5-14.7,6.11-20.23,2-10,3.79-15.11,4.37-18.41-.31-2.24-2.34-7.34-3.47-12.58a96.93,96.93,0,0,0,14.68-6.57c2.41,7,1.35,16.95,2.93,22,.13,1.91-1.27,7.66-5.58,15.55-3.34,6.1-11.36,21-11.49,26.9,0,.88-3.69,9.06-3.93,9.91-3.64-3.24-8.46-7.77-9.21-11.15C358.5,216.91,361.43,215.64,363.82,212.51Z"></path><path class="cls-24" d="M385.71,155.4c-.06-.23-.13-.46-.2-.68a96.93,96.93,0,0,1-14.68,6.57c1.13,5.24,3.16,10.34,3.47,12.58-.58,3.3-2.36,8.43-4.37,18.41-1,5.18-4.36,16.95-5.84,19.79,4.33-7.29,11.33-34.5,12.38-37.49.21-.63-2.57-10.17-2.36-11C374.56,161.9,382.61,157.16,385.71,155.4Z"></path></g><path class="cls-43" d="M332.86,88.12s3.84-1,5.55,0A16.41,16.41,0,0,0,332.86,88.12Z"></path><g id="right_arm-3" data-name="right arm"><path class="cls-3" d="M161,317c-.18-3.94-.68-5.49-1-10.6a49,49,0,0,1,.35-6.46c.77-4.42,3.93-18.07,6.17-23.27a1.72,1.72,0,0,1,2.9-.24c1.6,3.35,2,9.66,2.35,9.85-1.21,1.4-3,7.17-5,14.21-.21.74.19,3.44-.29,5.57-1.41,6.29-2,11.54-.21,13,.83,1,1.5,3.73,1.92,4.52a20,20,0,0,0-.12,2.55c-.46,1.51.33,2.83-.4,2.9-2.1-.78-1.08-4.52-1.89-4.68s-1,1.64-1.2,2.07a19.94,19.94,0,0,0,.78,4.48c.21.7.08,1.92-.57,1.92a14.35,14.35,0,0,1-1-1.49,10.58,10.58,0,0,1-1.78-.91,27.18,27.18,0,0,1-1.91-2.45c.19-.41-1-4.92-.46-5.82A13,13,0,0,0,161,317Z"></path><path class="cls-44" d="M165.67,301.27c.66,4.3-1.52,11.72-.7,15.4a6.19,6.19,0,0,0,.65,1.94,1.58,1.58,0,0,1,.67.43c-1.82-1.42-1.2-6.67.21-13,.48-2.13.08-4.83.29-5.57,1.8-6.43,3.43-11.8,4.63-13.74-3.19-1-6-2-7.38-2.61-.74,2.65-1.47,5.52-2.09,8.15,1.86,1.45,3.8,2.93,4.68,3.54C166.5,296.18,165.44,299.71,165.67,301.27Z"></path></g><path id="hair-5" data-name="hair" class="cls-45" d="M196.93,264.91c5-5.64,11-37.49,3.09-44.18-24.13-18.68-45,6-46.41,16.75C152,241,163.24,265.77,170.27,268,174.59,264.53,193.67,263.51,196.93,264.91Z"></path><g id="neck-3" data-name="neck"><path class="cls-3" d="M186.13,253.61l-8.93-.29c1.91,16.09-.44,17.13-3.43,18.14,11.6,7.13,18.7.23,16.43-5C185.52,270.45,184.33,261.21,186.13,253.61Z"></path><path class="cls-4" d="M187,266.94c-1.92-1.71-2.15-7.93-.87-13.33l-8.93-.29a65.09,65.09,0,0,1,.61,11.86C179.71,266.79,185.08,267.86,187,266.94Z"></path></g><path id="face-3" data-name="face" class="cls-3" d="M201.2,225.34s-30.21-9-47.12,12.93c-1.43,17.68,14.65,25.37,26.35,25C208.63,262.2,206.34,234.39,201.2,225.34Z"></path><path id="shadow-7" data-name="shadow" class="cls-7" d="M201.2,225.34a12.51,12.51,0,0,1-4.68.35c4.72,5.46,5.5,17.3,4.41,21.84-2,8.37-8.57,13.64-16.9,15.4C208.41,259.75,206.11,234,201.2,225.34Z"></path><path id="highlight-5" data-name="highlight" class="cls-6" d="M170,226.44a36.19,36.19,0,0,0-15.89,11.83C153,251.4,161.61,259,170.89,261.9c-8.59-2.83-7.9-24.65-6.66-26.35Z"></path><g id="cheeks-2" data-name="cheeks"><path class="cls-46" d="M175.43,252.37a7.54,7.54,0,1,1,.17-10.65A7.52,7.52,0,0,1,175.43,252.37Z"></path><path class="cls-47" d="M199.58,251.5a7.53,7.53,0,1,1,.17-10.66A7.53,7.53,0,0,1,199.58,251.5Z"></path></g><path id="smile-2" data-name="smile" class="cls-8" d="M191.63,258.08c-6.31-4.39-14.26-.4-14.26-.4C182.38,253.78,187.78,254.09,191.63,258.08Z"></path><g id="nose-3" data-name="nose"><path class="cls-9" d="M186.11,249.32c0,2.51-3.15,3-4.94,1.74l-.17.66a4.36,4.36,0,0,0,3.69,1.25C185.6,252.73,186.93,250.75,186.11,249.32Z"></path><path class="cls-10" d="M184,247.44c-.75-.28-2.4,1.95-2.39,2.46,0,1,2.19,1.94,3.14.84A2.25,2.25,0,0,0,184,247.44Z"></path></g><g id="eyes-5" data-name="eyes"><path class="cls-13" d="M189,244.42a8,8,0,0,1,3.77-.2,8.47,8.47,0,0,1,3,1.13l.3-.44c.9-2-.22-6.16-4.83-5.61-1.85.22-3,2.76-2.54,4.46A2.64,2.64,0,0,0,189,244.42Z"></path><path class="cls-14" d="M196.28,244a4,4,0,0,1-1.25,1,8.82,8.82,0,0,0-2.31-.74c-.32-.05-.63-.08-.94-.11s-.34-.05-.51-.06a3.93,3.93,0,0,1-.5-1.38,3.7,3.7,0,0,1,1-3.23.77.77,0,0,0,.19-.19A4.1,4.1,0,0,1,196.28,244Z"></path><path class="cls-15" d="M193.53,239.92a1.51,1.51,0,0,1,.3,0,2.61,2.61,0,0,0,1.22.45,4.17,4.17,0,0,1,1.19,2.24,3.06,3.06,0,0,1-.87,1.18,1.82,1.82,0,0,1-1.13.67,2.31,2.31,0,0,1-.71-4.52Z"></path><path class="cls-13" d="M193.66,240.5a.76.76,0,0,1-1,.45.77.77,0,1,1,.53-1.44A.77.77,0,0,1,193.66,240.5Z"></path><path class="cls-15" d="M189.36,240.47a3.92,3.92,0,0,1,3.33-1.51,4,4,0,0,1,1.81.57,3.82,3.82,0,0,1,1.3,1.35,4.94,4.94,0,0,1,.42,3.52,6,6,0,0,0-.91-3.21,3.48,3.48,0,0,0-2.66-1.48,3.6,3.6,0,0,0-2.85,1.14,4.77,4.77,0,0,0-1.12,3.09A4.18,4.18,0,0,1,189.36,240.47Z"></path><path class="cls-48" d="M186.6,239.48s.07.69.5.65c1.07-1.1,5-4.12,7.8-2.55C193.83,235.6,188.23,236.06,186.6,239.48Z"></path><path class="cls-13" d="M170.19,246.81a8.36,8.36,0,0,1,3.1-.71,7.72,7.72,0,0,1,3.88.78l.09-.12c1-2-.31-6.18-5.24-5.68-2,.19-3.22,2.73-2.67,4.43A3,3,0,0,0,170.19,246.81Z"></path><path class="cls-14" d="M173.29,246.1c-.28,0-.56,0-.82.07a5.07,5.07,0,0,1-.81-1.71,3.52,3.52,0,0,1,1-3.23.76.76,0,0,0,.26-.19c3.61.06,4.88,2.86,4.58,4.85a2.47,2.47,0,0,1-1,.68A8.55,8.55,0,0,0,173.29,246.1Z"></path><path class="cls-15" d="M174.58,241.74l.29,0c1.2.8,2.22,1.45,2.4,2.71a2,2,0,0,1-.68,1.2,1.93,1.93,0,0,1-1.17.65,9.36,9.36,0,0,0-1.08-.15,2.44,2.44,0,0,1-1.47-1.83A2.11,2.11,0,0,1,174.58,241.74Z"></path><path class="cls-13" d="M174.73,242.32a.83.83,0,0,1-1.06.44.77.77,0,0,1-.49-1,.83.83,0,0,1,1-.44A.78.78,0,0,1,174.73,242.32Z"></path><path class="cls-15" d="M170.06,242.23a4.22,4.22,0,0,1,3.55-1.47,4.61,4.61,0,0,1,1.95.59,4.11,4.11,0,0,1,1.41,1.37,4.71,4.71,0,0,1,.49,3.53,5.77,5.77,0,0,0-1-3.22,3.87,3.87,0,0,0-2.87-1.52,3.92,3.92,0,0,0-3,1.1,4.52,4.52,0,0,0-1.16,3.08A3.93,3.93,0,0,1,170.06,242.23Z"></path><path class="cls-49" d="M168.14,239.66c2.21-2.47,7.74-2.25,9.82.09-3.06-1.46-5.41-.67-9.26,1.13C168.7,240.88,166.93,241,168.14,239.66Z"></path></g><g id="hair-6" data-name="hair"><path id="hair-7" data-name="hair" class="cls-50" d="M206.8,255.47c1.79-4.39,1.48-25.71-5.66-35.45a27.49,27.49,0,0,0-20.87-9.52c-13.68.08-29.15,10.93-28.24,30.72a104.74,104.74,0,0,0,2.36,19.14l4.63,1.83s.74,1.52,1,1.82c.51.16,7.89,3.81,10.28,4-8.82-8.12-8.13-29.5-7.66-30.8,3.33-.23,18.39-8.83,20.94-10.11-3.49,4.1-8.11,6.43-13.48,8.69C183,233.19,196.81,226,196.81,226c4.52,1.84,10.7,17.92.12,39C196.93,264.91,205.11,259.6,206.8,255.47Z"></path><path id="shadow-8" data-name="shadow" class="cls-51" d="M170.07,235.78C183,233.19,196.81,226,196.81,226a13.9,13.9,0,0,0,3.75-6.56,28.15,28.15,0,0,0-11.73-7.56c-2.69.15-27,.6-31.93,22.76-3.39,5.6-.17,21.46,2.23,27.56a.36.36,0,0,1,0,.22A17,17,0,0,0,160,264c.51.16,7.89,3.81,10.28,4-8.82-8.12-8.13-29.5-7.66-30.8,3.33-.23,18.39-8.83,20.94-10.11C180.06,231.19,175.44,233.52,170.07,235.78Z"></path><path id="hairclip" class="cls-52" d="M156.87,233.61a9,9,0,0,0-.9,2c.3,1.09,4.81,3.06,6.5,3.47a6.3,6.3,0,0,0,.78-2.14A20.11,20.11,0,0,1,156.87,233.61Z"></path></g><g id="shoes-3" data-name="shoes"><path class="cls-52" d="M177.4,376.2c-4.46-2-9.12,1.9-9.12,1.9,0,1.51,0,2.47,0,2.47a12.17,12.17,0,0,0,3.4,1.19c2.54-.08,8.12.29,9.53-.91C181,377.69,177.82,377.46,177.4,376.2Z"></path><path class="cls-13" d="M173.58,378.36c-1,.53-1.79,1.17-2.64,1.65s-1.85,0-2.65-.33c0,.56,0,.89,0,.89a12.17,12.17,0,0,0,3.4,1.19c2.54-.08,8.12.29,9.53-.91a3.69,3.69,0,0,0-1.47-2.75h-.06C178.76,377.4,175.08,377.52,173.58,378.36Z"></path><path class="cls-13" d="M177.55,376.28c-.4-.82-3.16-.74-4.2-.35a7.22,7.22,0,0,0-1.91,1c-.66.45.07.77.49.7a6.12,6.12,0,0,0,1.37-.64,5.61,5.61,0,0,1,2.54-.5C177,376.53,177.84,376.89,177.55,376.28Z"></path><path class="cls-52" d="M191,376.31c.56-.33,2.36.56,3.43.55,2.48,0,3.18-1.94,5.63-1.79l2.83,2.16s1.15.52,1.16.51c3.53.06,5.37.23,5.93,3.69-2.66.83-16.42.05-19.67-.28A8.32,8.32,0,0,1,191,376.31Z"></path><path class="cls-13" d="M210.16,381.47c-3,1-16.72.09-20-.23a5.05,5.05,0,0,1,0-1.35c3.76.15,9.54.72,10.51.26.66-.31,1.78-1.53,3.36-2.41C207.28,377.61,209.54,377.74,210.16,381.47Z"></path><path class="cls-13" d="M198.62,376.14c.86-.74,2.61-1.19,3.17-.06,1,.16,1.68.8,1.3,1.23-.59-.28-2.11.56-2.66,1.06-1.38-.86.81-1.57,1.34-2-.6-.57-2.12.47-2.92.92C198.65,377.38,197.27,377.33,198.62,376.14Z"></path></g><g id="pants"><path id="pants-2" data-name="pants" class="cls-53" d="M198,344.67c0-8.33,1.52-19.78.77-30.5-.19-2.86-.52-6.85-.67-9.08a62,62,0,0,0-27.34,3.48c-.26,2.52-1.41,7.84-1.26,10.47.42,7.59.2,16.78.31,24.32.09,5.88-2,20.54-2,29.55,0,2.52-.55,5.32.28,5.92,2.5-2.72,8.22-4.15,10-2.72.71-1.43-.05-1.32-.13-2.36-.63-8.44.23-20.72,1.05-28.92s2.36-12.92,4.13-21c.78-.82,2.57-1.18,2.85-.6,1.14,2.27,2.68,18.17,2.93,23.47.43,9,.32,29.92.79,32,5.3.6,7.3-2.73,10.41-3.63C198,366.51,198,351.19,198,344.67Z"></path><path id="highlights" class="cls-54" d="M173.9,315.79c1.78.61,13.21,1.64,22.76-3.75.31.74,1.47,3.69,1.47,3.69.62,9.15-.34,28.66-.75,29.71s-1.64,2.69-2.57,2.82c-1.79.26-4.11-2.14-4.11-2.14-.71-5.77-1.58-23.21-1.49-23.89a3.69,3.69,0,0,1,.86-1.72c-2.83,1.8-10,1.56-10.7,1.55,1,.95,2.48.85,2.39,1.37-.2,1.23-3,21-3.22,23.06s-2.88,3.58-4.11,3.4a5.75,5.75,0,0,1-3.17-2.4c-.59-4.88,0-23.89.06-27.4C171.34,319.15,173.9,315.79,173.9,315.79Z"></path></g><g id="left_arm-3" data-name="left arm"><path id="arm" class="cls-3" d="M218.67,239.75l-4.84-1.49c-.89,2.94-7.32,17.23-8.21,18.43-2,2.67-9.93,9.81-13,13.21l2.06,10.79c2.19-2.56,15.31-17.3,15.86-18.36C214,255.53,217.29,243,218.67,239.75Z"></path><g id="shadows"><path class="cls-24" d="M213,240.55c.68.94,2.29,3,3.75,4.95.82-2.57,1.48-4.67,1.94-5.75l-4.84-1.49C213.68,238.75,213.38,239.55,213,240.55Z"></path><path class="cls-24" d="M202.93,271.23c2-2.27,3.94-4.5,5.36-6.17a35.15,35.15,0,0,0-5.82-4.93c-1.37,1.38-3,2.92-4.53,4.43C199.29,266.22,201.25,269,202.93,271.23Z"></path></g></g><g id="t-shirt-3" data-name="t-shirt"><path id="t-shirt-4" data-name="t-shirt" class="cls-20" d="M206.73,269.07c0-3-2.35-6.85-5.41-9.66-1.68,1.84-4.06,3.16-8.12,5.56-.71.42-3.9,1.73-4.33,2-.74,4.79-9.64,6.59-13.39,3.45,0,0-7.58,4-8.8,5.34S162,286.1,160.23,290.7a27.13,27.13,0,0,0,8.9,4.66l1.84-2.72a65.4,65.4,0,0,1-1.13,19.29c-1.42,5.87,25.66,3.28,29-3.15.92-1.48-.8-24-1.12-30.38C197.74,278.4,206.1,271,206.73,269.07Z"></path><path id="color_sleeves-2" data-name="color sleeves" class="cls-55" d="M160.23,290.7a27.13,27.13,0,0,0,8.9,4.66l1.84-2.72c1.08-6.67,3.08-19,4.15-20.42,4.63,3.18,13.95.66,14.87-3.52,0,0,4.75,1.89,7.75,9.7,0,0,8.36-7.45,9-9.33,0-3-2.35-6.85-5.41-9.66-1.68,1.84-4.06,3.16-8.12,5.56-.71.42-3.9,1.73-4.33,2-.71,4.64-9.06,6.45-13,3.72a2.28,2.28,0,0,1-.39-.27s-7.58,4-8.8,5.34S162,286.1,160.23,290.7Z"></path><g id="shadow-9" data-name="shadow" class="cls-56"><path class="cls-57" d="M171.32,311.14c1-4.45,1.25-21.71,1.3-28.39-.43,2.34-1.31,7.75-1.65,9.89a65.4,65.4,0,0,1-1.13,19.29c-.68,2.81,5.19,3.68,11.86,3.11h0C172,315,170.55,312.16,171.32,311.14Z"></path><path class="cls-57" d="M197.17,309c-.53,1.57-4.32,3.43-7.38,4.65,4.34-1.12,8-2.8,9.07-4.9.92-1.48-.8-24-1.12-30.38a23.46,23.46,0,0,0-2.07-4.17C199.26,284.68,198.2,305.52,197.17,309Z"></path></g></g><g id="hand_holding_girl" data-name="hand holding girl"><path id="right_hand-2" data-name="right hand" class="cls-3" d="M223.2,237.69c1-.43.05-4.53.64-6.73.13-2.78-1.22-5.49-1.4-7,.1-3.12,7.07-23.56,7.73-24.69l-8.89-3.42c-.56,3.26-1.59,21.3-4.7,24.15a93.24,93.24,0,0,0-4.81,9.2c-.84,3,.16,9.09.35,9.65.34,1,5.22,5.23,5.22,5.23,1-.66.78-1.5.34-1.91,1.31-.18,3.62-.23,3-2.08.35-.34,1-1.12.82-1.7s-.93-.35-1.55-.47c-1.17-.24-2.75-.41-3-1.6s1.34-5.19,1.24-6.49c.44.19,1.49,3.72,1.93,5C220.61,236.2,221.5,238.43,223.2,237.69Z"></path><path id="shadow-10" data-name="shadow" class="cls-4" d="M220.93,231c-.08-1.3-1.29-.83-1.52-4.39-.26,1-1.44,1.76-1.95,2.1a38.46,38.46,0,0,0-4.05.5c-.81.35-.78,1.44.49,2.13.16.08-1.91-.45-2.13.82-.26,1.51,1,2.15,2,2.38a.28.28,0,0,0-.32.27,1.65,1.65,0,0,0,1.39,2.09l-.06.16c-.75,2,5.51,1.34,6.72,1.34-.26-.64-.93-.35-1.55-.47-1.17-.24-2.75-.41-3-1.6s1.34-5.19,1.24-6.49c.44.19,1.61-.31,2.75,6.82C221.5,236,221,232.65,220.93,231Z"></path><path id="fingers_of_girl" data-name="fingers of girl" class="cls-3" d="M220.68,233.36c-.17-1.66.15-2.76-1.32-3.36a32.22,32.22,0,0,0-5.17-.83c-1.19.09-.74,1.8.92,2.08-.68.13-2.79-.24-2.94,1s2.18,1.14,3.3,1.49c-1.34-.16-2,.43-2,1-.06,1.06,1.63,1.27,3,1.14-.43.06-1.57.33-1.66,1.42s5.26,1.08,5.67.68C221.25,237.23,220.86,235.08,220.68,233.36Z"></path></g><path id="right_hand-3" data-name="right hand" class="cls-3" d="M293.15,221.48c-.95-.49.25-4.53-.21-6.76.05-2.78,1.57-5.4,1.84-6.93.1-3.12-5.58-23.95-6.15-25.13l9.08-2.85c.35,3.29.24,21.36,3.17,24.4a93.46,93.46,0,0,1,4.22,9.48c.65,3.08-.73,9.06-1,9.61-.4.95-5.54,4.89-5.54,4.89a1.18,1.18,0,0,1-.22-1.93c-1.29-.26-3.59-.46-2.85-2.26-.34-.36-1-1.19-.72-1.74s.95-.29,1.58-.38c1.18-.17,2.76-.24,3.1-1.41s-1-5.26-.82-6.56c-.45.17-1.73,3.63-2.24,4.84C295.83,220.15,294.81,222.32,293.15,221.48Z"></path><g id="hair-8" data-name="hair"><path id="hair-9" data-name="hair" class="cls-58" d="M274,57.49c-7.12-9-24.43-5.18-32-1.36-11.35,5.77-16.66,16.79-17.26,30.73s5,23,4.67,29.35c-.21,4-2.57,10-4.54,14.88-10.93,27.35,13.69,40.63,22.81,40.14,5-.26,39.63-27.43,41.3-30.94,4.7-9.88-1.87-17.46-2.37-24.07-.57-7.6,2.65-10.36,4.48-23.46C293.22,77.67,283,55.62,274,57.49Z"></path><g id="highlights_and_shadows" data-name="highlights and shadows"><path class="cls-59" d="M286.43,87.24c.74-10.44-12.45-23.87-15.67-24.59-6.95,10.26-30.09,21.75-30.94,22.24-.11-1.94.22-16.63.22-16.63-1.48,5.1-3.84,22.14,0,37.68,3.71,15-16.14,24-8.15,42.28,2.36,5.4,9.89,14.58,15.05,16.14,2.35.71,31.09-23.48,31.46-24.4,3.61-8.87.41-15,.6-22.69C279.19,110.09,284.91,108.71,286.43,87.24Z"></path><path class="cls-60" d="M224.77,86.86c-.6,13.84,5,23,4.67,29.35-.21,4-2.57,10-4.54,14.88-10.93,27.35,13.69,40.63,22.81,40.14,1,0,3-1.1,5.75-2.8a1.22,1.22,0,0,1,.44-.62c-1.36-.29-18.49.17-26.36-17.07-4.28-9.38,1-21,3.59-27,5.52-12.78-2.95-19.12-3-35.59,0-23.23,17.42-32.76,18.33-33.74l.08-.1h0c-.84.28-1.64.58-2.39.89l-.12.05-.88.38-.22.1-.91.44C230.68,61.9,225.37,72.92,224.77,86.86Z"></path><path class="cls-61" d="M239.87,76.67c-.06,3.66-.1,7.32-.05,8.22.81-.47,22-11,29.94-20.91,1.65-2.22,3.73-4.21,4.22-6.49a12.65,12.65,0,0,0-3.33-2.91c-3.81,7.21-23.85,18.78-30.76,21.86Z"></path><path class="cls-62" d="M239.87,76.67c0,.33,0,.67,0,1,4.22-1.34,25.79-12.75,31.83-22.39-.33-.24-.68-.48-1-.7-3.81,7.21-23.85,18.78-30.76,21.86Z"></path></g></g><g id="neck-4" data-name="neck"><path class="cls-3" d="M271.15,128.4c-8.91-2.17-6.73-16.86-6-19.22-2,.63-12.84,0-13.66,0,.49,1.4,5.12,17.94-4.63,19.36,0,0,4,18.63,13.61,18.1C265.69,146.35,270.66,135.46,271.15,128.4Z"></path><path class="cls-4" d="M266.65,125.26c-3.49-5.08-2.06-14.26-1.5-16.08-2,.63-12.84,0-13.66,0A36.23,36.23,0,0,1,253,118.1c2.23,3.54,11.05,7.91,13.65,7.16Z"></path></g><path id="face-4" data-name="face" class="cls-3" d="M240,82.45c24.68-15.32,28.9-16.27,28.9-16.27,7.06,5.93,14.3,14.6,14.31,18,.05,10.93-2.61,19-4.35,21.72-4.52,7-12.61,11.42-16.18,11.42-5.8,0-18.39-7.83-20.65-14C240.61,99.52,239.39,84.36,240,82.45Z"></path><path id="highlight-6" data-name="highlight" class="cls-6" d="M278,105.81c3.48-5.09,4.46-18.91,4.27-21.17-.19-4.71-13.44-18.46-13.44-18.46,7.06,5.93,14.3,14.6,14.31,18,.05,10.93-2.61,19-4.35,21.72-4.52,7-12.61,11.42-16.18,11.42C268.87,116.34,274.32,111.23,278,105.81Z"></path><path id="shadow-11" data-name="shadow" class="cls-7" d="M262.65,117.28c-5.8,0-18.39-7.83-20.65-14-1.39-3.75-2.61-18.91-2-20.82,24.68-15.32,28.9-16.27,28.9-16.27-9.41,7.57-26.48,15.55-26.62,17.48-.26,3.69,1,17.18,2.24,20.17C247.75,112,259,116.57,262.65,117.28Z"></path><g id="cheeks-3" data-name="cheeks"><path class="cls-63" d="M243.37,96.23a7.52,7.52,0,1,0,7.3-7.74A7.52,7.52,0,0,0,243.37,96.23Z"></path><path class="cls-64" d="M282.6,93a7.52,7.52,0,1,0-2,8.72l0,0A49.86,49.86,0,0,0,282.61,93Z"></path></g><g id="nose-4" data-name="nose"><path class="cls-65" d="M266.37,99c1.23-1.1.76-1.77.18-3.11-.9-2-2.48-4.15-.76-8.41l.14.95c0,5.89,3.1,8.53,3.27,9.21.33,1.38-.68,2.23-2,2.71a8.3,8.3,0,0,1-4.64,0A6.55,6.55,0,0,0,266.37,99Z"></path><path class="cls-66" d="M266.37,99c1.23-1.1.83-1.81.18-3.11-1.2-2.41-2.43-4.71-.76-8.41l-.13,1.18c-.57,4.46,2.26,8.4,2.42,9.08.34,1.39-2.91,2.94-5.49,2.58A6.55,6.55,0,0,0,266.37,99Z"></path></g><g id="eyes-6" data-name="eyes"><g id="eye-3" data-name="eye"><path class="cls-13" d="M252.8,85.85c-2.28.33-4.37,1.61-4.8,3.82l1.12,1.15c2.4.41,7.33.24,9-1.94C256.61,87.09,255.19,85.51,252.8,85.85Z"></path><path class="cls-14" d="M252.8,86a4.36,4.36,0,0,1,2.29.91,2.51,2.51,0,0,1-.79,3.82A11.51,11.51,0,0,1,253,91a2.51,2.51,0,0,1-2.34-2.5A2.53,2.53,0,0,1,252.8,86Z"></path><path class="cls-33" d="M251.46,88.47a1.68,1.68,0,1,0,1.67-1.68A1.67,1.67,0,0,0,251.46,88.47Z"></path><path class="cls-13" d="M254,87.76a.73.73,0,1,0,.73-.73A.73.73,0,0,0,254,87.76Z"></path><path class="cls-33" d="M257.36,87.38a5.15,5.15,0,0,0-1.35-1,6.61,6.61,0,0,0-3.16-.63,5.94,5.94,0,0,0-3.07,1,4.9,4.9,0,0,0-1.95,2.67,8.16,8.16,0,0,1,4.95-2.25c2.33-.24,4.76.72,5.36,1.64A2.8,2.8,0,0,0,257.36,87.38Z"></path></g><path id="eyebrow-3" data-name="eyebrow" class="cls-67" d="M257.57,82.13a1.6,1.6,0,0,1,.49,1.11c-.42.51-4.18-.91-6.92-1.06A6.8,6.8,0,0,0,246,84C248.21,79.33,254,79.79,257.57,82.13Z"></path><g id="eye-4" data-name="eye"><path class="cls-13" d="M274.52,85.81c2.17,0,4.31.86,5.05,2.94L278.7,90c-2.17.78-6.78,1.4-8.69-.43C271.16,87.61,272.24,85.86,274.52,85.81Z"></path><path class="cls-14" d="M273.62,85.94a3.91,3.91,0,0,0-1.79,1,2.5,2.5,0,0,0-.41,1.82,2.46,2.46,0,0,0,1.72,2,11.92,11.92,0,0,0,1.34,0,2.49,2.49,0,0,0,1.84-2.8A2.46,2.46,0,0,0,273.62,85.94Z"></path><path class="cls-33" d="M275.49,88.13a1.64,1.64,0,1,1-1.89-1.36A1.64,1.64,0,0,1,275.49,88.13Z"></path><path class="cls-13" d="M273,87.84a.72.72,0,1,1-.83-.59A.73.73,0,0,1,273,87.84Z"></path><path class="cls-33" d="M270.5,88a4.68,4.68,0,0,1,1.11-1.15,5.93,5.93,0,0,1,2.84-1.12,5.5,5.5,0,0,1,3,.51,4.77,4.77,0,0,1,2.22,2.28A5.79,5.79,0,0,0,274.79,87c-2.17.21-4.36,1.58-4.78,2.57A2.76,2.76,0,0,1,270.5,88Z"></path></g><path id="eyebrow-4" data-name="eyebrow" class="cls-67" d="M270.41,82.47a1.6,1.6,0,0,0-.57,1.07c1,.48,3.56-.93,6.31-.88,1.7,0,3-.11,4.18,1.36C278.88,79.58,274.16,80.4,270.41,82.47Z"></path></g><g id="legs-2" data-name="legs"><path class="cls-68" d="M271.4,359.14c.63,2.23,1.27,18.81.69,21.32h-11.8c3-2.63-.91-13.31,3-30.17,2.67-19.37,1.22-27.34.67-40.78-.5-12.18,1.16-36.34-.83-43.8l12.29,7.66c.21,7.94,3.88,19.14,3.88,28.45,0,11.7-5,24.87-7.84,38.72-1.08,5.23-1.63,8.5-1.64,11.43C269.81,355.18,270.11,354.62,271.4,359.14Z"></path><path class="cls-4" d="M276,279.19a53.59,53.59,0,0,0-12-5.11c.19,5,.1,11.15,0,17.23a108.55,108.55,0,0,0,13.57-3.42C277,284.89,276.45,282,276,279.19Z"></path><path class="cls-3" d="M273.39,376.86c-1.81-3.86-3.38-12.92-4.75-17.76-4.43-15.74-6.27-41-6.26-46,0-6.54-2.61-34.41-1.91-39.48.46-3.32-15-11.63-15-11.63,4.9,19.57-1,27.05.16,39.11,1.33,14.26,6.79,23.64,10.89,37.25a58.88,58.88,0,0,1,1.5,10.87c.1,2.53-.84,8.84-.93,11.79a78,78,0,0,1,2.13,16.17l1.95,3.22,14.6,0S274.78,379.84,273.39,376.86Z"></path><path class="cls-4" d="M260.47,273.65a1.08,1.08,0,0,0,0-.18,69.32,69.32,0,0,0-13.13.39,65,65,0,0,1-.87,14c3,1.59,10.4,3.37,14.61,3.66C260.55,283.57,260.14,276.05,260.47,273.65Z"></path></g><path id="shoe" class="cls-69" d="M259.76,380.33a1.31,1.31,0,0,0,.16.13l5.1,1.68,12.43-.3c.17-1.89-2.67-2-4.06-5a19.45,19.45,0,0,1-1.1-3.4h0c.56,2.82-1.19,3.44-2.2,3.63-1.34.25-9.16.84-12-11.36.05.26,1.21,9.93,1.1,12.48A12.43,12.43,0,0,0,259.76,380.33Z"></path><g id="skirt"><path id="skirt-2" data-name="skirt" class="cls-70" d="M235.67,204.61c-4.61,13.33-9.54,74-9.51,74.4,1.43,1.42,3.81,2,6.25,3l-.2,1.76c9.33,5.32,51.37,5.43,59.78-1.15l-.12-1.79c2.06-.95,4.22-2.19,4.22-2.19S291.4,219.18,284,201.5Z"></path><g id="shadows-2" data-name="shadows" class="cls-71"><path class="cls-72" d="M296.09,278.68s-.55-6.95-1.56-16.8c0,.77.5,11.81.14,13.48s-.54,2.09-2.14,2.82c0,0-6-44.59-6.33-47.78,0,0,4.64,50,4.44,50.81-.66,2.88-15.53,5.77-15.79,5.85,7.8-.76,14.34-2.21,17.14-4.4l-.12-1.79C293.93,279.92,296.09,278.68,296.09,278.68Z"></path><path class="cls-72" d="M274.59,287.09c-4.15,0-32.78.22-41.19-4.34,0,0,5.81-68.83,6.58-68.8,27.63,1,39.33-1.44,46.22-5.61A56,56,0,0,0,284,201.5l-48.28,3.11c-4.61,13.33-9.54,74-9.51,74.4,1.43,1.42,3.81,2,6.25,3l-.2,1.76C238.4,287.34,259,288.58,274.59,287.09Z"></path></g></g><g id="blouse"><path id="blouse-2" data-name="blouse" class="cls-73" d="M293,167.76c-.64-2.88-3.14-26.62-4.77-32.26-2.18-7.57-13.82-6.69-17.09-7.7,0,5.79-6.86,12.5-9.35,12.89-2.81.45-12.75-7.91-14.67-12.47-5.52,1.46-16.06,4.34-18.95,9.7-3.58,6.64-2.36,26.45-3.43,37.33a57.35,57.35,0,0,1-1.43,7.23c-1.61,6.3-1.82,10.62-3.14,23.26a26.47,26.47,0,0,0,7.08,1.59c5.11-12.53,5.44-15.6,6.46-20.29.4-1.85.8-5.09,1.05-6.68.62-3.86,1.29-19.63,2.17-25,0,7.49,7.53,20.62,5.59,26.37-3,8.8-4.52,11.89-8.18,26.93,12.66,3.94,34.78,5.88,52-.6-1.72-9-9.28-23.75-9.7-27.74-.5-4.83,6.22-21.65,5-25.46.39-.83.14,13.29,1.92,19,2.21,7.12,7.85,16.09,7.85,16.09,3.15.05,4.2-3.19,7-5.25C298.15,184.57,296.16,171.91,293,167.76Z"></path><path id="shadow-12" data-name="shadow" class="cls-74" d="M286.37,208.05c-1.72-9-9.28-23.75-9.7-27.74-.47-4.49,5.31-19.36,5.12-24.48-.06-.33-.11-.65-.14-1,.28-2.67-1.86-10.37-3.5-14.11.87,4,3.64,15.09,1.52,16.57-5.19,3.62-32.5,2.45-35.3,2-2.6-.44-6.58-12.49-5-17.85-1,3.19-3.26,11.05-2.39,13.93,0,7.49,7.53,20.62,5.59,26.37-3,8.8-4.52,11.89-8.18,26.93C247,212.59,269.13,214.53,286.37,208.05Zm-48.78-1c-1.18-.93,1.76-9.83,3.19-12.69,0,0,4.69.27,6.38-1.17a16.36,16.36,0,0,0,2.19-3,48.88,48.88,0,0,0-.95-5.37s8.91,3.32,10,3.63c-.94-.72-12.54-6.57-13.25-9.61-.28-1.17-.52-5,1.16-5.41,5.45-1.43,21-3.28,26.82,1.8,1.31,1.15,6.09,19.9,6.09,19.9.38,1.58-14.36-3.17-14.36-3.17,3.5,1.41,11.28,5.08,14.33,6,1.16.34,2.29,1.56,1,2-.72.25-8.61-2.23-12.59-3.21,1.82,1.16,13.86,5.66,14.12,6.43.49,1.46,2.07,4.27.79,4.75C270.82,212.27,244.12,212.23,237.59,207.1Z"></path></g><path id="teeth-2" data-name="teeth" class="cls-13" d="M264.91,106.45a40.38,40.38,0,0,1,5,.65l-1-.63a7.69,7.69,0,0,0-4.13-1.54,11.6,11.6,0,0,0-6.44,1.94A20.41,20.41,0,0,1,264.91,106.45Z"></path><path class="cls-43" d="M262.45,107.66s2.83-.73,4.09,0A11.94,11.94,0,0,0,262.45,107.66Z"></path><path class="cls-75" d="M296.21,358.92s1-10.87,13.41-11.91,13.87,11.91,13.87,11.91l-2.78.57s-2.55-12.3-10.86-11-10.06,11-10.06,11Z"></path><rect class="cls-76" x="269.87" y="358.63" width="82.03" height="59.87" rx="11.68"></rect><path class="cls-77" d="M276.4,362.33s66-3.12,70.73,0,3.64,43.86-4.68,47.59-55.3,11.53-60.16,1.13S276.4,362.33,276.4,362.33Z"></path><rect class="cls-75" x="159.08" y="377.99" width="66.1" height="33.05" rx="7.4"></rect><rect class="cls-78" x="165.26" y="335.52" width="53.74" height="80.92" rx="9.54"></rect><rect class="cls-75" x="169.12" y="374.95" width="46.02" height="36.91" rx="8.27"></rect><rect class="cls-75" x="163.33" y="334.21" width="57.6" height="26.87" rx="6.02"></rect><path class="cls-79" d="M206.85,387.66h-29.5a2.79,2.79,0,0,1-2.78-2.78h0a2.78,2.78,0,0,1,2.78-2.78h29.5a2.78,2.78,0,0,1,2.78,2.78h0A2.79,2.79,0,0,1,206.85,387.66Z"></path><path class="cls-75" d="M180.56,339.25h-8.5v-5.79a4.25,4.25,0,0,1,4.25-4.25h0a4.25,4.25,0,0,1,4.25,4.25Z"></path><path class="cls-75" d="M213.14,339.25h-8.49v-5.79a4.24,4.24,0,0,1,4.24-4.25h0a4.25,4.25,0,0,1,4.25,4.25Z"></path><path class="cls-79" d="M163.75,381.15l.51,27.43s-2.93-4.46-3.65-14.07S161.48,381.15,163.75,381.15Z"></path><path class="cls-80" d="M168.13,362.49h48.56s1.55,7.53-3.16,9.36-40.85,3.2-42.7.47S168.13,362.49,168.13,362.49Z"></path><path class="cls-75" d="M192.1,371.44h0a2.05,2.05,0,0,1-2-2.05V355.07h4.1v14.32A2.05,2.05,0,0,1,192.1,371.44Z"></path><path class="cls-79" d="M165.5,356.85s-.15-19.07,1.7-20.07,48.1-1.78,49.49-.39,5.71,14.82-2,18S165.5,356.85,165.5,356.85Z"></path><path class="cls-79" d="M221,380.68l.62,26.87a7,7,0,0,0,2.21-4.53c.31-3,.62-20.95-.46-22A2,2,0,0,0,221,380.68Z"></path><path class="cls-79" d="M171.16,406.57s-.72-27.23,1.29-28.51,37-1.19,38.4-.93,4,21.72-1.65,26.36S171.16,406.57,171.16,406.57Z"></path><rect class="cls-76" x="142.17" y="394.04" width="92.32" height="25.02" rx="5.61"></rect><path class="cls-77" d="M145.55,396.94h82.2s-1.49,19.69-6.66,19.69-66.42,2.77-72.08-1.69S145.55,396.94,145.55,396.94Z"></path><rect class="cls-75" x="142.17" y="405.52" width="92.32" height="2.07"></rect><path class="cls-13" d="M231.18,258.34h1.61a0,0,0,0,1,0,0v86.6a0,0,0,0,1,0,0h-2.92a0,0,0,0,1,0,0V259.65A1.31,1.31,0,0,1,231.18,258.34Z"></path><path class="cls-13" d="M255.4,258.34H257a1.31,1.31,0,0,1,1.31,1.31v85.29a0,0,0,0,1,0,0H255.4a0,0,0,0,1,0,0v-86.6A0,0,0,0,1,255.4,258.34Z"></path><path class="cls-75" d="M231.62,258.34h25a1.75,1.75,0,0,1,1.75,1.75v2.15a0,0,0,0,1,0,0H229.87a0,0,0,0,1,0,0v-2.15A1.75,1.75,0,0,1,231.62,258.34Z"></path><rect class="cls-81" x="208.97" y="318.79" width="60.86" height="95.2" rx="8.42"></rect><rect class="cls-82" x="221.09" y="318.79" width="60.86" height="95.2" rx="8.42"></rect><path class="cls-75" d="M230.12,416.63a2.64,2.64,0,1,1-2.64-2.64A2.64,2.64,0,0,1,230.12,416.63Z"></path><path class="cls-75" d="M218.56,416.63a2.64,2.64,0,1,1-2.64-2.64A2.64,2.64,0,0,1,218.56,416.63Z"></path><path class="cls-75" d="M276.45,416.63a2.64,2.64,0,1,1-2.64-2.64A2.64,2.64,0,0,1,276.45,416.63Z"></path><path class="cls-75" d="M264.89,416.63a2.64,2.64,0,1,1-2.64-2.64A2.64,2.64,0,0,1,264.89,416.63Z"></path><path class="cls-79" d="M224.82,404.31s-1.15-76.58,1-78.39,45.16-2.17,47.68-1.09,4,55.74-5,70.39S224.82,404.31,224.82,404.31Z"></path><path class="cls-75" d="M216.87,414a3.14,3.14,0,0,1-2.51-2.81c0-.49-.2-15.4-.18-44.38,0-20.93.09-43.95.16-44.85.16-1.87,2.39-3,2.72-3.21l1.65,0c-.77.4-3.43,2.06-3.53,3.25-.06.77-.13,21.53-.15,44.42,0,26.55,0,43.57.14,44.52.15,1.79,2.41,3,4.22,3Z"></path><rect class="cls-83" x="158.46" y="402.89" width="4.8" height="8.23"></rect><path class="cls-75" d="M280.26,387.47s.61-6.38,7.88-7,8.14,7,8.14,7l-1.63.34s-1.5-7.23-6.38-6.45-5.9,6.45-5.9,6.45Z"></path><rect class="cls-78" x="266.98" y="386.45" width="42.58" height="33.05" rx="5.13"></rect><path class="cls-80" d="M268.6,388s37.27-.32,38.13,0,.32,20.84-2.76,24.63-34.63,3.28-34.63,3.28Z"></path><rect class="cls-75" x="266.98" y="393.43" width="42.58" height="1.03"></rect><rect class="cls-83" x="275.34" y="391.92" width="2.23" height="5.02"></rect><rect class="cls-83" x="299.96" y="391.92" width="2.23" height="5.02"></rect><path class="cls-13" d="M206.5,349.12v43.75S204,358.44,206.5,349.12Z"></path><path class="cls-76" d="M286.39,365a263.31,263.31,0,0,1,50.89-.82Z"></path><path class="cls-82" d="M227.75,341.83l-.27,67.2S231.75,351.47,227.75,341.83Z"></path><path class="cls-77" d="M349.08,399.82s-.41,9.65-5.27,12.69-20.12,3.72-20.12,3.72,17.15,1.47,21.61-2.24S349.08,399.82,349.08,399.82Z"></path><path class="cls-76" d="M166.49,409H203S178.38,412.55,166.49,409Z"></path><rect class="cls-84" x="37.9" y="57.6" width="165.24" height="45.03"></rect><rect class="cls-85" x="41.35" y="66.15" width="21.38" height="5.87"></rect><rect class="cls-86" x="41.72" y="66.52" width="20.65" height="5.13"></rect><rect class="cls-85" x="113.54" y="66.15" width="18.08" height="5.87"></rect><rect class="cls-87" x="113.9" y="66.52" width="17.34" height="5.13"></rect><rect class="cls-85" x="64.36" y="66.15" width="47.45" height="5.87"></rect><rect class="cls-88" x="64.72" y="66.52" width="46.72" height="5.13"></rect><rect class="cls-85" x="152.89" y="66.15" width="47.45" height="5.87"></rect><rect class="cls-89" x="153.25" y="66.52" width="46.72" height="5.13"></rect><rect class="cls-85" x="41.35" y="72.92" width="21.38" height="5.87"></rect><rect class="cls-90" x="41.72" y="73.29" width="20.65" height="5.13"></rect><rect class="cls-85" x="113.54" y="72.92" width="18.08" height="5.87"></rect><rect class="cls-91" x="113.9" y="73.29" width="17.34" height="5.13"></rect><rect class="cls-85" x="64.36" y="72.92" width="47.45" height="5.87"></rect><rect class="cls-92" x="64.72" y="73.29" width="46.72" height="5.13"></rect><rect class="cls-85" x="152.89" y="72.92" width="47.45" height="5.87"></rect><rect class="cls-93" x="153.25" y="73.29" width="46.72" height="5.13"></rect><rect class="cls-85" x="133.34" y="66.15" width="18.08" height="5.87"></rect><rect class="cls-94" x="133.71" y="66.52" width="17.34" height="5.13"></rect><rect class="cls-85" x="133.34" y="72.92" width="18.08" height="5.87"></rect><rect class="cls-95" x="133.71" y="73.29" width="17.34" height="5.13"></rect><rect class="cls-85" x="41.35" y="79.69" width="21.38" height="5.87"></rect><rect class="cls-96" x="41.72" y="80.06" width="20.65" height="5.13"></rect><rect class="cls-85" x="113.54" y="79.69" width="18.08" height="5.87"></rect><rect class="cls-97" x="113.9" y="80.06" width="17.34" height="5.13"></rect><rect class="cls-85" x="64.36" y="79.69" width="47.45" height="5.87"></rect><rect class="cls-98" x="64.72" y="80.06" width="46.72" height="5.13"></rect><rect class="cls-85" x="152.89" y="79.69" width="47.45" height="5.87"></rect><rect class="cls-99" x="153.25" y="80.06" width="46.72" height="5.13"></rect><rect class="cls-85" x="41.35" y="86.46" width="21.38" height="5.87"></rect><rect class="cls-100" x="41.72" y="86.82" width="20.65" height="5.13"></rect><rect class="cls-85" x="113.54" y="86.46" width="18.08" height="5.87"></rect><rect class="cls-101" x="113.9" y="86.82" width="17.34" height="5.13"></rect><rect class="cls-85" x="64.36" y="86.46" width="47.45" height="5.87"></rect><rect class="cls-102" x="64.72" y="86.82" width="46.72" height="5.13"></rect><rect class="cls-85" x="152.89" y="86.46" width="47.45" height="5.87"></rect><rect class="cls-103" x="153.25" y="86.82" width="46.72" height="5.13"></rect><rect class="cls-85" x="133.34" y="79.69" width="18.08" height="5.87"></rect><rect class="cls-104" x="133.71" y="80.06" width="17.34" height="5.13"></rect><rect class="cls-85" x="133.34" y="86.46" width="18.08" height="5.87"></rect><rect class="cls-105" x="133.71" y="86.82" width="17.34" height="5.13"></rect><rect class="cls-85" x="41.35" y="93.32" width="21.38" height="5.87"></rect><rect class="cls-106" x="41.72" y="93.69" width="20.65" height="5.13"></rect><rect class="cls-85" x="113.54" y="93.32" width="18.08" height="5.87"></rect><rect class="cls-107" x="113.9" y="93.69" width="17.34" height="5.13"></rect><rect class="cls-85" x="64.36" y="93.32" width="47.45" height="5.87"></rect><rect class="cls-108" x="64.72" y="93.69" width="46.72" height="5.13"></rect><rect class="cls-85" x="152.89" y="93.32" width="47.45" height="5.87"></rect><rect class="cls-109" x="153.25" y="93.69" width="46.72" height="5.13"></rect><rect class="cls-85" x="133.34" y="93.32" width="18.08" height="5.87"></rect><rect class="cls-110" x="133.71" y="93.69" width="17.34" height="5.13"></rect><path class="cls-111" d="M42.37,64V60.9H44.1v.34H42.77v1h1.16v.31H42.77V64Z"></path><path class="cls-111" d="M44.61,64V60.9H45v2.72h1.61V64Z"></path><path class="cls-111" d="M47.36,64H47V60.9h.4Z"></path><path class="cls-111" d="M50.13,63.82a2.07,2.07,0,0,1-.93.24,1.37,1.37,0,0,1-.74-.19,1.3,1.3,0,0,1-.46-.52,2,2,0,0,1-.16-.88,2.15,2.15,0,0,1,.16-.94,1.17,1.17,0,0,1,.45-.53,1.19,1.19,0,0,1,.69-.19,1.35,1.35,0,0,1,.5.09.73.73,0,0,1,.36.26.56.56,0,0,1,.13.35v0h-.37v0a.27.27,0,0,0-.08-.2.46.46,0,0,0-.21-.14.75.75,0,0,0-.31-.05.78.78,0,0,0-.68.34,1.81,1.81,0,0,0-.23,1,1.66,1.66,0,0,0,.24,1,.77.77,0,0,0,.68.36,1.77,1.77,0,0,0,.59-.12v-.88h-.69v-.3h1.06Z"></path><path class="cls-111" d="M51.06,64h-.39V60.9h.39v1.36h1.41V60.9h.4V64h-.4V62.57H51.06Z"></path><path class="cls-111" d="M54.26,64V61.21h-1V60.9h2.47v.31h-1V64Z"></path><path class="cls-111" d="M65.38,64V60.9h.85a1.86,1.86,0,0,1,.9.17,1.13,1.13,0,0,1,.45.51,2.1,2.1,0,0,1,.16.84,1.94,1.94,0,0,1-.15.8,1.12,1.12,0,0,1-.44.54,1.47,1.47,0,0,1-.87.2Zm.4-.34h.47a1.3,1.3,0,0,0,.63-.12.72.72,0,0,0,.33-.39,1.56,1.56,0,0,0,.12-.66,2,2,0,0,0-.11-.68.79.79,0,0,0-.31-.43,1.32,1.32,0,0,0-.67-.13h-.46Z"></path><path class="cls-111" d="M68.21,64V60.9h1.73v.34H68.61v1h1.16v.31H68.61v1.11h1.44V64Z"></path><path class="cls-111" d="M70.46,63.28h.4v0a.38.38,0,0,0,.18.35,1,1,0,0,0,.48.1A.63.63,0,0,0,72,63.6a.5.5,0,0,0,.18-.4.4.4,0,0,0-.15-.33,1.87,1.87,0,0,0-.46-.26l-.16-.06a1.94,1.94,0,0,1-.49-.27.83.83,0,0,1-.24-.29.78.78,0,0,1-.08-.35.8.8,0,0,1,.25-.59,1.06,1.06,0,0,1,.77-.24,1,1,0,0,1,.67.18.54.54,0,0,1,.2.41v0H72v0a.24.24,0,0,0-.06-.15.39.39,0,0,0-.18-.1,1.12,1.12,0,0,0-.27,0,.6.6,0,0,0-.43.14.49.49,0,0,0-.14.34.39.39,0,0,0,.07.23.47.47,0,0,0,.18.19l.39.2.19.08a1.35,1.35,0,0,1,.6.41.77.77,0,0,1,.15.46,1,1,0,0,1-.12.45.75.75,0,0,1-.34.32,1.19,1.19,0,0,1-.58.12,1.55,1.55,0,0,1-.57-.09.63.63,0,0,1-.35-.27.72.72,0,0,1-.12-.4Z"></path><path class="cls-111" d="M73.8,64V61.21h-1V60.9h2.46v.31h-1V64Z"></path><path class="cls-111" d="M76,64h-.4V60.9H76Z"></path><path class="cls-111" d="M76.91,64h-.36V60.9h.39l1.4,2.18.13.24V60.9h.37V64h-.39L77,61.78l-.12-.25V64Z"></path><path class="cls-111" d="M79.55,64h-.37l1.25-3.06h.41L82,64h-.43l-.32-.84H79.9ZM80,62.81h1.11l-.54-1.42Z"></path><path class="cls-111" d="M83.16,64V61.21h-1V60.9h2.46v.31h-1V64Z"></path><path class="cls-111" d="M85.33,64h-.4V60.9h.4Z"></path><path class="cls-111" d="M87.1,64.06a1.18,1.18,0,0,1-.93-.43,2.13,2.13,0,0,1,0-2.4,1.25,1.25,0,0,1,1.87,0,2.18,2.18,0,0,1,0,2.4A1.18,1.18,0,0,1,87.1,64.06Zm0-.31a.75.75,0,0,0,.66-.36,2.1,2.1,0,0,0,0-1.91.78.78,0,0,0-1.31,0,2.1,2.1,0,0,0,0,1.91A.75.75,0,0,0,87.1,63.75Z"></path><path class="cls-111" d="M89.25,64h-.37V60.9h.39l1.4,2.18.13.24V60.9h.37V64h-.39l-1.41-2.18-.12-.25V64Z"></path><path class="cls-111" d="M116.38,63.82a2.07,2.07,0,0,1-.93.24,1.37,1.37,0,0,1-.74-.19,1.21,1.21,0,0,1-.45-.52,1.89,1.89,0,0,1-.17-.88,2.15,2.15,0,0,1,.16-.94,1.23,1.23,0,0,1,.45-.53,1.21,1.21,0,0,1,.69-.19,1.35,1.35,0,0,1,.5.09.73.73,0,0,1,.36.26.56.56,0,0,1,.13.35v0H116v0a.28.28,0,0,0-.09-.2.46.46,0,0,0-.21-.14.73.73,0,0,0-.3-.05.79.79,0,0,0-.69.34,1.81,1.81,0,0,0-.23,1,1.66,1.66,0,0,0,.24,1,.77.77,0,0,0,.68.36,1.87,1.87,0,0,0,.6-.12v-.88h-.69v-.3h1Z"></path><path class="cls-111" d="M117.06,64h-.37l1.25-3.06h.41L119.5,64h-.43l-.31-.84H117.4Zm.46-1.15h1.12l-.54-1.42Z"></path><path class="cls-111" d="M120.67,64V61.21h-1V60.9h2.47v.31h-1V64Z"></path><path class="cls-111" d="M122.44,64V60.9h1.73v.34h-1.33v1H124v.31h-1.16v1.11h1.43V64Z"></path><path class="cls-111" d="M136.28,64V61.21h-1V60.9h2.46v.31h-1V64Z"></path><path class="cls-111" d="M138.45,64h-.4V60.9h.4Z"></path><path class="cls-111" d="M139.37,64H139V60.9h.39l1,2.19.88-2.19h.38V64h-.35V61.59h0l-.2.55-.54,1.36h-.4l-.59-1.37-.18-.5h0V64Z"></path><path class="cls-111" d="M142.21,64V60.9h1.73v.34h-1.33v1h1.16v.31h-1.16v1.11h1.44V64Z"></path><path class="cls-111" d="M154.52,63.28h.39v0a.38.38,0,0,0,.18.35,1,1,0,0,0,.48.1.67.67,0,0,0,.44-.15.5.5,0,0,0,.17-.4.4.4,0,0,0-.15-.33,1.7,1.7,0,0,0-.46-.26l-.16-.06a1.85,1.85,0,0,1-.48-.27.73.73,0,0,1-.24-.29.67.67,0,0,1-.08-.35.79.79,0,0,1,.24-.59,1.08,1.08,0,0,1,.77-.24,1,1,0,0,1,.67.18.51.51,0,0,1,.2.41v0h-.4v0a.24.24,0,0,0-.06-.15.39.39,0,0,0-.18-.1,1.09,1.09,0,0,0-.26,0,.63.63,0,0,0-.44.14.49.49,0,0,0-.14.34.39.39,0,0,0,.07.23.55.55,0,0,0,.18.19l.4.2.19.08a1.35,1.35,0,0,1,.6.41.77.77,0,0,1,.15.46.86.86,0,0,1-.13.45.78.78,0,0,1-.33.32,1.22,1.22,0,0,1-.58.12A1.64,1.64,0,0,1,155,64a.58.58,0,0,1-.34-.27.72.72,0,0,1-.12-.4Z"></path><path class="cls-111" d="M157.85,64V61.21h-1V60.9h2.47v.31h-1V64Z"></path><path class="cls-111" d="M159.77,64h-.37l1.25-3.06h.4L162.21,64h-.43l-.32-.84h-1.35Zm.46-1.15h1.12l-.54-1.42Z"></path><path class="cls-111" d="M163.37,64V61.21h-1V60.9h2.47v.31h-1V64Z"></path><path class="cls-111" d="M165.1,60.9h.4v2a1.45,1.45,0,0,0,.08.58.56.56,0,0,0,.26.22,1.06,1.06,0,0,0,.4.08.84.84,0,0,0,.37-.08.53.53,0,0,0,.25-.24,2,2,0,0,0,.08-.7V60.9h.36v1.93a1.64,1.64,0,0,1-.12.75.81.81,0,0,1-.36.35,1.24,1.24,0,0,1-.58.13,1.64,1.64,0,0,1-.6-.11.77.77,0,0,1-.41-.31,1.53,1.53,0,0,1-.13-.72Z"></path><path class="cls-111" d="M167.76,63.28h.4v0a.38.38,0,0,0,.18.35,1,1,0,0,0,.48.1.67.67,0,0,0,.44-.15.53.53,0,0,0,.17-.4.4.4,0,0,0-.15-.33,1.7,1.7,0,0,0-.46-.26l-.16-.06a1.94,1.94,0,0,1-.49-.27,1,1,0,0,1-.24-.29.78.78,0,0,1-.07-.35.79.79,0,0,1,.24-.59,1.06,1.06,0,0,1,.77-.24,1,1,0,0,1,.67.18.54.54,0,0,1,.2.41v0h-.4v0a.24.24,0,0,0-.06-.15.39.39,0,0,0-.18-.1,1.09,1.09,0,0,0-.26,0,.61.61,0,0,0-.44.14.49.49,0,0,0-.14.34.39.39,0,0,0,.07.23.47.47,0,0,0,.18.19l.4.2.18.08a1.35,1.35,0,0,1,.6.41.77.77,0,0,1,.15.46,1,1,0,0,1-.12.45.75.75,0,0,1-.34.32,1.17,1.17,0,0,1-.58.12,1.59,1.59,0,0,1-.57-.09.63.63,0,0,1-.35-.27.72.72,0,0,1-.12-.4Z"></path><rect class="cls-112" x="37.9" y="49.19" width="165.24" height="8.73"></rect><rect class="cls-113" x="37.9" y="40" width="165.24" height="17.18"></rect><path class="cls-112" d="M56.39,49a7.59,7.59,0,1,1-7.58-7.59A7.58,7.58,0,0,1,56.39,49Z"></path><path class="cls-114" d="M48.82,56a7.32,7.32,0,1,1,7.31-7.32A7.32,7.32,0,0,1,48.82,56Z"></path><path class="cls-115" d="M48.82,55.84a7.2,7.2,0,1,1,7.2-7.2,7.21,7.21,0,0,1-7.2,7.2Z"></path><path class="cls-116" d="M55.14,48.64a6.32,6.32,0,1,1-6.32-6.32A6.32,6.32,0,0,1,55.14,48.64Z"></path><path class="cls-117" d="M48.82,54.73a6.09,6.09,0,1,1,6.09-6.09,6.09,6.09,0,0,1-6.09,6.09Z"></path><path class="cls-118" d="M52.26,45.22c0,1.31-1.54,2.37-3.44,2.37s-3.44-1.06-3.44-2.37,1.54-2.36,3.44-2.36S52.26,43.92,52.26,45.22Z"></path><path d="M48.06,44.2v0a.23.23,0,0,0,.11,0,.17.17,0,0,0,0-.12v-.7a.35.35,0,0,0,0-.06H48v0A1.53,1.53,0,0,0,48.4,43h0v1a.17.17,0,0,0,0,.12s0,0,.11,0v0Z"></path><path d="M49.09,44.05h.65v.15h-.87v-.05l.11-.09a2.21,2.21,0,0,0,.25-.22l.11-.13a.53.53,0,0,0,.12-.31.28.28,0,0,0-.06-.18.24.24,0,0,0-.16-.07.25.25,0,0,0-.16.06.38.38,0,0,0-.09.15h0a.36.36,0,0,1,.37-.34.36.36,0,0,1,.27.1.29.29,0,0,1,.11.22.44.44,0,0,1-.14.29,3.09,3.09,0,0,1-.49.41Z"></path><path d="M54,48.24a.18.18,0,0,0-.06-.15.24.24,0,0,0-.15-.06.32.32,0,0,0-.19.09v0a.3.3,0,0,1,.13-.12.46.46,0,0,1,.2,0,.36.36,0,0,1,.23.08.23.23,0,0,1,.09.19.22.22,0,0,1-.08.18.46.46,0,0,1-.22.11h0a.37.37,0,0,1,.26.09.27.27,0,0,1,.09.21.32.32,0,0,1-.12.25.49.49,0,0,1-.3.09.46.46,0,0,1-.36-.15h0a.45.45,0,0,0,.25.09.24.24,0,0,0,.24-.24.26.26,0,0,0-.08-.21.31.31,0,0,0-.22-.07h-.05v0C53.84,48.47,54,48.38,54,48.24Z"></path><path d="M49.16,53.05v0a.56.56,0,0,0-.37.19.67.67,0,0,0-.15.39.74.74,0,0,1,.27-.06.37.37,0,0,1,.25.09.28.28,0,0,1,.1.21.3.3,0,0,1-.13.26.5.5,0,0,1-.31.1.44.44,0,0,1-.46-.46.69.69,0,0,1,.1-.37.89.89,0,0,1,.3-.28A.82.82,0,0,1,49.16,53.05ZM49,54a.28.28,0,0,0-.06-.18.19.19,0,0,0-.15-.08.29.29,0,0,0-.18.07.22.22,0,0,0,0,.09.44.44,0,0,0,.06.25.17.17,0,0,0,.15.1.17.17,0,0,0,.13-.07A.28.28,0,0,0,49,54Z"></path><path d="M43.35,49.14v0a.58.58,0,0,0,.35-.19.63.63,0,0,0,.16-.4.6.6,0,0,1-.27.07.32.32,0,0,1-.24-.09.27.27,0,0,1-.1-.22.3.3,0,0,1,.12-.25.46.46,0,0,1,.31-.1.43.43,0,0,1,.47.45.7.7,0,0,1-.11.37.71.71,0,0,1-.29.28A.82.82,0,0,1,43.35,49.14Zm.14-.9a.29.29,0,0,0,0,.19.21.21,0,0,0,.15.07.24.24,0,0,0,.18-.07.28.28,0,0,0,0-.09.46.46,0,0,0-.06-.25.16.16,0,0,0-.15-.09.16.16,0,0,0-.13.07A.25.25,0,0,0,43.49,48.24Z"></path><polygon class="cls-119" points="45.95 43.94 46.12 43.84 46.58 44.61 46.41 44.72 45.95 43.94"></polygon><rect class="cls-119" x="44.35" y="45.64" width="0.2" height="0.9" transform="translate(-17.76 61.27) rotate(-59.75)"></rect><rect class="cls-119" x="44" y="51.09" width="0.9" height="0.2" transform="translate(-19.79 29.52) rotate(-30.39)"></rect><polygon class="cls-119" points="46.12 53.45 45.95 53.35 46.41 52.57 46.58 52.67 46.12 53.45"></polygon><rect class="cls-119" x="51.27" y="52.56" width="0.2" height="0.9" transform="translate(-19.78 33.36) rotate(-30.47)"></rect><rect class="cls-119" x="53.08" y="50.74" width="0.2" height="0.9" transform="translate(-17.88 71.17) rotate(-59.61)"></rect><polygon class="cls-119" points="53.52 45.78 53.62 45.95 52.85 46.4 52.74 46.23 53.52 45.78"></polygon><rect class="cls-119" x="50.92" y="44.18" width="0.9" height="0.2" transform="translate(-12.84 66.1) rotate(-59.53)"></rect><rect class="cls-120" x="44.45" y="49.43" width="4.46" height="0.1" transform="translate(-14.61 19.98) rotate(-20.97)"></rect><polygon class="cls-121" points="50.61 48.84 48.78 48.9 48.78 48.39 50.61 48.45 53.1 48.56 53.1 48.72 50.61 48.84"></polygon><path class="cls-122" d="M49,48.14l0-1.26-.11-3.66h-.16l-.12,3.66,0,1.26a.56.56,0,1,0,.47,0Z"></path><path class="cls-123" d="M49.1,48.64a.3.3,0,1,1-.59,0,.3.3,0,1,1,.59,0Z"></path><path class="cls-111" d="M195.17,44.19,192,45.64l-3.47-.85-1.37.62,2.62,1.24-3.23,1.46-1.94-.88-.83.38.75,1.66a.84.84,0,0,0-.08.78,1.05,1.05,0,0,0,1.43.33L190,48.49,189,52.24l1.76-.8L193,47.17l3-1.34a.93.93,0,1,0-.74-1.64Z"></path><rect class="cls-111" x="181.45" y="53.87" width="9.6" height="0.78"></rect><text class="cls-124" transform="translate(67.38 71.29)">Spain<tspan x="0" y="6.66">Italy</tspan><tspan x="0" y="13.32">Portugal</tspan><tspan x="0" y="19.98">Belgium</tspan><tspan x="0" y="26.64">Netherlands</tspan></text><text class="cls-124" transform="translate(44.18 71.29)">DG290<tspan x="0" y="6.66">CL332</tspan><tspan x="0" y="13.32">RD90</tspan><tspan x="0" y="19.98">FL667</tspan><tspan x="0" y="26.64">RD88</tspan></text><text class="cls-124" transform="translate(115.71 71.29)">C43<tspan x="0" y="6.66">C41</tspan><tspan x="0" y="13.32">A12</tspan><tspan x="0" y="19.98">B10</tspan><tspan x="0" y="26.64">D40</tspan></text><text class="cls-124" transform="translate(154.37 71.29)">DELAYED<tspan x="0" y="6.66">DELAYED</tspan><tspan x="0" y="13.32">DELAYED</tspan><tspan x="0" y="19.98">DELAYED</tspan><tspan x="0" y="26.64">DELAYED</tspan></text><text class="cls-124" transform="translate(135.15 71.29)">09:00<tspan x="0" y="6.66">09:10</tspan><tspan x="0" y="13.32">09:30</tspan><tspan x="0" y="19.98">10:00</tspan><tspan x="0" y="26.64">10:45</tspan></text><text class="cls-125" transform="translate(89.65 53.42)">DEPARTURES</text><rect class="cls-113" x="158.62" width="6.11" height="40.61"></rect><rect class="cls-113" x="76.31" width="6.11" height="40.61"></rect></g></g></svg> 