<?xml version="1.0" encoding="utf-8"?>
<!-- Generator: Adobe Illustrator 23.0.0, SVG Export Plug-In . SVG Version: 6.00 Build 0)  -->
<svg version="1.1" id="Layer_1" xmlns="http://www.w3.org/2000/svg" xmlns:xlink="http://www.w3.org/1999/xlink" x="0px" y="0px"
	 viewBox="0 0 115.87 20.76" style="enable-background:new 0 0 115.87 20.76;" xml:space="preserve">
<style type="text/css">
	.st0{fill:#00B67A;}
	.st1{fill-rule:evenodd;clip-rule:evenodd;fill:#FFFFFF;}
</style>
<g>
	<path class="st0" d="M0,0h21v20.76H0V0z"/>
	<path class="st1" d="M12.23,8.75h5.64l-4.56,3.28l-2.78,2l-0.02,0l0.01,0l-0.03,0.02l-4.56,3.26l1.74-5.29L3.11,8.75h5.64
		l1.74-5.29L12.23,8.75z M10.52,14.04l4.53,3.25L13.7,13.2l-3.17,0.83L10.52,14.04z"/>
	<path class="st0" d="M23.72,0h21v20.76h-21V0z"/>
	<path class="st1" d="M35.94,8.75h5.64l-4.56,3.28l-2.78,2l-0.02,0l0,0l-0.03,0.02l-4.56,3.26l1.74-5.29l-4.56-3.28h5.64l1.74-5.29
		L35.94,8.75z M34.24,14.04l4.53,3.25l-1.34-4.09l-3.17,0.83L34.24,14.04z"/>
	<path class="st0" d="M47.43,0h21v20.76h-21V0z"/>
	<path class="st1" d="M59.66,8.75h5.64l-4.56,3.28l-2.78,2l-0.02,0l0.01,0l-0.03,0.02l-4.56,3.26l1.74-5.29l-4.56-3.28h5.64
		l1.74-5.29L59.66,8.75z M57.95,14.04l4.53,3.25l-1.34-4.09l-3.17,0.83L57.95,14.04z"/>
	<path class="st0" d="M71.15,0h21v20.76h-21V0z"/>
	<path class="st1" d="M83.38,8.75h5.64l-4.56,3.28l-2.78,2l-0.01,0l0,0l-0.03,0.02l-4.56,3.26l1.74-5.29l-4.56-3.28h5.64l1.74-5.29
		L83.38,8.75z M81.67,14.04l4.53,3.25l-1.34-4.09l-3.17,0.83L81.67,14.04z"/>
	<path class="st0" d="M94.87,0h21v20.76h-21V0z"/>
	<path class="st1" d="M107.09,8.75h5.64l-4.56,3.28l-2.78,2l-0.02,0l0,0l-0.03,0.02l-4.56,3.26l1.74-5.29l-4.56-3.28h5.64l1.74-5.29
		L107.09,8.75z M105.39,14.04l4.53,3.25l-1.34-4.09l-3.17,0.83L105.39,14.04z"/>
</g>
</svg>
