<?xml version="1.0" encoding="utf-8"?>
<!-- Generator: Adobe Illustrator 23.0.0, SVG Export Plug-In . SVG Version: 6.00 Build 0)  -->
<svg version="1.1" id="Layer_1" xmlns="http://www.w3.org/2000/svg" xmlns:xlink="http://www.w3.org/1999/xlink" x="0px" y="0px"
	 viewBox="0 0 201.3 195.8" style="enable-background:new 0 0 201.3 195.8;" xml:space="preserve">
<style type="text/css">
	.st0{fill:none;stroke:#000000;stroke-width:4.8175;stroke-miterlimit:10;}
</style>
<g>
	<polyline class="st0" points="79.5,97.7 62.6,63.1 86.2,77.1 95.2,38.2 106.5,61.1 122.1,49.5 125.1,67.8 150.7,56.8 130.8,88.1 	
		"/>
	<path class="st0" d="M1.6,99.4c0,0,45.6,21,50.3,23c4.7,2,37.6,8,37.6,8v15h-25"/>
	<line class="st0" x1="26.3" y1="146.7" x2="0.3" y2="146.7"/>
	<circle class="st0" cx="46.6" cy="144.7" r="13"/>
	<circle class="st0" cx="154.1" cy="143.3" r="14.3"/>
	<path class="st0" d="M133.1,147.3h-17c0,0-5.4-10.9-5.7-16c-1-13.7,8.1-16,8.1-16l40.9-7.3l40.9-31.3V109l-45.3,0"/>
	<line class="st0" x1="174.7" y1="147" x2="201" y2="147"/>
	<path class="st0" d="M109.2,135.2"/>
</g>
</svg>
